{
.appVersion = "3207";
.formatVersion = 3;
DisplayStrings = (
"ABCDEFGHIJKLMNOPÞQRSTUVWVXYZÆŒ.,μabcdefghiıjȷklmnopþqrstuvwxyzœæßð¹²³⁴ªº0123456789/.notdef !¡()[]•{}'‘’¿?¤¥$¢€%‰¸˙`´ˆˇ˚˜¶©†®@™‡£ƒ§&/f_b.liga ﬂﬁ/f_h.liga/f_j.liga/f_k.liga/f_f.liga ˛"
);
axes = (
{
name = Weight;
tag = wght;
},
{
name = Width;
tag = wdth;
}
);
classes = (
{
automatic = 1;
code = "A Aacute Abreve Acaron Acircumflex Adieresis Agrave Amacron Aogonek Aring Atilde AE B C Cacute Ccaron Ccedilla Cdotaccent D Eth Dcaron Dcroat E Eacute Ecaron Ecircumflex Edieresis Edotaccent Egrave Emacron Eogonek F G Gbreve Gcommaaccent Gdotaccent H Hbar I IJ Iacute Icircumflex Idieresis Idotaccent Igrave Imacron Iogonek J K Kcommaaccent L Lacute Lcaron Lcommaaccent Lslash M N Nacute Ncaron Ncommaaccent Ntilde Eng O Oacute Ocircumflex Odieresis Ograve Ohungarumlaut Omacron Oslash Otilde OE P Thorn Q R Racute Rcaron Rcommaaccent S Sacute Scaron Scedilla Scommaaccent Germandbls T Tcaron Tcommaaccent U Uacute Ubreve Ucircumflex Udieresis Ugrave Uhungarumlaut Umacron Uogonek Uring V W Wacute Wcircumflex Wdieresis Wgrave X Y Yacute Ycircumflex Ydieresis Ygrave Z Zacute Zcaron Zdotaccent";
name = Uppercase;
}
);
customParameters = (
{
name = "EditView Line Height";
value = 1100;
},
{
name = "Use Line Breaks";
value = 1;
},
{
name = "Use Typo Metrics";
value = 1;
},
{
name = fsType;
value = (
);
},
{
name = "Color Palettes";
value = (
(
(115,250,121,255),
(255,138,216,255)
)
);
}
);
date = "2022-03-23 12:33:01 +0000";
familyName = "Kalnia-Color";
featurePrefixes = (
{
automatic = 1;
code = "languagesystem DFLT dflt;

languagesystem latn dflt;
languagesystem latn AZE;
languagesystem latn CRT;
languagesystem latn KAZ;
languagesystem latn TAT;
languagesystem latn TRK;
languagesystem latn ROM;
languagesystem latn MOL;
languagesystem latn CAT;
";
name = Languagesystems;
}
);
features = (
{
automatic = 1;
code = "feature locl;
feature sups;
feature frac;
feature ordn;
feature case;
";
tag = aalt;
},
{

glyphs = (
{
color = 4;
glyphname = A;
kernLeft = A;
kernRight = AA;
lastChange = "2023-07-23 05:01:50 +0000";
layers = (
{
anchors = (
{
name = bottom;
pos = (410,0);
},
{
name = ogonek;
pos = (811,10);
},
{
name = top;
pos = (410,708);
}
);
layerId = "2660E96A-9963-4076-AFCB-E451BC6EE103";
shapes = (
{
closed = 1;
nodes = (
(378,0,l),
(378,10,l),
(262,10,o),
(212,105,o),
(212,222,cs),
(212,300,o),
(235,407,o),
(281,521,cs),
(285,531,l),
(298,531,l),
(502,19,l),
(432,5,l),
(432,0,l),
(815,0,l),
(815,10,l),
(767,20,l),
(493,708,l),
(341,708,l),
(56,20,l),
(5,10,l),
(5,0,l)
);
},
{
closed = 1;
nodes = (
(402,285,l),
(402,315,l),
(172,295,l),
(172,285,l)
);
},
{
attr = {
gradient = {
colors = (
(
(200,255,255,255),
0
),
(
(150,140,250,255),
0.26017
),
(
(255,0,220,255),
0.5293
),
(
(255,130,170,255),
0.75567
),
(
(255,220,220,255),
1
)
);
end = (0.4895,0.9855);
start = (-0.4495,-0.0152);
};
};
closed = 1;
nodes = (
(312,551,l),
(297,551,l),
(354,688,l),
(479,688,l),
(746,20,l),
(523,20,l)
);
},
{
attr = {
gradient = {
colors = (
(
(200,255,255,255),
0
),
(
(150,140,250,255),
0.23418
),
(
(255,0,220,255),
0.50454
),
(
(255,130,170,255),
0.72473
),
(
(255,220,220,255),
1
)
);
end = (2.0492,2.2226);
start = (-0.0044,0.0088);
};
};
closed = 1;
nodes = (
(201,320,l),
(195,284,o),
(192,251,o),
(192,222,cs),
(192,128,o),
(223,53,o),
(284,20,c),
(77,20,l)
);
}
);
width = 820;
},
{
anchors = (
{
name = bottom;
pos = (626,0);
},
{
name = ogonek;
pos = (1242,10);
},
{
name = top;
pos = (626,708);
}
);
layerId = "DF54607F-DD82-41E6-B2E3-81CA6D0E5C47";
shapes = (
{
closed = 1;
nodes = (
(574,0,l),
(574,10,l),
(423,10,o),
(301,83,o),
(301,235,cs),
(301,317,o),
(333,428,o),
(412,533,cs),
(418,541,l),
(439,541,l),
(773,19,l),
(703,5,l),
(703,0,l),
(1246,0,l),
(1246,10,l),
(1198,20,l),
(758,708,l),
(514,708,l),
(57,20,l),
(5,10,l),
(5,0,l)
);
},
{
closed = 1;
nodes = (
(612,285,l),
(612,315,l),
(243,295,l),
(243,285,l)
);
},
{
attr = {
gradient = {
colors = (
(
(200,255,255,255),
0
),
(
(150,140,250,255),
0.26017
),
(
(255,0,220,255),
0.5293
),
(
(255,130,170,255),
0.75567
),
(
(255,220,220,255),
1
)
);
end = (2.0994,1.9181);
start = (-0.432,-0.0366);
};
};
closed = 1;
nodes = (
(450,561,l),
(441,561,l),
(525,688,l),
(741,688,l),
(1175,20,l),
(796,20,l)
);
},
{
attr = {
gradient = {
colors = (
(
(200,255,255,255),
0
),
(
(150,140,250,255),
0.23418
),
(
(255,0,220,255),
0.50454
),
(
(255,130,170,255),
0.72473
),
(
(255,220,220,255),
1
)
);
end = (5.3692,4.0579);
start = (-0.0018,0.0164);
};
};
closed = 1;
nodes = (
(296,343,l),
(286,304,o),
(280,268,o),
(280,233,cs),
(280,120,o),
(321,61,o),
(427,20,c),
(81,20,l)
);
}
);
width = 1251;
},
{
anchors = (
{
name = bottom;
pos = (355,0);
},
{
name = ogonek;
pos = (685,10);
},
{
name = top;
pos = (355,708);
}
);
layerId = "A5088515-37FF-452F-BD44-18A7A5EF88F0";
shapes = (
{
closed = 1;
nodes = (
(217,0,l),
(217,10,l),
(146,10,o),
(122,21,o),
(122,54,cs),
(122,66,o),
(126,84,o),
(134,103,c),
(350,680,l),
(359,680,l),
(604,24,l),
(533,10,l),
(533,0,l),
(689,0,l),
(689,10,l),
(619,25,l),
(363,708,l),
(345,708,l),
(90,25,l),
(20,10,l),
(20,0,l)
);
},
{
closed = 1;
nodes = (
(511,290,l),
(511,305,l),
(195,300,l),
(195,290,l)
);
},
{
attr = {
gradient = {
colors = (
(
(200,255,255,255),
0
),
(
(150,140,250,255),
0.26017
),
(
(255,0,220,255),
0.5293
),
(
(255,130,170,255),
0.75567
),
(
(255,220,220,255),
1
)
);
end = (0.4895,0.9855);
start = (-0.4495,-0.0152);
};
};
closed = 1;
nodes = (
(362,686,l),
(342,686,l),
(348,703,l),
(360,703,l),
(621,7,l),
(616,7,l)
);
},
{
attr = {
gradient = {
colors = (
(
(200,255,255,255),
0
),
(
(150,140,250,255),
0.23418
),
(
(255,0,220,255),
0.50454
),
(
(255,130,170,255),
0.72473
),
(
(255,220,220,255),
1
)
);
end = (7.7146,6.3255);
start = (-0.0044,0.0088);
};
};
closed = 1;
nodes = (
(126,103,l),
(117,80,o),
(113,65,o),
(113,50,cs),
(113,24,o),
(128,14,o),
(157,5,c),
(89,5,l)
);
}
);
width = 709;
},
{
anchors = (
{
name = bottom;
pos = (542,0);
},
{
name = ogonek;
pos = (1035,10);
},
{
name = top;
pos = (542,708);
}
);
layerId = "35A90D60-3AD4-435C-9F8B-D1CA483F6F66";
shapes = (
{
closed = 1;
nodes = (
(332,0,l),
(332,10,l),
(223,10,o),
(187,21,o),
(187,53,cs),
(187,65,o),
(193,83,o),
(205,103,c),
(534,680,l),
(549,680,l),
(922,24,l),
(814,10,l),
(814,0,l),
(1044,0,l),
(1044,10,l),
(937,25,l),
(547,708,l),
(535,708,l),
(147,25,l),
(40,10,l),
(40,0,l)
);
},
{
closed = 1;
nodes = (
(773,290,l),
(773,305,l),
(307,300,l),
(307,290,l)
);
},
{
attr = {
gradient = {
colors = (
(
(200,255,255,255),
0
),
(
(150,140,250,255),
0.26017
),
(
(255,0,220,255),
0.5293
),
(
(255,130,170,255),
0.75567
),
(
(255,220,220,255),
1
)
);
end = (2.0994,1.9181);
start = (-0.432,-0.0366);
};
};
closed = 1;
nodes = (
(552,684,l),
(526,684,l),
(537,703,l),
(544,703,l),
(941,7,l),
(936,7,l)
);
},
{
attr = {
gradient = {
colors = (
(
(200,255,255,255),
0
),
(
(150,140,250,255),
0.23418
),
(
(255,0,220,255),
0.50454
),
(
(255,130,170,255),
0.72473
),
(
(255,220,220,255),
1
)
);
end = (5.3692,4.0579);
start = (-0.0018,0.0164);
};
};
closed = 1;
nodes = (
(197,103,l),
(183,80,o),
(178,65,o),
(178,50,cs),
(178,24,o),
(200,11,o),
(247,5,c),
(141,5,l)
);
}
);
width = 1084;
},
{
anchors = (
{
name = bottom;
pos = (355,0);
},
{
name = ogonek;
pos = (685,10);
},
{
name = top;
pos = (355,708);
}
);
associatedMasterId = "A5088515-37FF-452F-BD44-18A7A5EF88F0";
attr = {
colorPalette = 0;
};
layerId = "9A7A6BB8-00CB-46BD-9D23-115C28FF4947";
name = "22 Jul 23 10:00 p.m.";
shapes = (
{
closed = 1;
nodes = (
(217,0,l),
(217,10,l),
(146,10,o),
(122,21,o),
(122,54,cs),
(122,66,o),
(126,84,o),
(134,103,c),
(350,680,l),
(359,680,l),
(604,24,l),
(533,10,l),
(533,0,l),
(689,0,l),
(689,10,l),
(619,25,l),
(363,708,l),
(345,708,l),
(90,25,l),
(20,10,l),
(20,0,l)
);
},
{
closed = 1;
nodes = (
(511,290,l),
(511,305,l),
(195,300,l),
(195,290,l)
);
}
);
width = 709;
},
{
anchors = (
{
name = bottom;
pos = (355,0);
},
{
name = ogonek;
pos = (685,10);
},
{
name = top;
pos = (355,708);
}
);
associatedMasterId = "A5088515-37FF-452F-BD44-18A7A5EF88F0";
attr = {
colorPalette = 1;
};
layerId = "6BA15312-F4C8-421F-B132-97076AD4F1ED";
name = "22 Jul 23 10:00 p.m.";
shapes = (
{
attr = {
gradient = {
colors = (
(
(200,255,255,255),
0
),
(
(150,140,250,255),
0.26017
),
(
(255,0,220,255),
0.5293
),
(
(255,130,170,255),
0.75567
),
(
(255,220,220,255),
1
)
);
end = (0.4895,0.9855);
start = (-0.4495,-0.0152);
};
};
closed = 1;
nodes = (
(362,686,l),
(342,686,l),
(348,703,l),
(360,703,l),
(621,7,l),
(616,7,l)
);
},
{
attr = {
gradient = {
colors = (
(
(200,255,255,255),
0
),
(
(150,140,250,255),
0.23418
),
(
(255,0,220,255),
0.50454
),
(
(255,130,170,255),
0.72473
),
(
(255,220,220,255),
1
)
);
end = (7.7146,6.3255);
start = (-0.0044,0.0088);
};
};
closed = 1;
nodes = (
(126,103,l),
(117,80,o),
(113,65,o),
(113,50,cs),
(113,24,o),
(128,14,o),
(157,5,c),
(89,5,l)
);
}
);
width = 709;
},
{
anchors = (
{
name = bottom;
pos = (410,0);
},
{
name = ogonek;
pos = (811,10);
},
{
name = top;
pos = (410,708);
}
);
associatedMasterId = "2660E96A-9963-4076-AFCB-E451BC6EE103";
attr = {
colorPalette = 0;
};
layerId = "AB2B8775-BB19-4B1D-B2BC-C076D8D1C6AE";
name = "22 Jul 23 10:00 p.m.";
shapes = (
{
closed = 1;
nodes = (
(378,0,l),
(378,10,l),
(262,10,o),
(212,105,o),
(212,222,cs),
(212,300,o),
(235,407,o),
(281,521,cs),
(285,531,l),
(298,531,l),
(502,19,l),
(432,5,l),
(432,0,l),
(815,0,l),
(815,10,l),
(767,20,l),
(493,708,l),
(341,708,l),
(56,20,l),
(5,10,l),
(5,0,l)
);
},
{
closed = 1;
nodes = (
(402,285,l),
(402,315,l),
(172,295,l),
(172,285,l)
);
}
);
width = 820;
},
{
anchors = (
{
name = bottom;
pos = (410,0);
},
{
name = ogonek;
pos = (811,10);
},
{
name = top;
pos = (410,708);
}
);
associatedMasterId = "2660E96A-9963-4076-AFCB-E451BC6EE103";
attr = {
colorPalette = 1;
};
layerId = "2BD122FE-C7D9-4001-A178-6C3C149CAFA0";
name = "22 Jul 23 10:00 p.m.";
shapes = (
{
attr = {
gradient = {
colors = (
(
(200,255,255,255),
0
),
(
(150,140,250,255),
0.26017
),
(
(255,0,220,255),
0.5293
),
(
(255,130,170,255),
0.75567
),
(
(255,220,220,255),
1
)
);
end = (0.4895,0.9855);
start = (-0.4495,-0.0152);
};
};
closed = 1;
nodes = (
(312,551,l),
(297,551,l),
(354,688,l),
(479,688,l),
(746,20,l),
(523,20,l)
);
},
{
attr = {
gradient = {
colors = (
(
(200,255,255,255),
0
),
(
(150,140,250,255),
0.23418
),
(
(255,0,220,255),
0.50454
),
(
(255,130,170,255),
0.72473
),
(
(255,220,220,255),
1
)
);
end = (2.0492,2.2226);
start = (-0.0044,0.0088);
};
};
closed = 1;
nodes = (
(201,320,l),
(195,284,o),
(192,251,o),
(192,222,cs),
(192,128,o),
(223,53,o),
(284,20,c),
(77,20,l)
);
}
);
width = 820;
},
{
anchors = (
{
name = bottom;
pos = (542,0);
},
{
name = ogonek;
pos = (1035,10);
},
{
name = top;
pos = (542,708);
}
);
associatedMasterId = "35A90D60-3AD4-435C-9F8B-D1CA483F6F66";
attr = {
colorPalette = 0;
};
layerId = "73D2162B-7A52-46EA-86A9-DD074B000100";
name = "22 Jul 23 10:00 p.m.";
shapes = (
{
closed = 1;
nodes = (
(332,0,l),
(332,10,l),
(223,10,o),
(187,21,o),
(187,53,cs),
(187,65,o),
(193,83,o),
(205,103,c),
(534,680,l),
(549,680,l),
(922,24,l),
(814,10,l),
(814,0,l),
(1044,0,l),
(1044,10,l),
(937,25,l),
(547,708,l),
(535,708,l),
(147,25,l),
(40,10,l),
(40,0,l)
);
},
{
closed = 1;
nodes = (
(773,290,l),
(773,305,l),
(307,300,l),
(307,290,l)
);
}
);
width = 1084;
},
{
anchors = (
{
name = bottom;
pos = (542,0);
},
{
name = ogonek;
pos = (1035,10);
},
{
name = top;
pos = (542,708);
}
);
associatedMasterId = "35A90D60-3AD4-435C-9F8B-D1CA483F6F66";
attr = {
colorPalette = 1;
};
layerId = "70C11EC3-B3AB-4A05-8442-08B3CA09E474";
name = "22 Jul 23 10:00 p.m.";
shapes = (
{
attr = {
gradient = {
colors = (
(
(200,255,255,255),
0
),
(
(150,140,250,255),
0.26017
),
(
(255,0,220,255),
0.5293
),
(
(255,130,170,255),
0.75567
),
(
(255,220,220,255),
1
)
);
end = (2.0994,1.9181);
start = (-0.432,-0.0366);
};
};
closed = 1;
nodes = (
(552,684,l),
(526,684,l),
(537,703,l),
(544,703,l),
(941,7,l),
(936,7,l)
);
},
{
attr = {
gradient = {
colors = (
(
(200,255,255,255),
0
),
(
(150,140,250,255),
0.23418
),
(
(255,0,220,255),
0.50454
),
(
(255,130,170,255),
0.72473
),
(
(255,220,220,255),
1
)
);
end = (5.3692,4.0579);
start = (-0.0018,0.0164);
};
};
closed = 1;
nodes = (
(197,103,l),
(183,80,o),
(178,65,o),
(178,50,cs),
(178,24,o),
(200,11,o),
(247,5,c),
(141,5,l)
);
}
);
width = 1084;
},
{
anchors = (
{
name = bottom;
pos = (626,0);
},
{
name = ogonek;
pos = (1242,10);
},
{
name = top;
pos = (626,708);
}
);
associatedMasterId = "DF54607F-DD82-41E6-B2E3-81CA6D0E5C47";
attr = {
colorPalette = 0;
};
layerId = "40BD4B7F-ABDD-415D-83A9-ACEA1E9E2F8A";
name = "22 Jul 23 10:00 p.m.";
shapes = (
{
closed = 1;
nodes = (
(574,0,l),
(574,10,l),
(423,10,o),
(301,83,o),
(301,235,cs),
(301,317,o),
(333,428,o),
(412,533,cs),
(418,541,l),
(439,541,l),
(773,19,l),
(703,5,l),
(703,0,l),
(1246,0,l),
(1246,10,l),
(1198,20,l),
(758,708,l),
(514,708,l),
(57,20,l),
(5,10,l),
(5,0,l)
);
},
{
closed = 1;
nodes = (
(612,285,l),
(612,315,l),
(243,295,l),
(243,285,l)
);
}
);
width = 1251;
},
{
anchors = (
{
name = bottom;
pos = (626,0);
},
{
name = ogonek;
pos = (1242,10);
},
{
name = top;
pos = (626,708);
}
);
associatedMasterId = "DF54607F-DD82-41E6-B2E3-81CA6D0E5C47";
attr = {
colorPalette = 1;
};
layerId = "CEBA15AD-B4BD-4D30-B033-8C35EF800C04";
name = "22 Jul 23 10:01 p.m.";
shapes = (
{
attr = {
gradient = {
colors = (
(
(200,255,255,255),
0
),
(
(150,140,250,255),
0.26017
),
(
(255,0,220,255),
0.5293
),
(
(255,130,170,255),
0.75567
),
(
(255,220,220,255),
1
)
);
end = (2.0994,1.9181);
start = (-0.432,-0.0366);
};
};
closed = 1;
nodes = (
(450,561,l),
(441,561,l),
(525,688,l),
(741,688,l),
(1175,20,l),
(796,20,l)
);
},
{
attr = {
gradient = {
colors = (
(
(200,255,255,255),
0
),
(
(150,140,250,255),
0.23418
),
(
(255,0,220,255),
0.50454
),
(
(255,130,170,255),
0.72473
),
(
(255,220,220,255),
1
)
);
end = (5.3692,4.0579);
start = (-0.0018,0.0164);
};
};
closed = 1;
nodes = (
(296,343,l),
(286,304,o),
(280,268,o),
(280,233,cs),
(280,120,o),
(321,61,o),
(427,20,c),
(81,20,l)
);
}
);
width = 1251;
}
);
unicode = 65;
},
{
color = 4;
glyphname = AE;
kernLeft = A;
kernRight = E;
lastChange = "2023-07-26 23:47:53 +0000";
layers = (
{
layerId = "2660E96A-9963-4076-AFCB-E451BC6EE103";
shapes = (
{
closed = 1;
nodes = (
(348,0,l),
(348,10,l),
(279,36,o),
(247,93,o),
(247,167,cs),
(247,282,o),
(302,447,o),
(414,667,c),
(420,678,l),
(448,670,l),
(448,708,l),
(347,708,l),
(347,698,l),
(397,684,l),
(58,25,l),
(5,10,l),
(5,0,l)
);
},
{
closed = 1;
nodes = (
(448,315,l),
(448,345,l),
(261,325,l),
(261,315,l)
);
},
{
closed = 1;
nodes = (
(797,693,o),
(847,659,o),
(880,598,cs),
(975,424,l),
(985,424,l),
(1020,708,l),
(438,708,l),
(438,25,l),
(388,10,l),
(388,0,l),
(1020,0,l),
(985,284,l),
(975,284,l),
(906,138,ls),
(870,62,o),
(810,15,o),
(765,15,cs),
(683,15,l),
(683,356,l),
(693,356,l),
(839,246,l),
(849,246,l),
(849,506,l),
(839,506,l),
(833,486,o),
(811,439,o),
(777,405,cs),
(757,384,o),
(731,366,o),
(703,366,c),
(683,366,l),
(683,693,l),
(765,693,ls)
);
},
{
closed = 1;
nodes = (
(458,688,l),
(663,688,l),
(663,20,l),
(458,20,l)
);
},
{
closed = 1;
nodes = (
(771,362,o),
(796,384,o),
(827,433,c),
(827,282,l),
(736,351,l)
);
},
{
closed = 1;
nodes = (
(874,43,o),
(901,76,o),
(926,129,cs),
(971,223,l),
(995,20,l),
(841,20,l)
);
},
{
closed = 1;
nodes = (
(899,609,ls),
(878,648,o),
(860,669,o),
(835,688,c),
(995,688,l),
(970,479,l)
);
},
{
closed = 1;
nodes = (
(278,410,l),
(281,410,l),
(248,315,o),
(227,232,o),
(227,167,cs),
(227,106,o),
(247,54,o),
(290,20,c),
(78,20,l)
);
}
);
width = 1070;
},
{
layerId = "DF54607F-DD82-41E6-B2E3-81CA6D0E5C47";
shapes = (
{
closed = 1;
nodes = (
(578,0,l),
(578,10,l),
(471,10,o),
(365,56,o),
(365,164,cs),
(365,251,o),
(435,377,o),
(643,670,c),
(649,678,l),
(675,673,l),
(675,708,l),
(543,708,l),
(543,698,l),
(616,684,l),
(61,20,l),
(5,10,l),
(5,0,l)
);
},
{
closed = 1;
nodes = (
(679,285,l),
(679,315,l),
(387,295,l),
(387,285,l)
);
},
{
closed = 1;
nodes = (
(1431,693,o),
(1533,657,o),
(1623,579,cs),
(1800,424,l),
(1810,424,l),
(1884,708,l),
(668,708,l),
(668,20,l),
(618,10,l),
(618,0,l),
(1884,0,l),
(1810,284,l),
(1800,284,l),
(1652,140,ls),
(1565,55,o),
(1451,15,o),
(1343,15,cs),
(1188,15,l),
(1188,356,l),
(1200,356,l),
(1511,246,l),
(1521,246,l),
(1521,506,l),
(1511,506,l),
(1499,488,o),
(1454,449,o),
(1393,416,cs),
(1343,390,o),
(1282,366,o),
(1221,366,c),
(1188,366,l),
(1188,693,l),
(1343,693,ls)
);
},
{
closed = 1;
nodes = (
(688,688,l),
(1168,688,l),
(1168,20,l),
(688,20,l)
);
},
{
closed = 1;
nodes = (
(1371,372,o),
(1426,399,o),
(1499,462,c),
(1499,274,l),
(1279,351,l)
);
},
{
closed = 1;
nodes = (
(1555,39,o),
(1615,73,o),
(1667,124,cs),
(1796,250,l),
(1856,20,l),
(1484,20,l)
);
},
{
closed = 1;
nodes = (
(1637,596,ls),
(1585,642,o),
(1529,672,o),
(1469,688,c),
(1856,688,l),
(1796,457,l)
);
},
{
closed = 1;
nodes = (
(469,468,l),
(471,468,l),
(380,330,o),
(345,246,o),
(345,164,cs),
(345,91,o),
(386,46,o),
(445,20,c),
(88,20,l)
);
}
);
width = 1934;
},
{
layerId = "A5088515-37FF-452F-BD44-18A7A5EF88F0";
shapes = (
{
closed = 1;
nodes = (
(226,0,l),
(226,10,l),
(153,10,o),
(128,21,o),
(128,52,cs),
(128,65,o),
(133,83,o),
(143,103,c),
(420,683,l),
(426,682,l),
(426,708,l),
(354,708,l),
(354,698,l),
(407,687,l),
(90,25,l),
(20,10,l),
(20,0,l)
);
},
{
closed = 1;
nodes = (
(426,290,l),
(426,305,l),
(227,300,l),
(227,290,l)
);
},
{
closed = 1;
nodes = (
(822,693,o),
(838,679,o),
(833,635,c),
(817,484,l),
(832,484,l),
(866,708,l),
(424,708,l),
(424,25,l),
(354,10,l),
(354,0,l),
(866,0,l),
(832,243,l),
(817,243,l),
(839,83,l),
(846,32,o),
(834,15,o),
(789,15,cs),
(439,15,l),
(439,353,l),
(659,353,l),
(665,256,l),
(675,256,l),
(675,498,l),
(665,498,l),
(665,436,o),
(662,399,o),
(656,385,cs),
(651,374,o),
(641,368,o),
(628,368,c),
(439,368,l),
(439,693,l),
(772,693,ls)
);
},
{
closed = 1;
nodes = (
(429,703,l),
(434,703,l),
(434,5,l),
(429,5,l)
);
},
{
closed = 1;
nodes = (
(665,369,o),
(667,379,o),
(668,388,c),
(668,288,l),
(664,360,l)
);
},
{
closed = 1;
nodes = (
(840,7,o),
(854,29,o),
(846,84,cs),
(825,236,l),
(858,7,l),
(789,7,l)
);
},
{
closed = 1;
nodes = (
(840,634,ls),
(845,683,o),
(826,701,o),
(772,701,c),
(858,701,l),
(826,491,l)
);
},
{
closed = 1;
nodes = (
(157,153,l),
(160,153,l),
(131,88,o),
(121,62,o),
(121,50,cs),
(121,24,o),
(136,11,o),
(168,5,c),
(90,5,l)
);
}
);
width = 941;
},
{
layerId = "35A90D60-3AD4-435C-9F8B-D1CA483F6F66";
shapes = (
{
closed = 1;
nodes = (
(328,0,l),
(328,10,l),
(224,10,o),
(188,20,o),
(188,51,cs),
(188,64,o),
(195,81,o),
(210,103,c),
(606,684,l),
(613,683,l),
(613,708,l),
(516,708,l),
(516,698,l),
(591,687,l),
(140,25,l),
(40,10,l),
(40,0,l)
);
},
{
closed = 1;
nodes = (
(613,290,l),
(613,305,l),
(333,300,l),
(333,290,l)
);
},
{
closed = 1;
nodes = (
(1300,693,o),
(1316,676,o),
(1310,625,cs),
(1293,484,l),
(1308,484,l),
(1342,708,l),
(610,708,l),
(610,25,l),
(501,10,l),
(501,0,l),
(1342,0,l),
(1308,243,l),
(1293,243,l),
(1314,91,l),
(1322,34,o),
(1310,15,o),
(1265,15,cs),
(625,15,l),
(625,353,l),
(995,353,l),
(1001,256,l),
(1011,256,l),
(1011,498,l),
(1001,498,l),
(1001,434,o),
(997,392,o),
(990,381,cs),
(985,372,o),
(976,368,o),
(964,368,cs),
(625,368,l),
(625,693,l),
(1248,693,ls)
);
},
{
closed = 1;
nodes = (
(615,703,l),
(620,703,l),
(620,5,l),
(615,5,l)
);
},
{
closed = 1;
nodes = (
(1001,369,o),
(1003,379,o),
(1004,388,c),
(1004,288,l),
(1000,360,l)
);
},
{
closed = 1;
nodes = (
(1316,7,o),
(1329,31,o),
(1321,92,cs),
(1302,236,l),
(1334,7,l),
(1265,7,l)
);
},
{
closed = 1;
nodes = (
(1317,624,ls),
(1323,679,o),
(1304,701,o),
(1248,701,c),
(1334,701,l),
(1302,491,l)
);
},
{
closed = 1;
nodes = (
(233,153,l),
(236,153,l),
(195,92,o),
(181,66,o),
(181,50,cs),
(181,24,o),
(203,5,o),
(250,5,c),
(136,5,l)
);
}
);
width = 1457;
},
{
associatedMasterId = "DF54607F-DD82-41E6-B2E3-81CA6D0E5C47";
attr = {
colorPalette = 0;
};
layerId = "1A915FA8-837A-4AC3-9447-A77149F492C9";
name = "26 Jul 23 4:27 p.m.";
shapes = (
{
closed = 1;
nodes = (
(578,0,l),
(578,10,l),
(471,10,o),
(365,56,o),
(365,164,cs),
(365,251,o),
(435,377,o),
(643,670,c),
(649,678,l),
(675,673,l),
(675,708,l),
(543,708,l),
(543,698,l),
(616,684,l),
(61,20,l),
(5,10,l),
(5,0,l)
);
},
{
closed = 1;
nodes = (
(679,285,l),
(679,315,l),
(387,295,l),
(387,285,l)
);
},
{
closed = 1;
nodes = (
(1431,693,o),
(1533,657,o),
(1623,579,cs),
(1800,424,l),
(1810,424,l),
(1884,708,l),
(668,708,l),
(668,20,l),
(618,10,l),
(618,0,l),
(1884,0,l),
(1810,284,l),
(1800,284,l),
(1652,140,ls),
(1565,55,o),
(1451,15,o),
(1343,15,cs),
(1188,15,l),
(1188,356,l),
(1200,356,l),
(1511,246,l),
(1521,246,l),
(1521,506,l),
(1511,506,l),
(1499,488,o),
(1454,449,o),
(1393,416,cs),
(1343,390,o),
(1282,366,o),
(1221,366,c),
(1188,366,l),
(1188,693,l),
(1343,693,ls)
);
}
);
width = 1934;
},
{
associatedMasterId = "35A90D60-3AD4-435C-9F8B-D1CA483F6F66";
attr = {
colorPalette = 0;
};
layerId = "28C0DD2B-66C1-4F38-9598-7975C3D4B9E0";
name = "26 Jul 23 4:27 p.m.";
shapes = (
{
closed = 1;
nodes = (
(328,0,l),
(328,10,l),
(224,10,o),
(188,20,o),
(188,51,cs),
(188,64,o),
(195,81,o),
(210,103,c),
(606,684,l),
(613,683,l),
(613,708,l),
(516,708,l),
(516,698,l),
(591,687,l),
(140,25,l),
(40,10,l),
(40,0,l)
);
},
{
closed = 1;
nodes = (
(613,290,l),
(613,305,l),
(333,300,l),
(333,290,l)
);
},
{
closed = 1;
nodes = (
(1300,693,o),
(1316,676,o),
(1310,625,cs),
(1293,484,l),
(1308,484,l),
(1342,708,l),
(610,708,l),
(610,25,l),
(501,10,l),
(501,0,l),
(1342,0,l),
(1308,243,l),
(1293,243,l),
(1314,91,l),
(1322,34,o),
(1310,15,o),
(1265,15,cs),
(625,15,l),
(625,353,l),
(995,353,l),
(1001,256,l),
(1011,256,l),
(1011,498,l),
(1001,498,l),
(1001,434,o),
(997,392,o),
(990,381,cs),
(985,372,o),
(976,368,o),
(964,368,cs),
(625,368,l),
(625,693,l),
(1248,693,ls)
);
}
);
width = 1457;
},
{
associatedMasterId = "2660E96A-9963-4076-AFCB-E451BC6EE103";
attr = {
colorPalette = 0;
};
layerId = "80FCC63D-F78A-4405-AFFB-90BC39D7E7B6";
name = "26 Jul 23 4:27 p.m.";
shapes = (
{
closed = 1;
nodes = (
(348,0,l),
(348,10,l),
(279,36,o),
(247,93,o),
(247,167,cs),
(247,282,o),
(302,447,o),
(414,667,c),
(420,678,l),
(448,670,l),
(448,708,l),
(347,708,l),
(347,698,l),
(397,684,l),
(58,25,l),
(5,10,l),
(5,0,l)
);
},
{
closed = 1;
nodes = (
(448,315,l),
(448,345,l),
(261,325,l),
(261,315,l)
);
},
{
closed = 1;
nodes = (
(797,693,o),
(847,659,o),
(880,598,cs),
(975,424,l),
(985,424,l),
(1020,708,l),
(438,708,l),
(438,25,l),
(388,10,l),
(388,0,l),
(1020,0,l),
(985,284,l),
(975,284,l),
(906,138,ls),
(870,62,o),
(810,15,o),
(765,15,cs),
(683,15,l),
(683,356,l),
(693,356,l),
(839,246,l),
(849,246,l),
(849,506,l),
(839,506,l),
(833,486,o),
(811,439,o),
(777,405,cs),
(757,384,o),
(731,366,o),
(703,366,c),
(683,366,l),
(683,693,l),
(765,693,ls)
);
}
);
width = 1070;
},
{
associatedMasterId = "A5088515-37FF-452F-BD44-18A7A5EF88F0";
attr = {
colorPalette = 0;
};
layerId = "552FA32D-04F1-478A-9BBE-ECA744722CEE";
name = "26 Jul 23 4:27 p.m.";
shapes = (
{
closed = 1;
nodes = (
(226,0,l),
(226,10,l),
(153,10,o),
(128,21,o),
(128,52,cs),
(128,65,o),
(133,83,o),
(143,103,c),
(420,683,l),
(426,682,l),
(426,708,l),
(354,708,l),
(354,698,l),
(407,687,l),
(90,25,l),
(20,10,l),
(20,0,l)
);
},
{
closed = 1;
nodes = (
(426,290,l),
(426,305,l),
(227,300,l),
(227,290,l)
);
},
{
closed = 1;
nodes = (
(822,693,o),
(838,679,o),
(833,635,c),
(817,484,l),
(832,484,l),
(866,708,l),
(424,708,l),
(424,25,l),
(354,10,l),
(354,0,l),
(866,0,l),
(832,243,l),
(817,243,l),
(839,83,l),
(846,32,o),
(834,15,o),
(789,15,cs),
(439,15,l),
(439,353,l),
(659,353,l),
(665,256,l),
(675,256,l),
(675,498,l),
(665,498,l),
(665,436,o),
(662,399,o),
(656,385,cs),
(651,374,o),
(641,368,o),
(628,368,c),
(439,368,l),
(439,693,l),
(772,693,ls)
);
}
);
width = 941;
},
{
associatedMasterId = "DF54607F-DD82-41E6-B2E3-81CA6D0E5C47";
attr = {
colorPalette = 1;
};
layerId = "DF1E0F5B-5A29-449F-846B-7036EC7492F4";
name = "26 Jul 23 4:39 p.m.";
shapes = (
{
closed = 1;
nodes = (
(679,285,l),
(679,315,l),
(387,295,l),
(387,285,l)
);
},
{
closed = 1;
nodes = (
(688,688,l),
(1168,688,l),
(1168,20,l),
(688,20,l)
);
},
{
closed = 1;
nodes = (
(1371,372,o),
(1426,399,o),
(1499,462,c),
(1499,274,l),
(1279,351,l)
);
},
{
closed = 1;
nodes = (
(1555,39,o),
(1615,73,o),
(1667,124,cs),
(1796,250,l),
(1856,20,l),
(1484,20,l)
);
},
{
closed = 1;
nodes = (
(1637,596,ls),
(1585,642,o),
(1529,672,o),
(1469,688,c),
(1856,688,l),
(1796,457,l)
);
},
{
closed = 1;
nodes = (
(469,468,l),
(471,468,l),
(380,330,o),
(345,246,o),
(345,164,cs),
(345,91,o),
(386,46,o),
(445,20,c),
(88,20,l)
);
}
);
width = 1934;
},
{
associatedMasterId = "35A90D60-3AD4-435C-9F8B-D1CA483F6F66";
attr = {
colorPalette = 1;
};
layerId = "E454BD01-E0A1-4562-AC0C-2BE9FA897412";
name = "26 Jul 23 4:39 p.m.";
shapes = (
{
closed = 1;
nodes = (
(613,290,l),
(613,305,l),
(333,300,l),
(333,290,l)
);
},
{
closed = 1;
nodes = (
(615,703,l),
(620,703,l),
(620,5,l),
(615,5,l)
);
},
{
closed = 1;
nodes = (
(1001,369,o),
(1003,379,o),
(1004,388,c),
(1004,288,l),
(1000,360,l)
);
},
{
closed = 1;
nodes = (
(1316,7,o),
(1329,31,o),
(1321,92,cs),
(1302,236,l),
(1334,7,l),
(1265,7,l)
);
},
{
closed = 1;
nodes = (
(1317,624,ls),
(1323,679,o),
(1304,701,o),
(1248,701,c),
(1334,701,l),
(1302,491,l)
);
},
{
closed = 1;
nodes = (
(233,153,l),
(236,153,l),
(195,92,o),
(181,66,o),
(181,50,cs),
(181,24,o),
(203,5,o),
(250,5,c),
(136,5,l)
);
}
);
width = 1457;
},
{
associatedMasterId = "2660E96A-9963-4076-AFCB-E451BC6EE103";
attr = {
colorPalette = 1;
};
layerId = "C3116A99-C712-4E57-A2B4-BD362AEA0367";
name = "26 Jul 23 4:39 p.m.";
shapes = (
{
closed = 1;
nodes = (
(448,315,l),
(448,345,l),
(261,325,l),
(261,315,l)
);
},
{
closed = 1;
nodes = (
(458,688,l),
(663,688,l),
(663,20,l),
(458,20,l)
);
},
{
closed = 1;
nodes = (
(771,362,o),
(796,384,o),
(827,433,c),
(827,282,l),
(736,351,l)
);
},
{
closed = 1;
nodes = (
(874,43,o),
(901,76,o),
(926,129,cs),
(971,223,l),
(995,20,l),
(841,20,l)
);
},
{
closed = 1;
nodes = (
(899,609,ls),
(878,648,o),
(860,669,o),
(835,688,c),
(995,688,l),
(970,479,l)
);
},
{
closed = 1;
nodes = (
(278,410,l),
(281,410,l),
(248,315,o),
(227,232,o),
(227,167,cs),
(227,106,o),
(247,54,o),
(290,20,c),
(78,20,l)
);
}
);
width = 1070;
},
{
associatedMasterId = "A5088515-37FF-452F-BD44-18A7A5EF88F0";
attr = {
colorPalette = 1;
};
layerId = "692601EB-CCD9-48E5-B575-618008EBEE52";
name = "26 Jul 23 4:39 p.m.";
shapes = (
{
closed = 1;
nodes = (
(426,290,l),
(426,305,l),
(227,300,l),
(227,290,l)
);
},
{
closed = 1;
nodes = (
(429,703,l),
(434,703,l),
(434,5,l),
(429,5,l)
);
},
{
closed = 1;
nodes = (
(665,369,o),
(667,379,o),
(668,388,c),
(668,288,l),
(664,360,l)
);
},
{
closed = 1;
nodes = (
(840,7,o),
(854,29,o),
(846,84,cs),
(825,236,l),
(858,7,l),
(789,7,l)
);
},
{
closed = 1;
nodes = (
(840,634,ls),
(845,683,o),
(826,701,o),
(772,701,c),
(858,701,l),
(826,491,l)
);
},
{
closed = 1;
nodes = (
(157,153,l),
(160,153,l),
(131,88,o),
(121,62,o),
(121,50,cs),
(121,24,o),
(136,11,o),
(168,5,c),
(90,5,l)
);
}
);
width = 941;
}
);
metricRight = E;
unicode = 198;
},
{
color = 4;
glyphname = B;
kernLeft = HH;
kernRight = B;
lastChange = "2023-07-26 05:59:11 +0000";
layers = (
{
layerId = "2660E96A-9963-4076-AFCB-E451BC6EE103";
shapes = (
{
closed = 1;
nodes = (
(20,708,l),
(20,698,l),
(70,683,l),
(70,25,l),
(20,10,l),
(20,0,l),
(441,0,ls),
(638,0,o),
(746,58,o),
(746,192,cs),
(746,326,o),
(584,370,o),
(438,370,c),
(438,380,l),
(553,380,o),
(720,423,o),
(720,554,cs),
(720,655,o),
(625,708,o),
(463,708,cs)
);
},
{
closed = 1;
nodes = (
(465,692,o),
(505,638,o),
(505,554,cs),
(505,427,o),
(449,384,o),
(379,382,cs),
(309,380,l),
(309,369,l),
(379,367,l),
(467,367,o),
(515,324,o),
(515,208,cs),
(515,59,o),
(452,14,o),
(394,14,cs),
(352,14,o),
(326,16,o),
(315,20,c),
(315,688,l),
(328,691,o),
(358,692,o),
(405,692,cs)
);
},
{
closed = 1;
nodes = (
(90,688,l),
(295,688,l),
(295,20,l),
(90,20,l)
);
},
{
closed = 1;
nodes = (
(518,59,o),
(535,112,o),
(535,208,cs),
(535,276,o),
(520,319,o),
(488,350,c),
(621,350,o),
(726,280,o),
(726,192,cs),
(726,76,o),
(632,19,o),
(472,19,c)
);
},
{
closed = 1;
nodes = (
(508,431,o),
(525,482,o),
(525,554,cs),
(525,615,o),
(508,660,o),
(473,688,c),
(623,688,o),
(700,641,o),
(700,554,cs),
(700,453,o),
(583,399,o),
(476,399,c)
);
}
);
width = 776;
},
{
layerId = "DF54607F-DD82-41E6-B2E3-81CA6D0E5C47";
shapes = (
{
closed = 1;
nodes = (
(20,708,l),
(20,698,l),
(70,683,l),
(70,25,l),
(20,10,l),
(20,0,l),
(716,0,ls),
(1073,0,o),
(1335,80,o),
(1335,192,cs),
(1335,296,o),
(1092,370,o),
(783,370,c),
(783,380,l),
(1100,380,o),
(1309,445,o),
(1309,554,cs),
(1309,651,o),
(1091,708,o),
(738,708,cs)
);
},
{
closed = 1;
nodes = (
(740,692,o),
(780,638,o),
(780,554,cs),
(780,427,o),
(724,384,o),
(654,382,cs),
(584,380,l),
(584,368,l),
(654,367,l),
(742,367,o),
(790,324,o),
(790,208,cs),
(790,59,o),
(727,14,o),
(669,14,cs),
(638,14,o),
(610,16,o),
(590,20,c),
(590,686,l),
(615,690,o),
(645,692,o),
(680,692,cs)
);
},
{
closed = 1;
nodes = (
(90,688,l),
(570,688,l),
(570,20,l),
(90,20,l)
);
},
{
closed = 1;
nodes = (
(789,50,o),
(810,113,o),
(810,208,cs),
(810,270,o),
(795,318,o),
(769,350,c),
(1089,350,o),
(1315,281,o),
(1315,192,cs),
(1315,97,o),
(1081,19,o),
(746,19,c)
);
},
{
closed = 1;
nodes = (
(784,433,o),
(800,484,o),
(800,554,cs),
(800,618,o),
(783,662,o),
(748,688,c),
(1090,688,o),
(1289,636,o),
(1289,554,cs),
(1289,460,o),
(1097,400,o),
(756,400,c)
);
}
);
width = 1365;
},
{
layerId = "A5088515-37FF-452F-BD44-18A7A5EF88F0";
shapes = (
{
closed = 1;
nodes = (
(80,708,l),
(80,698,l),
(150,683,l),
(150,25,l),
(80,10,l),
(80,0,l),
(361,0,l),
(528,0,o),
(609,63,o),
(609,187,cs),
(609,314,o),
(525,361,o),
(424,369,c),
(424,374,l),
(501,385,o),
(564,437,o),
(564,537,cs),
(564,652,o),
(495,708,o),
(345,708,cs)
);
},
{
closed = 1;
nodes = (
(485,692,o),
(549,641,o),
(549,537,cs),
(549,458,o),
(503,379,o),
(360,377,cs),
(157,374,l),
(157,364,l),
(360,361,ls),
(530,358,o),
(594,298,o),
(594,187,cs),
(594,72,o),
(517,15,o),
(361,15,cs),
(265,15,o),
(200,18,o),
(165,24,c),
(165,683,l),
(206,689,o),
(266,692,o),
(345,692,cs)
);
},
{
closed = 1;
nodes = (
(155,703,l),
(160,703,l),
(160,5,l),
(155,5,l)
);
},
{
closed = 1;
nodes = (
(544,34,o),
(599,89,o),
(599,187,cs),
(599,279,o),
(552,339,o),
(455,359,c),
(540,344,o),
(604,296,o),
(604,187,cs),
(604,89,o),
(553,34,o),
(445,15,c)
);
},
{
closed = 1;
nodes = (
(521,410,o),
(554,474,o),
(554,537,cs),
(554,623,o),
(511,674,o),
(434,692,c),
(521,674,o),
(559,623,o),
(559,537,cs),
(559,451,o),
(508,402,o),
(447,384,c)
);
}
);
width = 669;
},
{
layerId = "35A90D60-3AD4-435C-9F8B-D1CA483F6F66";
shapes = (
{
closed = 1;
nodes = (
(100,708,l),
(100,698,l),
(209,683,l),
(209,25,l),
(100,10,l),
(100,0,l),
(546,0,l),
(819,0,o),
(953,63,o),
(953,187,cs),
(953,314,o),
(823,361,o),
(649,369,c),
(649,374,l),
(775,384,o),
(879,437,o),
(879,537,cs),
(879,652,o),
(766,708,o),
(536,708,cs)
);
},
{
closed = 1;
nodes = (
(750,692,o),
(864,641,o),
(864,537,cs),
(864,458,o),
(780,377,o),
(544,377,c),
(210,374,l),
(210,364,l),
(544,361,l),
(823,361,o),
(938,298,o),
(938,187,cs),
(938,72,o),
(803,15,o),
(546,15,cs),
(417,15,o),
(311,18,o),
(224,24,c),
(224,683,l),
(308,689,o),
(412,692,o),
(536,692,cs)
);
},
{
closed = 1;
nodes = (
(214,703,l),
(219,703,l),
(219,5,l),
(214,5,l)
);
},
{
closed = 1;
nodes = (
(848,34,o),
(943,88,o),
(943,187,cs),
(943,278,o),
(870,337,o),
(701,359,c),
(853,343,o),
(948,295,o),
(948,187,cs),
(948,89,o),
(863,34,o),
(685,15,c)
);
},
{
closed = 1;
nodes = (
(817,410,o),
(869,473,o),
(869,537,cs),
(869,618,o),
(805,669,o),
(676,692,c),
(808,672,o),
(874,620,o),
(874,537,cs),
(874,452,o),
(796,402,o),
(690,384,c)
);
}
);
width = 1023;
},
{
associatedMasterId = "A5088515-37FF-452F-BD44-18A7A5EF88F0";
attr = {
colorPalette = 0;
};
layerId = "0402F625-08D4-4840-9D36-6BAFD83E00B8";
name = "25 Jul 23 10:25 p.m.";
shapes = (
{
closed = 1;
nodes = (
(80,708,l),
(80,698,l),
(150,683,l),
(150,25,l),
(80,10,l),
(80,0,l),
(361,0,l),
(528,0,o),
(609,63,o),
(609,187,cs),
(609,314,o),
(525,361,o),
(424,369,c),
(424,374,l),
(501,385,o),
(564,437,o),
(564,537,cs),
(564,652,o),
(495,708,o),
(345,708,cs)
);
},
{
closed = 1;
nodes = (
(485,692,o),
(549,641,o),
(549,537,cs),
(549,458,o),
(503,379,o),
(360,377,cs),
(157,374,l),
(157,364,l),
(360,361,ls),
(530,358,o),
(594,298,o),
(594,187,cs),
(594,72,o),
(517,15,o),
(361,15,cs),
(265,15,o),
(200,18,o),
(165,24,c),
(165,683,l),
(206,689,o),
(266,692,o),
(345,692,cs)
);
}
);
width = 669;
},
{
associatedMasterId = "2660E96A-9963-4076-AFCB-E451BC6EE103";
attr = {
colorPalette = 0;
};
layerId = "96E1534A-09FC-446C-8C3E-7E1CB1511D5D";
name = "25 Jul 23 10:26 p.m.";
shapes = (
{
closed = 1;
nodes = (
(20,708,l),
(20,698,l),
(70,683,l),
(70,25,l),
(20,10,l),
(20,0,l),
(441,0,ls),
(638,0,o),
(746,58,o),
(746,192,cs),
(746,326,o),
(584,370,o),
(438,370,c),
(438,380,l),
(553,380,o),
(720,423,o),
(720,554,cs),
(720,655,o),
(625,708,o),
(463,708,cs)
);
},
{
closed = 1;
nodes = (
(465,692,o),
(505,638,o),
(505,554,cs),
(505,427,o),
(449,384,o),
(379,382,cs),
(309,380,l),
(309,369,l),
(379,367,l),
(467,367,o),
(515,324,o),
(515,208,cs),
(515,59,o),
(452,14,o),
(394,14,cs),
(352,14,o),
(326,16,o),
(315,20,c),
(315,688,l),
(328,691,o),
(358,692,o),
(405,692,cs)
);
}
);
width = 776;
},
{
associatedMasterId = "35A90D60-3AD4-435C-9F8B-D1CA483F6F66";
attr = {
colorPalette = 0;
};
layerId = "41EF3958-2F23-40B4-954B-247C2FF7BE3A";
name = "25 Jul 23 10:26 p.m.";
shapes = (
{
closed = 1;
nodes = (
(100,708,l),
(100,698,l),
(209,683,l),
(209,25,l),
(100,10,l),
(100,0,l),
(546,0,l),
(819,0,o),
(953,63,o),
(953,187,cs),
(953,314,o),
(823,361,o),
(649,369,c),
(649,374,l),
(775,384,o),
(879,437,o),
(879,537,cs),
(879,652,o),
(766,708,o),
(536,708,cs)
);
},
{
closed = 1;
nodes = (
(750,692,o),
(864,641,o),
(864,537,cs),
(864,458,o),
(780,377,o),
(544,377,c),
(210,374,l),
(210,364,l),
(544,361,l),
(823,361,o),
(938,298,o),
(938,187,cs),
(938,72,o),
(803,15,o),
(546,15,cs),
(417,15,o),
(311,18,o),
(224,24,c),
(224,683,l),
(308,689,o),
(412,692,o),
(536,692,cs)
);
}
);
width = 1023;
},
{
associatedMasterId = "DF54607F-DD82-41E6-B2E3-81CA6D0E5C47";
attr = {
colorPalette = 0;
};
layerId = "744AA763-4442-48C2-933C-B9AC53F16659";
name = "25 Jul 23 10:26 p.m.";
shapes = (
{
closed = 1;
nodes = (
(20,708,l),
(20,698,l),
(70,683,l),
(70,25,l),
(20,10,l),
(20,0,l),
(716,0,ls),
(1073,0,o),
(1335,80,o),
(1335,192,cs),
(1335,296,o),
(1092,370,o),
(783,370,c),
(783,380,l),
(1100,380,o),
(1309,445,o),
(1309,554,cs),
(1309,651,o),
(1091,708,o),
(738,708,cs)
);
},
{
closed = 1;
nodes = (
(740,692,o),
(780,638,o),
(780,554,cs),
(780,427,o),
(724,384,o),
(654,382,cs),
(584,380,l),
(584,368,l),
(654,367,l),
(742,367,o),
(790,324,o),
(790,208,cs),
(790,59,o),
(727,14,o),
(669,14,cs),
(638,14,o),
(610,16,o),
(590,20,c),
(590,686,l),
(615,690,o),
(645,692,o),
(680,692,cs)
);
}
);
width = 1365;
},
{
associatedMasterId = "DF54607F-DD82-41E6-B2E3-81CA6D0E5C47";
attr = {
colorPalette = 1;
};
layerId = "781F4D91-08DE-4E41-A594-D99D66F9BF69";
name = "25 Jul 23 10:28 p.m.";
shapes = (
{
closed = 1;
nodes = (
(90,688,l),
(570,688,l),
(570,20,l),
(90,20,l)
);
},
{
closed = 1;
nodes = (
(789,50,o),
(810,113,o),
(810,208,cs),
(810,270,o),
(795,318,o),
(769,350,c),
(1089,350,o),
(1315,281,o),
(1315,192,cs),
(1315,97,o),
(1081,19,o),
(746,19,c)
);
},
{
closed = 1;
nodes = (
(784,433,o),
(800,484,o),
(800,554,cs),
(800,618,o),
(783,662,o),
(748,688,c),
(1090,688,o),
(1289,636,o),
(1289,554,cs),
(1289,460,o),
(1097,400,o),
(756,400,c)
);
}
);
width = 1365;
},
{
associatedMasterId = "35A90D60-3AD4-435C-9F8B-D1CA483F6F66";
attr = {
colorPalette = 1;
};
layerId = "A8D88979-676C-4403-992E-8B8958079BEB";
name = "25 Jul 23 10:28 p.m.";
shapes = (
{
closed = 1;
nodes = (
(214,703,l),
(219,703,l),
(219,5,l),
(214,5,l)
);
},
{
closed = 1;
nodes = (
(848,34,o),
(943,88,o),
(943,187,cs),
(943,278,o),
(870,337,o),
(701,359,c),
(853,343,o),
(948,295,o),
(948,187,cs),
(948,89,o),
(863,34,o),
(685,15,c)
);
},
{
closed = 1;
nodes = (
(817,410,o),
(869,473,o),
(869,537,cs),
(869,618,o),
(805,669,o),
(676,692,c),
(808,672,o),
(874,620,o),
(874,537,cs),
(874,452,o),
(796,402,o),
(690,384,c)
);
}
);
width = 1023;
},
{
associatedMasterId = "2660E96A-9963-4076-AFCB-E451BC6EE103";
attr = {
colorPalette = 1;
};
layerId = "D85EC6BE-ED26-4F9C-9DBB-B6509A449566";
name = "25 Jul 23 10:28 p.m.";
shapes = (
{
closed = 1;
nodes = (
(90,688,l),
(295,688,l),
(295,20,l),
(90,20,l)
);
},
{
closed = 1;
nodes = (
(518,59,o),
(535,112,o),
(535,208,cs),
(535,276,o),
(520,319,o),
(488,350,c),
(621,350,o),
(726,280,o),
(726,192,cs),
(726,76,o),
(632,19,o),
(472,19,c)
);
},
{
closed = 1;
nodes = (
(508,431,o),
(525,482,o),
(525,554,cs),
(525,615,o),
(508,660,o),
(473,688,c),
(623,688,o),
(700,641,o),
(700,554,cs),
(700,453,o),
(583,399,o),
(476,399,c)
);
}
);
width = 776;
},
{
associatedMasterId = "A5088515-37FF-452F-BD44-18A7A5EF88F0";
attr = {
colorPalette = 1;
};
layerId = "E87A0B4B-4BF4-47A1-AE92-4E8DC1C474E2";
name = "25 Jul 23 10:28 p.m.";
shapes = (
{
closed = 1;
nodes = (
(155,703,l),
(160,703,l),
(160,5,l),
(155,5,l)
);
},
{
closed = 1;
nodes = (
(544,34,o),
(599,89,o),
(599,187,cs),
(599,279,o),
(552,339,o),
(455,359,c),
(540,344,o),
(604,296,o),
(604,187,cs),
(604,89,o),
(553,34,o),
(445,15,c)
);
},
{
closed = 1;
nodes = (
(521,410,o),
(554,474,o),
(554,537,cs),
(554,623,o),
(511,674,o),
(434,692,c),
(521,674,o),
(559,623,o),
(559,537,cs),
(559,451,o),
(508,402,o),
(447,384,c)
);
}
);
width = 669;
}
);
unicode = 66;
},
{
color = 4;
glyphname = C;
kernLeft = OO;
kernRight = C;
lastChange = "2023-07-23 05:29:07 +0000";
layers = (
{
anchors = (
{
name = bottom;
pos = (386,0);
},
{
name = top;
pos = (394,708);
}
);
layerId = "2660E96A-9963-4076-AFCB-E451BC6EE103";
shapes = (
{
closed = 1;
nodes = (
(690,134,l),
(649,105,o),
(601,93,o),
(552,93,cs),
(348,93,o),
(272,263,o),
(272,428,cs),
(272,574,o),
(309,711,o),
(374,711,cs),
(441,711,o),
(502,645,o),
(558,513,cs),
(621,364,l),
(641,364,l),
(701,660,l),
(644,685,o),
(535,723,o),
(425,723,cs),
(178,723,o),
(30,584,o),
(30,352,cs),
(30,120,o),
(198,-15,o),
(403,-15,cs),
(509,-15,o),
(618,21,o),
(700,127,c)
);
},
{
attr = {
gradient = {
colors = (
(
(200,255,255,255),
0
),
(
(150,140,250,255),
0.25119
),
(
(255,0,220,255),
0.49445
),
(
(255,130,170,255),
0.79625
),
(
(255,220,220,255),
1
)
);
end = (1.1273,1.0147);
start = (-0.05,-0.0163);
};
};
closed = 1;
nodes = (
(270,650,o),
(250,555,o),
(250,428,cs),
(250,256,o),
(332,71,o),
(552,71,cs),
(576,71,o),
(600,74,o),
(624,80,c),
(558,27,o),
(481,7,o),
(403,7,cs),
(206,7,o),
(52,130,o),
(52,352,cs),
(52,533,o),
(142,651,o),
(306,692,c)
);
},
{
attr = {
gradient = {
colors = (
(
(200,255,255,255),
0
),
(
(150,140,250,255),
0.24805
),
(
(255,0,220,255),
0.5431
),
(
(255,130,170,255),
0.79647
),
(
(255,220,220,255),
1
)
);
end = (1.1638,0.9833);
start = (-2.12,-0.0276);
};
};
closed = 1;
nodes = (
(543,605,o),
(504,665,o),
(461,699,c),
(546,693,o),
(625,668,o),
(676,647,c),
(627,407,l),
(624,414,l),
(578,522,ls)
);
}
);
width = 731;
},
{
anchors = (
{
name = bottom;
pos = (601,0);
},
{
name = top;
pos = (681,708);
}
);
layerId = "DF54607F-DD82-41E6-B2E3-81CA6D0E5C47";
shapes = (
{
closed = 1;
nodes = (
(1211,134,l),
(1138,105,o),
(1052,93,o),
(964,93,cs),
(712,93,o),
(532,232,o),
(532,448,cs),
(532,618,o),
(594,711,o),
(726,711,cs),
(819,711,o),
(906,647,o),
(989,518,cs),
(1088,364,l),
(1124,364,l),
(1231,660,l),
(1129,685,o),
(944,723,o),
(747,723,cs),
(296,723,o),
(30,585,o),
(30,352,cs),
(30,135,o),
(307,-15,o),
(698,-15,cs),
(887,-15,o),
(1082,21,o),
(1229,127,c)
);
},
{
attr = {
gradient = {
colors = (
(
(200,255,255,255),
0
),
(
(150,140,250,255),
0.24579
),
(
(255,0,220,255),
0.46538
),
(
(255,130,170,255),
0.74692
),
(
(255,220,220,255),
1
)
);
end = (2.8424,1.3694);
start = (0.0298,-0.0204);
};
};
closed = 1;
nodes = (
(541,653,o),
(510,571,o),
(510,448,cs),
(510,218,o),
(701,71,o),
(964,71,cs),
(1012,71,o),
(1061,75,o),
(1107,83,c),
(984,28,o),
(841,7,o),
(698,7,cs),
(313,7,o),
(52,148,o),
(52,352,cs),
(52,547,o),
(247,670,o),
(607,698,c)
);
},
{
attr = {
gradient = {
colors = (
(
(200,255,255,255),
0
),
(
(150,140,250,255),
0.24805
),
(
(255,0,220,255),
0.5431
),
(
(255,130,170,255),
0.79647
),
(
(255,220,220,255),
1
)
);
end = (4.1986,2.0765);
start = (-2.12,-0.0276);
};
};
closed = 1;
nodes = (
(957,609,o),
(904,665,o),
(847,698,c),
(989,689,o),
(1117,664,o),
(1202,644,c),
(1109,386,l),
(1100,386,l),
(1008,530,ls)
);
}
);
width = 1261;
},
{
anchors = (
{
name = bottom;
pos = (379,0);
},
{
name = top;
pos = (387,708);
}
);
layerId = "A5088515-37FF-452F-BD44-18A7A5EF88F0";
shapes = (
{
closed = 1;
nodes = (
(633,144,l),
(578,53,o),
(484,0,o),
(379,0,cs),
(201,0,o),
(95,130,o),
(95,350,cs),
(95,560,o),
(215,708,o),
(387,708,cs),
(558,708,o),
(624,652,o),
(604,525,cs),
(582,384,l),
(598,384,l),
(645,616,l),
(590,688,o),
(505,723,o),
(387,723,cs),
(207,723,o),
(80,568,o),
(80,350,cs),
(80,121,o),
(191,-15,o),
(379,-15,cs),
(496,-15,o),
(594,41,o),
(643,137,c)
);
},
{
attr = {
gradient = {
colors = (
(
(200,255,255,255),
0
),
(
(150,140,250,255),
0.25119
),
(
(255,0,220,255),
0.49445
),
(
(255,130,170,255),
0.79625
),
(
(255,220,220,255),
1
)
);
end = (1.1273,1.0147);
start = (-0.05,-0.0163);
};
};
closed = 1;
nodes = (
(165,649,o),
(90,515,o),
(90,350,cs),
(90,127,o),
(197,-5,o),
(379,-5,cs),
(447,-5,o),
(513,16,o),
(565,54,c),
(518,13,o),
(451,-10,o),
(379,-10,cs),
(194,-10,o),
(85,123,o),
(85,350,cs),
(85,518,o),
(163,652,o),
(288,698,c)
);
},
{
attr = {
gradient = {
colors = (
(
(200,255,255,255),
0
),
(
(150,140,250,255),
0.24805
),
(
(255,0,220,255),
0.5431
),
(
(255,130,170,255),
0.79647
),
(
(255,220,220,255),
1
)
);
end = (1.1638,0.9833);
start = (-2.12,-0.0276);
};
};
closed = 1;
nodes = (
(624,605,o),
(601,659,o),
(543,688,c),
(580,671,o),
(613,646,o),
(638,614,c),
(592,391,l),
(590,391,l),
(611,524,ls)
);
}
);
width = 725;
},
{
anchors = (
{
name = bottom;
pos = (573,0);
},
{
name = top;
pos = (588,708);
}
);
layerId = "35A90D60-3AD4-435C-9F8B-D1CA483F6F66";
shapes = (
{
closed = 1;
nodes = (
(986,144,l),
(897,53,o),
(744,0,o),
(574,0,cs),
(287,0,o),
(105,130,o),
(105,350,cs),
(105,560,o),
(309,708,o),
(587,708,cs),
(846,708,o),
(987,634,o),
(953,517,cs),
(914,384,l),
(929,384,l),
(1005,616,l),
(916,688,o),
(778,723,o),
(587,723,cs),
(296,723,o),
(90,568,o),
(90,350,cs),
(90,121,o),
(270,-15,o),
(574,-15,cs),
(764,-15,o),
(923,41,o),
(1002,137,c)
);
},
{
attr = {
gradient = {
colors = (
(
(200,255,255,255),
0
),
(
(150,140,250,255),
0.24579
),
(
(255,0,220,255),
0.46538
),
(
(255,130,170,255),
0.74692
),
(
(255,220,220,255),
1
)
);
end = (2.8424,1.3694);
start = (0.0298,-0.0204);
};
};
closed = 1;
nodes = (
(224,650,o),
(100,516,o),
(100,350,cs),
(100,126,o),
(284,-5,o),
(574,-5,cs),
(684,-5,o),
(792,16,o),
(875,54,c),
(801,13,o),
(693,-10,o),
(574,-10,cs),
(272,-10,o),
(95,124,o),
(95,350,cs),
(95,519,o),
(222,653,o),
(424,698,c)
);
},
{
attr = {
gradient = {
colors = (
(
(200,255,255,255),
0
),
(
(150,140,250,255),
0.24805
),
(
(255,0,220,255),
0.5431
),
(
(255,130,170,255),
0.79647
),
(
(255,220,220,255),
1
)
);
end = (4.1986,2.0765);
start = (-2.12,-0.0276);
};
};
closed = 1;
nodes = (
(984,595,o),
(940,653,o),
(828,688,c),
(903,671,o),
(955,647,o),
(997,614,c),
(924,391,l),
(923,391,l),
(960,515,ls)
);
}
);
width = 1095;
},
{
anchors = (
{
name = bottom;
pos = (379,0);
},
{
name = top;
pos = (387,708);
}
);
associatedMasterId = "A5088515-37FF-452F-BD44-18A7A5EF88F0";
attr = {
colorPalette = 0;
};
layerId = "4D02F9A5-0CD6-4271-A398-0FB40350BAC6";
name = "22 Jul 23 10:25 p.m.";
shapes = (
{
closed = 1;
nodes = (
(633,144,l),
(578,53,o),
(484,0,o),
(379,0,cs),
(201,0,o),
(95,130,o),
(95,350,cs),
(95,560,o),
(215,708,o),
(387,708,cs),
(558,708,o),
(624,652,o),
(604,525,cs),
(582,384,l),
(598,384,l),
(645,616,l),
(590,688,o),
(505,723,o),
(387,723,cs),
(207,723,o),
(80,568,o),
(80,350,cs),
(80,121,o),
(191,-15,o),
(379,-15,cs),
(496,-15,o),
(594,41,o),
(643,137,c)
);
}
);
width = 725;
},
{
anchors = (
{
name = bottom;
pos = (386,0);
},
{
name = top;
pos = (394,708);
}
);
associatedMasterId = "2660E96A-9963-4076-AFCB-E451BC6EE103";
attr = {
colorPalette = 0;
};
layerId = "28E13244-4672-46DE-A714-13A44C268D45";
name = "22 Jul 23 10:25 p.m.";
shapes = (
{
closed = 1;
nodes = (
(690,134,l),
(649,105,o),
(601,93,o),
(552,93,cs),
(348,93,o),
(272,263,o),
(272,428,cs),
(272,574,o),
(309,711,o),
(374,711,cs),
(441,711,o),
(502,645,o),
(558,513,cs),
(621,364,l),
(641,364,l),
(701,660,l),
(644,685,o),
(535,723,o),
(425,723,cs),
(178,723,o),
(30,584,o),
(30,352,cs),
(30,120,o),
(198,-15,o),
(403,-15,cs),
(509,-15,o),
(618,21,o),
(700,127,c)
);
}
);
width = 731;
},
{
anchors = (
{
name = bottom;
pos = (573,0);
},
{
name = top;
pos = (588,708);
}
);
associatedMasterId = "35A90D60-3AD4-435C-9F8B-D1CA483F6F66";
attr = {
colorPalette = 0;
};
layerId = "31305C75-AE3E-459B-810F-1697A95557A8";
name = "22 Jul 23 10:25 p.m.";
shapes = (
{
closed = 1;
nodes = (
(986,144,l),
(897,53,o),
(744,0,o),
(574,0,cs),
(287,0,o),
(105,130,o),
(105,350,cs),
(105,560,o),
(309,708,o),
(587,708,cs),
(846,708,o),
(987,634,o),
(953,517,cs),
(914,384,l),
(929,384,l),
(1005,616,l),
(916,688,o),
(778,723,o),
(587,723,cs),
(296,723,o),
(90,568,o),
(90,350,cs),
(90,121,o),
(270,-15,o),
(574,-15,cs),
(764,-15,o),
(923,41,o),
(1002,137,c)
);
}
);
width = 1095;
},
{
anchors = (
{
name = bottom;
pos = (601,0);
},
{
name = top;
pos = (681,708);
}
);
associatedMasterId = "DF54607F-DD82-41E6-B2E3-81CA6D0E5C47";
attr = {
colorPalette = 0;
};
layerId = "856B3BD6-D25B-4F91-B3EC-395F6B7B784C";
name = "22 Jul 23 10:25 p.m.";
shapes = (
{
closed = 1;
nodes = (
(1211,134,l),
(1138,105,o),
(1052,93,o),
(964,93,cs),
(712,93,o),
(532,232,o),
(532,448,cs),
(532,618,o),
(594,711,o),
(726,711,cs),
(819,711,o),
(906,647,o),
(989,518,cs),
(1088,364,l),
(1124,364,l),
(1231,660,l),
(1129,685,o),
(944,723,o),
(747,723,cs),
(296,723,o),
(30,585,o),
(30,352,cs),
(30,135,o),
(307,-15,o),
(698,-15,cs),
(887,-15,o),
(1082,21,o),
(1229,127,c)
);
}
);
width = 1261;
},
{
anchors = (
{
name = bottom;
pos = (379,0);
},
{
name = top;
pos = (387,708);
}
);
associatedMasterId = "A5088515-37FF-452F-BD44-18A7A5EF88F0";
attr = {
colorPalette = 1;
};
layerId = "108F689E-7D65-4053-BAE8-C87ED92717BE";
name = "22 Jul 23 10:25 p.m.";
shapes = (
{
attr = {
gradient = {
colors = (
(
(200,255,255,255),
0
),
(
(150,140,250,255),
0.25119
),
(
(255,0,220,255),
0.49445
),
(
(255,130,170,255),
0.79625
),
(
(255,220,220,255),
1
)
);
end = (1.1273,1.0147);
start = (-0.05,-0.0163);
};
};
closed = 1;
nodes = (
(165,649,o),
(90,515,o),
(90,350,cs),
(90,127,o),
(197,-5,o),
(379,-5,cs),
(447,-5,o),
(513,16,o),
(565,54,c),
(518,13,o),
(451,-10,o),
(379,-10,cs),
(194,-10,o),
(85,123,o),
(85,350,cs),
(85,518,o),
(163,652,o),
(288,698,c)
);
},
{
attr = {
gradient = {
colors = (
(
(200,255,255,255),
0
),
(
(150,140,250,255),
0.24805
),
(
(255,0,220,255),
0.5431
),
(
(255,130,170,255),
0.79647
),
(
(255,220,220,255),
1
)
);
end = (1.1638,0.9833);
start = (-2.12,-0.0276);
};
};
closed = 1;
nodes = (
(624,605,o),
(601,659,o),
(543,688,c),
(580,671,o),
(613,646,o),
(638,614,c),
(592,391,l),
(590,391,l),
(611,524,ls)
);
}
);
width = 725;
},
{
anchors = (
{
name = bottom;
pos = (386,0);
},
{
name = top;
pos = (394,708);
}
);
associatedMasterId = "2660E96A-9963-4076-AFCB-E451BC6EE103";
attr = {
colorPalette = 1;
};
layerId = "2578EE57-7BD6-4AC0-9126-07C38F42FF60";
name = "22 Jul 23 10:25 p.m.";
shapes = (
{
attr = {
gradient = {
colors = (
(
(200,255,255,255),
0
),
(
(150,140,250,255),
0.25119
),
(
(255,0,220,255),
0.49445
),
(
(255,130,170,255),
0.79625
),
(
(255,220,220,255),
1
)
);
end = (1.1273,1.0147);
start = (-0.05,-0.0163);
};
};
closed = 1;
nodes = (
(270,650,o),
(250,555,o),
(250,428,cs),
(250,256,o),
(332,71,o),
(552,71,cs),
(576,71,o),
(600,74,o),
(624,80,c),
(558,27,o),
(481,7,o),
(403,7,cs),
(206,7,o),
(52,130,o),
(52,352,cs),
(52,533,o),
(142,651,o),
(306,692,c)
);
},
{
attr = {
gradient = {
colors = (
(
(200,255,255,255),
0
),
(
(150,140,250,255),
0.24805
),
(
(255,0,220,255),
0.5431
),
(
(255,130,170,255),
0.79647
),
(
(255,220,220,255),
1
)
);
end = (1.1638,0.9833);
start = (-2.12,-0.0276);
};
};
closed = 1;
nodes = (
(543,605,o),
(504,665,o),
(461,699,c),
(546,693,o),
(625,668,o),
(676,647,c),
(627,407,l),
(624,414,l),
(578,522,ls)
);
}
);
width = 731;
},
{
anchors = (
{
name = bottom;
pos = (573,0);
},
{
name = top;
pos = (588,708);
}
);
associatedMasterId = "35A90D60-3AD4-435C-9F8B-D1CA483F6F66";
attr = {
colorPalette = 1;
};
layerId = "EA0AB384-EE89-409E-A080-6C7BE8632F1F";
name = "22 Jul 23 10:25 p.m.";
shapes = (
{
attr = {
gradient = {
colors = (
(
(200,255,255,255),
0
),
(
(150,140,250,255),
0.24579
),
(
(255,0,220,255),
0.46538
),
(
(255,130,170,255),
0.74692
),
(
(255,220,220,255),
1
)
);
end = (2.8424,1.3694);
start = (0.0298,-0.0204);
};
};
closed = 1;
nodes = (
(224,650,o),
(100,516,o),
(100,350,cs),
(100,126,o),
(284,-5,o),
(574,-5,cs),
(684,-5,o),
(792,16,o),
(875,54,c),
(801,13,o),
(693,-10,o),
(574,-10,cs),
(272,-10,o),
(95,124,o),
(95,350,cs),
(95,519,o),
(222,653,o),
(424,698,c)
);
},
{
attr = {
gradient = {
colors = (
(
(200,255,255,255),
0
),
(
(150,140,250,255),
0.24805
),
(
(255,0,220,255),
0.5431
),
(
(255,130,170,255),
0.79647
),
(
(255,220,220,255),
1
)
);
end = (4.1986,2.0765);
start = (-2.12,-0.0276);
};
};
closed = 1;
nodes = (
(984,595,o),
(940,653,o),
(828,688,c),
(903,671,o),
(955,647,o),
(997,614,c),
(924,391,l),
(923,391,l),
(960,515,ls)
);
}
);
width = 1095;
},
{
anchors = (
{
name = bottom;
pos = (601,0);
},
{
name = top;
pos = (681,708);
}
);
associatedMasterId = "DF54607F-DD82-41E6-B2E3-81CA6D0E5C47";
attr = {
colorPalette = 1;
};
layerId = "5EDE900C-6126-48FC-9B77-1D1694EDC343";
name = "22 Jul 23 10:26 p.m.";
shapes = (
{
attr = {
gradient = {
colors = (
(
(200,255,255,255),
0
),
(
(150,140,250,255),
0.24579
),
(
(255,0,220,255),
0.46538
),
(
(255,130,170,255),
0.74692
),
(
(255,220,220,255),
1
)
);
end = (2.8424,1.3694);
start = (0.0298,-0.0204);
};
};
closed = 1;
nodes = (
(541,653,o),
(510,571,o),
(510,448,cs),
(510,218,o),
(701,71,o),
(964,71,cs),
(1012,71,o),
(1061,75,o),
(1107,83,c),
(984,28,o),
(841,7,o),
(698,7,cs),
(313,7,o),
(52,148,o),
(52,352,cs),
(52,547,o),
(247,670,o),
(607,698,c)
);
},
{
attr = {
gradient = {
colors = (
(
(200,255,255,255),
0
),
(
(150,140,250,255),
0.24805
),
(
(255,0,220,255),
0.5431
),
(
(255,130,170,255),
0.79647
),
(
(255,220,220,255),
1
)
);
end = (4.1986,2.0765);
start = (-2.12,-0.0276);
};
};
closed = 1;
nodes = (
(957,609,o),
(904,665,o),
(847,698,c),
(989,689,o),
(1117,664,o),
(1202,644,c),
(1109,386,l),
(1100,386,l),
(1008,530,ls)
);
}
);
width = 1261;
}
);
unicode = 67;
},
{
color = 5;
glyphname = Ccedilla;
kernLeft = OO;
kernRight = C;
lastChange = "2023-02-19 07:03:36 +0000";
layers = (
{
anchors = (
{
name = bottom;
pos = (386,0);
},
{
name = top;
pos = (374,708);
}
);
background = {
shapes = (
{
closed = 1;
nodes = (
(690,134,l),
(649,105,o),
(601,93,o),
(552,93,cs),
(348,93,o),
(272,263,o),
(272,428,cs),
(271,574,o),
(309,711,o),
(374,711,cs),
(441,711,o),
(502,645,o),
(558,513,cs),
(621,364,l),
(641,364,l),
(701,660,l),
(644,685,o),
(535,723,o),
(425,723,cs),
(178,723,o),
(30,584,o),
(30,352,cs),
(30,120,o),
(198,-17,o),
(403,-15,cs),
(509,-14,o),
(618,21,o),
(700,127,c)
);
},
{
closed = 1;
nodes = (
(460,-215,o),
(497,-173,o),
(497,-130,cs),
(497,-87,o),
(459,-44,o),
(373,-44,c),
(365,-33,l),
(377,0,l),
(367,0,l),
(346,-54,l),
(393,-54,o),
(414,-84,o),
(414,-113,cs),
(414,-142,o),
(393,-171,o),
(356,-171,cs),
(337,-171,o),
(318,-161,o),
(306,-140,c),
(296,-150,l),
(311,-195,o),
(348,-215,o),
(398,-215,cs)
);
}
);
};
layerId = "2660E96A-9963-4076-AFCB-E451BC6EE103";
shapes = (
{
ref = C;
},
{
pos = (386,0);
ref = cedillacomb;
}
);
width = 731;
},
{
anchors = (
{
name = bottom;
pos = (581,0);
},
{
name = top;
pos = (631,708);
}
);
background = {
shapes = (
{
closed = 1;
nodes = (
(1211,134,l),
(1138,105,o),
(1052,93,o),
(964,93,cs),
(712,93,o),
(533,232,o),
(532,448,cs),
(531,618,o),
(594,711,o),
(726,711,cs),
(819,711,o),
(906,647,o),
(989,518,cs),
(1088,364,l),
(1124,364,l),
(1231,660,l),
(1129,685,o),
(944,723,o),
(747,723,cs),
(296,723,o),
(30,585,o),
(30,352,cs),
(30,135,o),
(307,-17,o),
(698,-15,cs),
(887,-14,o),
(1082,21,o),
(1229,127,c)
);
},
{
closed = 1;
nodes = (
(930,-215,o),
(1077,-173,o),
(1077,-130,cs),
(1077,-87,o),
(915,-39,o),
(534,-39,c),
(526,-33,l),
(575,0,l),
(560,0,l),
(475,-54,l),
(670,-54,o),
(686,-84,o),
(686,-113,cs),
(686,-159,o),
(585,-173,o),
(484,-173,cs),
(407,-173,o),
(330,-161,o),
(294,-146,c),
(281,-155,l),
(341,-200,o),
(483,-215,o),
(682,-215,cs)
);
}
);
};
layerId = "DF54607F-DD82-41E6-B2E3-81CA6D0E5C47";
shapes = (
{
ref = C;
},
{
pos = (601,0);
ref = cedillacomb;
}
);
width = 1261;
},
{
anchors = (
{
name = bottom;
pos = (379,0);
},
{
name = top;
pos = (387,708);
}
);
background = {
shapes = (
{
closed = 1;
nodes = (
(633,144,l),
(578,53,o),
(484,0,o),
(379,0,cs),
(201,0,o),
(96,130,o),
(95,350,cs),
(94,560,o),
(215,708,o),
(387,708,cs),
(558,708,o),
(624,652,o),
(604,525,cs),
(582,384,l),
(598,384,l),
(645,616,l),
(590,688,o),
(505,723,o),
(387,723,cs),
(207,723,o),
(80,568,o),
(80,350,cs),
(80,121,o),
(191,-15,o),
(379,-15,cs),
(496,-15,o),
(594,41,o),
(643,137,c)
);
},
{
closed = 1;
nodes = (
(461,-215,o),
(495,-180,o),
(495,-131,cs),
(495,-79,o),
(461,-55,o),
(399,-42,c),
(391,-31,l),
(402,0,l),
(387,0,l),
(366,-54,l),
(439,-60,o),
(480,-84,o),
(480,-131,cs),
(480,-172,o),
(453,-201,o),
(414,-200,cs),
(373,-200,o),
(340,-178,o),
(326,-140,c),
(316,-150,l),
(331,-191,o),
(367,-215,o),
(414,-215,cs)
);
}
);
};
layerId = "A5088515-37FF-452F-BD44-18A7A5EF88F0";
shapes = (
{
ref = C;
},
{
pos = (379,0);
ref = cedillacomb;
}
);
width = 725;
},
{
anchors = (
{
name = bottom;
pos = (573,0);
},
{
name = top;
pos = (548,708);
}
);
background = {
shapes = (
{
closed = 1;
nodes = (
(986,144,l),
(897,53,o),
(744,0,o),
(574,0,cs),
(287,0,o),
(107,130,o),
(105,350,cs),
(104,560,o),
(309,708,o),
(587,708,cs),
(846,708,o),
(987,634,o),
(953,517,cs),
(914,384,l),
(929,384,l),
(1005,616,l),
(916,688,o),
(778,723,o),
(587,723,cs),
(296,723,o),
(90,568,o),
(90,350,cs),
(90,121,o),
(270,-15,o),
(574,-15,cs),
(764,-15,o),
(923,41,o),
(1002,137,c)
);
},
{
closed = 1;
nodes = (
(664,-215,o),
(723,-180,o),
(723,-131,cs),
(723,-79,o),
(664,-55,o),
(557,-42,c),
(543,-31,l),
(563,1,l),
(549,1,l),
(512,-54,l),
(626,-60,o),
(708,-84,o),
(708,-131,cs),
(708,-172,o),
(650,-201,o),
(583,-200,cs),
(512,-200,o),
(455,-181,o),
(426,-143,c),
(414,-150,l),
(440,-191,o),
(502,-215,o),
(583,-215,cs)
);
}
);
};
layerId = "35A90D60-3AD4-435C-9F8B-D1CA483F6F66";
shapes = (
{
ref = C;
},
{
pos = (573,0);
ref = cedillacomb;
}
);
width = 1095;
}
);
metricLeft = C;
metricRight = C;
unicode = 199;
},
{
color = 4;
glyphname = D;
kernLeft = HH;
kernRight = O;
lastChange = "2023-07-23 05:29:30 +0000";
layers = (
{
anchors = (
{
name = bottom;
pos = (377,0);
},
{
name = center;
pos = (408,354);
},
{
name = top;
pos = (387,708);
}
);
layerId = "2660E96A-9963-4076-AFCB-E451BC6EE103";
shapes = (
{
closed = 1;
nodes = (
(20,708,l),
(20,698,l),
(70,693,l),
(70,20,l),
(20,10,l),
(20,0,l),
(437,0,ls),
(637,0,o),
(785,133,o),
(785,361,cs),
(785,584,o),
(630,708,o),
(437,708,cs)
);
},
{
closed = 1;
nodes = (
(483,692,o),
(535,566,o),
(535,377,cs),
(535,146,o),
(483,15,o),
(377,15,c),
(335,15,l),
(315,35,l),
(315,688,l),
(328,691,o),
(349,692,o),
(377,692,cs)
);
},
{
attr = {
gradient = {
colors = (
(
(200,255,255,255),
0
),
(
(150,140,250,255),
0.24579
),
(
(255,0,220,255),
0.46538
),
(
(255,130,170,255),
0.74692
),
(
(255,220,220,255),
1
)
);
end = (3.3113,1.014);
start = (0.0298,-0.0204);
};
};
closed = 1;
nodes = (
(90,688,l),
(295,688,l),
(295,20,l),
(90,20,l)
);
},
{
attr = {
gradient = {
colors = (
(
(200,255,255,255),
0
),
(
(150,140,250,255),
0.24805
),
(
(255,0,220,255),
0.5431
),
(
(255,130,170,255),
0.79647
),
(
(255,220,220,255),
1
)
);
end = (1.1638,0.9833);
start = (-2.12,-0.0276);
};
};
closed = 1;
nodes = (
(527,77,o),
(557,202,o),
(557,377,cs),
(557,521,o),
(527,635,o),
(462,685,c),
(635,676,o),
(763,563,o),
(763,361,cs),
(763,152,o),
(640,32,o),
(461,23,c)
);
}
);
width = 815;
},
{
anchors = (
{
name = bottom;
pos = (622,0);
},
{
name = center;
pos = (658,354);
},
{
name = top;
pos = (622,708);
}
);
layerId = "DF54607F-DD82-41E6-B2E3-81CA6D0E5C47";
shapes = (
{
closed = 1;
nodes = (
(20,708,l),
(20,698,l),
(70,683,l),
(70,20,l),
(20,10,l),
(20,0,l),
(712,0,ls),
(1110,0,o),
(1345,134,o),
(1345,361,cs),
(1345,579,o),
(1110,708,o),
(712,708,cs)
);
},
{
closed = 1;
nodes = (
(758,692,o),
(810,566,o),
(810,377,cs),
(810,146,o),
(758,15,o),
(652,15,c),
(610,15,l),
(590,35,l),
(590,687,l),
(604,690,o),
(626,692,o),
(652,692,cs)
);
},
{
attr = {
gradient = {
colors = (
(
(200,255,255,255),
0
),
(
(150,140,250,255),
0.24579
),
(
(255,0,220,255),
0.46538
),
(
(255,130,170,255),
0.74692
),
(
(255,220,220,255),
1
)
);
end = (4.2558,1.6237);
start = (0.0298,-0.0204);
};
};
closed = 1;
nodes = (
(90,689,l),
(570,689,l),
(570,20,l),
(90,20,l)
);
},
{
attr = {
gradient = {
colors = (
(
(200,255,255,255),
0
),
(
(150,140,250,255),
0.24805
),
(
(255,0,220,255),
0.5431
),
(
(255,130,170,255),
0.79647
),
(
(255,220,220,255),
1
)
);
end = (4.1986,2.0765);
start = (-2.12,-0.0276);
};
};
closed = 1;
nodes = (
(802,77,o),
(832,202,o),
(832,377,cs),
(832,521,o),
(802,635,o),
(737,686,c),
(1113,681,o),
(1323,562,o),
(1323,361,cs),
(1323,151,o),
(1113,27,o),
(736,22,c)
);
}
);
width = 1375;
},
{
anchors = (
{
name = bottom;
pos = (351,0);
},
{
name = center;
pos = (351,354);
},
{
name = top;
pos = (346,708);
}
);
layerId = "A5088515-37FF-452F-BD44-18A7A5EF88F0";
shapes = (
{
closed = 1;
nodes = (
(80,708,l),
(80,698,l),
(150,683,l),
(150,25,l),
(80,10,l),
(80,0,l),
(351,0,l),
(556,0,o),
(656,117,o),
(656,357,cs),
(656,593,o),
(554,708,o),
(346,708,c)
);
},
{
closed = 1;
nodes = (
(544,692,o),
(641,582,o),
(641,357,cs),
(641,127,o),
(546,15,o),
(351,15,c),
(185,15,l),
(165,35,l),
(165,683,l),
(212,688,o),
(286,692,o),
(346,692,c)
);
},
{
attr = {
gradient = {
colors = (
(
(200,255,255,255),
0
),
(
(150,140,250,255),
0.24579
),
(
(255,0,220,255),
0.46538
),
(
(255,130,170,255),
0.74692
),
(
(255,220,220,255),
1
)
);
end = (3.3113,1.014);
start = (-11.3494,-0.0615);
};
};
closed = 1;
nodes = (
(155,703,l),
(160,703,l),
(160,5,l),
(155,5,l)
);
},
{
attr = {
gradient = {
colors = (
(
(200,255,255,255),
0
),
(
(150,140,250,255),
0.24805
),
(
(255,0,220,255),
0.5431
),
(
(255,130,170,255),
0.79647
),
(
(255,220,220,255),
1
)
);
end = (1.1638,0.9833);
start = (-2.12,-0.0276);
};
};
closed = 1;
nodes = (
(593,78,o),
(646,186,o),
(646,357,cs),
(646,522,o),
(594,628,o),
(490,677,c),
(598,629,o),
(652,523,o),
(652,357,cs),
(652,185,o),
(597,77,o),
(487,31,c)
);
}
);
width = 736;
},
{
anchors = (
{
name = bottom;
pos = (535,0);
},
{
name = center;
pos = (564,354);
},
{
name = top;
pos = (564,708);
}
);
layerId = "35A90D60-3AD4-435C-9F8B-D1CA483F6F66";
shapes = (
{
closed = 1;
nodes = (
(100,708,l),
(100,698,l),
(209,683,l),
(209,25,l),
(100,10,l),
(100,0,l),
(535,0,l),
(879,0,o),
(1037,117,o),
(1037,357,cs),
(1037,593,o),
(876,708,o),
(527,708,c)
);
},
{
closed = 1;
nodes = (
(859,692,o),
(1022,582,o),
(1022,357,cs),
(1022,127,o),
(862,15,o),
(535,15,c),
(257,15,l),
(224,35,l),
(224,683,l),
(266,689,o),
(383,692,o),
(527,692,c)
);
},
{
attr = {
gradient = {
colors = (
(
(200,255,255,255),
0
),
(
(150,140,250,255),
0.24579
),
(
(255,0,220,255),
0.46538
),
(
(255,130,170,255),
0.74692
),
(
(255,220,220,255),
1
)
);
end = (4.2558,1.6237);
start = (0.0298,-0.0204);
};
};
closed = 1;
nodes = (
(214,703,l),
(219,703,l),
(219,5,l),
(214,5,l)
);
},
{
attr = {
gradient = {
colors = (
(
(200,255,255,255),
0
),
(
(150,140,250,255),
0.24805
),
(
(255,0,220,255),
0.5431
),
(
(255,130,170,255),
0.79647
),
(
(255,220,220,255),
1
)
);
end = (4.1986,2.0765);
start = (-2.12,-0.0276);
};
};
closed = 1;
nodes = (
(938,74,o),
(1027,182,o),
(1027,358,cs),
(1027,528,o),
(939,634,o),
(760,677,c),
(942,635,o),
(1032,529,o),
(1032,358,cs),
(1032,179,o),
(942,71,o),
(759,31,c)
);
}
);
width = 1127;
},
{
anchors = (
{
name = bottom;
pos = (351,0);
},
{
name = center;
pos = (351,354);
},
{
name = top;
pos = (346,708);
}
);
associatedMasterId = "A5088515-37FF-452F-BD44-18A7A5EF88F0";
attr = {
colorPalette = 0;
};
layerId = "DD758B00-17DA-4366-82F5-9ACAF37D32B3";
name = "22 Jul 23 10:12 p.m.";
shapes = (
{
closed = 1;
nodes = (
(80,708,l),
(80,698,l),
(150,683,l),
(150,25,l),
(80,10,l),
(80,0,l),
(351,0,l),
(556,0,o),
(656,117,o),
(656,357,cs),
(656,593,o),
(554,708,o),
(346,708,c)
);
},
{
closed = 1;
nodes = (
(544,692,o),
(641,582,o),
(641,357,cs),
(641,127,o),
(546,15,o),
(351,15,c),
(185,15,l),
(165,35,l),
(165,683,l),
(212,688,o),
(286,692,o),
(346,692,c)
);
}
);
width = 736;
},
{
anchors = (
{
name = bottom;
pos = (377,0);
},
{
name = center;
pos = (408,354);
},
{
name = top;
pos = (387,708);
}
);
associatedMasterId = "2660E96A-9963-4076-AFCB-E451BC6EE103";
attr = {
colorPalette = 0;
};
layerId = "F5FBA175-282C-42F1-8CCD-81121247519C";
name = "22 Jul 23 10:12 p.m.";
shapes = (
{
closed = 1;
nodes = (
(20,708,l),
(20,698,l),
(70,693,l),
(70,20,l),
(20,10,l),
(20,0,l),
(437,0,ls),
(637,0,o),
(785,133,o),
(785,361,cs),
(785,584,o),
(630,708,o),
(437,708,cs)
);
},
{
closed = 1;
nodes = (
(483,692,o),
(535,566,o),
(535,377,cs),
(535,146,o),
(483,15,o),
(377,15,c),
(335,15,l),
(315,35,l),
(315,688,l),
(328,691,o),
(349,692,o),
(377,692,cs)
);
}
);
width = 815;
},
{
anchors = (
{
name = bottom;
pos = (535,0);
},
{
name = center;
pos = (564,354);
},
{
name = top;
pos = (564,708);
}
);
associatedMasterId = "35A90D60-3AD4-435C-9F8B-D1CA483F6F66";
attr = {
colorPalette = 0;
};
layerId = "444903AD-BE07-49F5-A678-A6ADEF2A18EF";
name = "22 Jul 23 10:12 p.m.";
shapes = (
{
closed = 1;
nodes = (
(100,708,l),
(100,698,l),
(209,683,l),
(209,25,l),
(100,10,l),
(100,0,l),
(535,0,l),
(879,0,o),
(1037,117,o),
(1037,357,cs),
(1037,593,o),
(876,708,o),
(527,708,c)
);
},
{
closed = 1;
nodes = (
(859,692,o),
(1022,582,o),
(1022,357,cs),
(1022,127,o),
(862,15,o),
(535,15,c),
(257,15,l),
(224,35,l),
(224,683,l),
(266,689,o),
(383,692,o),
(527,692,c)
);
}
);
width = 1127;
},
{
anchors = (
{
name = bottom;
pos = (622,0);
},
{
name = center;
pos = (658,354);
},
{
name = top;
pos = (622,708);
}
);
associatedMasterId = "DF54607F-DD82-41E6-B2E3-81CA6D0E5C47";
attr = {
colorPalette = 0;
};
layerId = "541F40FE-F392-4457-98AF-E3C97772D41B";
name = "22 Jul 23 10:12 p.m.";
shapes = (
{
closed = 1;
nodes = (
(20,708,l),
(20,698,l),
(70,683,l),
(70,20,l),
(20,10,l),
(20,0,l),
(712,0,ls),
(1110,0,o),
(1345,134,o),
(1345,361,cs),
(1345,579,o),
(1110,708,o),
(712,708,cs)
);
},
{
closed = 1;
nodes = (
(758,692,o),
(810,566,o),
(810,377,cs),
(810,146,o),
(758,15,o),
(652,15,c),
(610,15,l),
(590,35,l),
(590,687,l),
(604,690,o),
(626,692,o),
(652,692,cs)
);
}
);
width = 1375;
},
{
anchors = (
{
name = bottom;
pos = (351,0);
},
{
name = center;
pos = (351,354);
},
{
name = top;
pos = (346,708);
}
);
associatedMasterId = "A5088515-37FF-452F-BD44-18A7A5EF88F0";
attr = {
colorPalette = 1;
};
layerId = "9C7B911A-CB6A-4725-81D7-2BD984955941";
name = "22 Jul 23 10:12 p.m.";
shapes = (
{
attr = {
gradient = {
colors = (
(
(200,255,255,255),
0
),
(
(150,140,250,255),
0.24579
),
(
(255,0,220,255),
0.46538
),
(
(255,130,170,255),
0.74692
),
(
(255,220,220,255),
1
)
);
end = (3.3113,1.014);
start = (-11.3494,-0.0615);
};
};
closed = 1;
nodes = (
(155,703,l),
(160,703,l),
(160,5,l),
(155,5,l)
);
},
{
attr = {
gradient = {
colors = (
(
(200,255,255,255),
0
),
(
(150,140,250,255),
0.24805
),
(
(255,0,220,255),
0.5431
),
(
(255,130,170,255),
0.79647
),
(
(255,220,220,255),
1
)
);
end = (1.1638,0.9833);
start = (-2.12,-0.0276);
};
};
closed = 1;
nodes = (
(593,78,o),
(646,186,o),
(646,357,cs),
(646,522,o),
(594,628,o),
(490,677,c),
(598,629,o),
(652,523,o),
(652,357,cs),
(652,185,o),
(597,77,o),
(487,31,c)
);
}
);
width = 736;
},
{
anchors = (
{
name = bottom;
pos = (377,0);
},
{
name = center;
pos = (408,354);
},
{
name = top;
pos = (387,708);
}
);
associatedMasterId = "2660E96A-9963-4076-AFCB-E451BC6EE103";
attr = {
colorPalette = 1;
};
layerId = "495A5666-47B8-4CF2-94A5-63E8C6F89C52";
name = "22 Jul 23 10:13 p.m.";
shapes = (
{
attr = {
gradient = {
colors = (
(
(200,255,255,255),
0
),
(
(150,140,250,255),
0.24579
),
(
(255,0,220,255),
0.46538
),
(
(255,130,170,255),
0.74692
),
(
(255,220,220,255),
1
)
);
end = (3.3113,1.014);
start = (0.0298,-0.0204);
};
};
closed = 1;
nodes = (
(90,688,l),
(295,688,l),
(295,20,l),
(90,20,l)
);
},
{
attr = {
gradient = {
colors = (
(
(200,255,255,255),
0
),
(
(150,140,250,255),
0.24805
),
(
(255,0,220,255),
0.5431
),
(
(255,130,170,255),
0.79647
),
(
(255,220,220,255),
1
)
);
end = (1.1638,0.9833);
start = (-2.12,-0.0276);
};
};
closed = 1;
nodes = (
(527,77,o),
(557,202,o),
(557,377,cs),
(557,521,o),
(527,635,o),
(462,685,c),
(635,676,o),
(763,563,o),
(763,361,cs),
(763,152,o),
(640,32,o),
(461,23,c)
);
}
);
width = 815;
},
{
anchors = (
{
name = bottom;
pos = (535,0);
},
{
name = center;
pos = (564,354);
},
{
name = top;
pos = (564,708);
}
);
associatedMasterId = "35A90D60-3AD4-435C-9F8B-D1CA483F6F66";
attr = {
colorPalette = 1;
};
layerId = "908DB776-3021-461B-AC6B-4D876BA7394A";
name = "22 Jul 23 10:13 p.m.";
shapes = (
{
attr = {
gradient = {
colors = (
(
(200,255,255,255),
0
),
(
(150,140,250,255),
0.24579
),
(
(255,0,220,255),
0.46538
),
(
(255,130,170,255),
0.74692
),
(
(255,220,220,255),
1
)
);
end = (4.2558,1.6237);
start = (0.0298,-0.0204);
};
};
closed = 1;
nodes = (
(214,703,l),
(219,703,l),
(219,5,l),
(214,5,l)
);
},
{
attr = {
gradient = {
colors = (
(
(200,255,255,255),
0
),
(
(150,140,250,255),
0.24805
),
(
(255,0,220,255),
0.5431
),
(
(255,130,170,255),
0.79647
),
(
(255,220,220,255),
1
)
);
end = (4.1986,2.0765);
start = (-2.12,-0.0276);
};
};
closed = 1;
nodes = (
(938,74,o),
(1027,182,o),
(1027,358,cs),
(1027,528,o),
(939,634,o),
(760,677,c),
(942,635,o),
(1032,529,o),
(1032,358,cs),
(1032,179,o),
(942,71,o),
(759,31,c)
);
}
);
width = 1127;
},
{
anchors = (
{
name = bottom;
pos = (622,0);
},
{
name = center;
pos = (658,354);
},
{
name = top;
pos = (622,708);
}
);
associatedMasterId = "DF54607F-DD82-41E6-B2E3-81CA6D0E5C47";
attr = {
colorPalette = 1;
};
layerId = "55BB4B03-E123-4A77-89FB-2C37F0C52134";
name = "22 Jul 23 10:13 p.m.";
shapes = (
{
attr = {
gradient = {
colors = (
(
(200,255,255,255),
0
),
(
(150,140,250,255),
0.24579
),
(
(255,0,220,255),
0.46538
),
(
(255,130,170,255),
0.74692
),
(
(255,220,220,255),
1
)
);
end = (4.2558,1.6237);
start = (0.0298,-0.0204);
};
};
closed = 1;
nodes = (
(90,689,l),
(570,689,l),
(570,20,l),
(90,20,l)
);
},
{
attr = {
gradient = {
colors = (
(
(200,255,255,255),
0
),
(
(150,140,250,255),
0.24805
),
(
(255,0,220,255),
0.5431
),
(
(255,130,170,255),
0.79647
),
(
(255,220,220,255),
1
)
);
end = (4.1986,2.0765);
start = (-2.12,-0.0276);
};
};
closed = 1;
nodes = (
(802,77,o),
(832,202,o),
(832,377,cs),
(832,521,o),
(802,635,o),
(737,686,c),
(1113,681,o),
(1323,562,o),
(1323,361,cs),
(1323,151,o),
(1113,27,o),
(736,22,c)
);
}
);
width = 1375;
}
);
unicode = 68;
},
{
color = 5;
glyphname = Eth;
kernLeft = HH;
kernRight = O;
lastChange = "2023-02-19 07:03:36 +0000";
layers = (
{
hints = (
{
horizontal = 1;
place = (34535,100);
type = Stem;
},
{
horizontal = 1;
place = (366.355,0);
type = Stem;
}
);
layerId = "2660E96A-9963-4076-AFCB-E451BC6EE103";
shapes = (
{
closed = 1;
nodes = (
(24,350,l),
(387,350,l),
(387,365,l),
(24,365,l)
);
},
{
ref = D;
}
);
width = 815;
},
{
hints = (
{
horizontal = 1;
place = (34535,100);
type = Stem;
},
{
horizontal = 1;
place = (366.355,0);
type = Stem;
}
);
layerId = "DF54607F-DD82-41E6-B2E3-81CA6D0E5C47";
shapes = (
{
closed = 1;
nodes = (
(24,350,l),
(666,350,l),
(666,365,l),
(24,365,l)
);
},
{
ref = D;
}
);
width = 1375;
},
{
hints = (
{
horizontal = 1;
place = (34535,100);
type = Stem;
},
{
horizontal = 1;
place = (366.355,0);
type = Stem;
}
);
layerId = "A5088515-37FF-452F-BD44-18A7A5EF88F0";
shapes = (
{
closed = 1;
nodes = (
(100,350,l),
(357,350,l),
(357,365,l),
(100,365,l)
);
},
{
ref = D;
}
);
width = 736;
},
{
hints = (
{
horizontal = 1;
place = (34535,100);
type = Stem;
},
{
horizontal = 1;
place = (366.355,0);
type = Stem;
}
);
layerId = "35A90D60-3AD4-435C-9F8B-D1CA483F6F66";
shapes = (
{
closed = 1;
nodes = (
(100,350,l),
(530,350,l),
(530,365,l),
(100,365,l)
);
},
{
ref = D;
}
);
width = 1127;
}
);
metricLeft = D;
metricRight = D;
unicode = 208;
},
{
color = 4;
glyphname = E;
kernLeft = HH;
kernRight = E;
lastChange = "2023-07-23 05:29:45 +0000";
layers = (
{
anchors = (
{
name = bottom;
pos = (351,0);
},
{
name = ogonek;
pos = (646,10);
},
{
name = top;
pos = (351,708);
},
{
name = topleft;
pos = (20,708);
}
);
layerId = "2660E96A-9963-4076-AFCB-E451BC6EE103";
shapes = (
{
closed = 1;
nodes = (
(652,0,l),
(617,284,l),
(607,284,l),
(538,138,ls),
(502,62,o),
(442,15,o),
(397,15,c),
(315,15,l),
(315,356,l),
(325,356,l),
(471,246,l),
(481,246,l),
(481,506,l),
(471,506,l),
(465,485,o),
(442,438,o),
(408,404,cs),
(387,383,o),
(363,366,o),
(335,366,c),
(315,366,l),
(315,693,l),
(397,693,l),
(429,693,o),
(479,659,o),
(512,598,cs),
(607,424,l),
(617,424,l),
(652,708,l),
(20,708,l),
(20,698,l),
(70,683,l),
(70,25,l),
(20,10,l),
(20,0,l)
);
},
{
attr = {
gradient = {
colors = (
(
(200,255,255,255),
0
),
(
(150,140,250,255),
0.24579
),
(
(255,0,220,255),
0.46538
),
(
(255,130,170,255),
0.74692
),
(
(255,220,220,255),
1
)
);
end = (3.3113,1.014);
start = (0.0298,-0.0204);
};
};
closed = 1;
nodes = (
(90,688,l),
(295,688,l),
(295,20,l),
(90,20,l)
);
},
{
attr = {
gradient = {
colors = (
(
(200,255,255,255),
0
),
(
(150,140,250,255),
0.24805
),
(
(255,0,220,255),
0.5431
),
(
(255,130,170,255),
0.79647
),
(
(255,220,220,255),
1
)
);
end = (1.1638,0.9833);
start = (-2.12,-0.0276);
};
};
closed = 1;
nodes = (
(403,362,o),
(428,384,o),
(459,433,c),
(459,282,l),
(368,351,l)
);
},
{
attr = {
gradient = {
colors = (
(
(200,255,255,255),
0
),
(
(150,140,250,255),
0.24805
),
(
(255,0,220,255),
0.5431
),
(
(255,130,170,255),
0.79647
),
(
(255,220,220,255),
1
)
);
end = (1.1638,0.9833);
start = (-2.12,-0.0276);
};
};
closed = 1;
nodes = (
(506,43,o),
(533,76,o),
(558,129,cs),
(603,223,l),
(627,20,l),
(473,20,l)
);
},
{
attr = {
gradient = {
colors = (
(
(200,255,255,255),
0
),
(
(150,140,250,255),
0.24805
),
(
(255,0,220,255),
0.5431
),
(
(255,130,170,255),
0.79647
),
(
(255,220,220,255),
1
)
);
end = (1.1638,0.9833);
start = (-2.12,-0.0276);
};
};
closed = 1;
nodes = (
(531,609,ls),
(510,648,o),
(492,669,o),
(467,688,c),
(627,688,l),
(602,479,l)
);
}
);
width = 702;
},
{
anchors = (
{
name = bottom;
pos = (658,0);
},
{
name = ogonek;
pos = (1280,10);
},
{
name = top;
pos = (658,708);
},
{
name = topleft;
pos = (20,708);
}
);
layerId = "DF54607F-DD82-41E6-B2E3-81CA6D0E5C47";
shapes = (
{
closed = 1;
nodes = (
(1286,0,l),
(1212,284,l),
(1202,284,l),
(1054,140,ls),
(967,55,o),
(853,15,o),
(745,15,c),
(590,15,l),
(590,356,l),
(602,356,l),
(913,246,l),
(923,246,l),
(923,506,l),
(913,506,l),
(901,488,o),
(856,449,o),
(795,416,cs),
(745,390,o),
(685,366,o),
(623,366,c),
(590,366,l),
(590,693,l),
(745,693,l),
(833,693,o),
(935,657,o),
(1025,579,cs),
(1202,424,l),
(1212,424,l),
(1286,708,l),
(20,708,l),
(20,698,l),
(70,688,l),
(70,20,l),
(20,10,l),
(20,0,l)
);
},
{
attr = {
gradient = {
colors = (
(
(200,255,255,255),
0
),
(
(150,140,250,255),
0.24579
),
(
(255,0,220,255),
0.46538
),
(
(255,130,170,255),
0.74692
),
(
(255,220,220,255),
1
)
);
end = (4.2558,1.6237);
start = (0.0298,-0.0204);
};
};
closed = 1;
nodes = (
(90,688,l),
(570,688,l),
(570,20,l),
(90,20,l)
);
},
{
attr = {
gradient = {
colors = (
(
(200,255,255,255),
0
),
(
(150,140,250,255),
0.24805
),
(
(255,0,220,255),
0.5431
),
(
(255,130,170,255),
0.79647
),
(
(255,220,220,255),
1
)
);
end = (4.1986,2.0765);
start = (-2.12,-0.0276);
};
};
closed = 1;
nodes = (
(773,372,o),
(828,399,o),
(901,462,c),
(901,274,l),
(681,351,l)
);
},
{
attr = {
gradient = {
colors = (
(
(200,255,255,255),
0
),
(
(150,140,250,255),
0.24805
),
(
(255,0,220,255),
0.5431
),
(
(255,130,170,255),
0.79647
),
(
(255,220,220,255),
1
)
);
end = (4.1986,2.0765);
start = (-2.12,-0.0276);
};
};
closed = 1;
nodes = (
(957,39,o),
(1017,73,o),
(1069,124,cs),
(1198,250,l),
(1258,20,l),
(886,20,l)
);
},
{
attr = {
gradient = {
colors = (
(
(200,255,255,255),
0
),
(
(150,140,250,255),
0.24805
),
(
(255,0,220,255),
0.5431
),
(
(255,130,170,255),
0.79647
),
(
(255,220,220,255),
1
)
);
end = (4.1986,2.0765);
start = (-2.12,-0.0276);
};
};
closed = 1;
nodes = (
(1039,596,ls),
(987,642,o),
(931,672,o),
(871,688,c),
(1258,688,l),
(1198,457,l)
);
}
);
width = 1336;
},
{
anchors = (
{
name = bottom;
pos = (354,0);
},
{
name = ogonek;
pos = (587,10);
},
{
name = top;
pos = (354,708);
},
{
name = topleft;
pos = (20,708);
}
);
layerId = "A5088515-37FF-452F-BD44-18A7A5EF88F0";
shapes = (
{
closed = 1;
nodes = (
(592,0,l),
(558,243,l),
(543,243,l),
(565,83,l),
(572,32,o),
(560,15,o),
(515,15,c),
(165,15,l),
(165,353,l),
(385,353,l),
(391,256,l),
(401,256,l),
(401,498,l),
(391,498,l),
(391,433,o),
(388,395,o),
(382,385,cs),
(376,374,o),
(366,368,o),
(354,368,c),
(165,368,l),
(165,693,l),
(498,693,l),
(548,693,o),
(564,679,o),
(559,635,c),
(543,484,l),
(558,484,l),
(592,708,l),
(80,708,l),
(80,698,l),
(150,683,l),
(150,25,l),
(80,10,l),
(80,0,l)
);
},
{
attr = {
gradient = {
colors = (
(
(200,255,255,255),
0
),
(
(150,140,250,255),
0.24579
),
(
(255,0,220,255),
0.46538
),
(
(255,130,170,255),
0.74692
),
(
(255,220,220,255),
1
)
);
end = (3.3113,1.014);
start = (-11.3494,-0.0615);
};
};
closed = 1;
nodes = (
(155,703,l),
(160,703,l),
(160,5,l),
(155,5,l)
);
},
{
attr = {
gradient = {
colors = (
(
(200,255,255,255),
0
),
(
(150,140,250,255),
0.24805
),
(
(255,0,220,255),
0.5431
),
(
(255,130,170,255),
0.79647
),
(
(255,220,220,255),
1
)
);
end = (1.1638,0.9833);
start = (-2.12,-0.0276);
};
};
closed = 1;
nodes = (
(393,369,o),
(394,379,o),
(394,388,c),
(394,288,l),
(390,360,l)
);
},
{
attr = {
gradient = {
colors = (
(
(200,255,255,255),
0
),
(
(150,140,250,255),
0.24805
),
(
(255,0,220,255),
0.5431
),
(
(255,130,170,255),
0.79647
),
(
(255,220,220,255),
1
)
);
end = (1.1638,0.9833);
start = (-2.12,-0.0276);
};
};
closed = 1;
nodes = (
(565,7,o),
(580,29,o),
(572,84,cs),
(551,236,l),
(584,7,l),
(515,7,l)
);
},
{
attr = {
gradient = {
colors = (
(
(200,255,255,255),
0
),
(
(150,140,250,255),
0.24805
),
(
(255,0,220,255),
0.5431
),
(
(255,130,170,255),
0.79647
),
(
(255,220,220,255),
1
)
);
end = (1.1638,0.9833);
start = (-2.12,-0.0276);
};
};
closed = 1;
nodes = (
(566,634,ls),
(571,683,o),
(552,701,o),
(498,701,c),
(584,701,l),
(552,491,l)
);
}
);
width = 667;
},
{
anchors = (
{
name = bottom;
pos = (548,0);
},
{
name = ogonek;
pos = (930,10);
},
{
name = top;
pos = (548,708);
},
{
name = topleft;
pos = (20,708);
}
);
layerId = "35A90D60-3AD4-435C-9F8B-D1CA483F6F66";
shapes = (
{
closed = 1;
nodes = (
(941,0,l),
(907,243,l),
(892,243,l),
(913,91,l),
(921,34,o),
(909,15,o),
(864,15,cs),
(224,15,l),
(224,353,l),
(594,353,l),
(600,256,l),
(610,256,l),
(610,498,l),
(600,498,l),
(600,434,o),
(596,392,o),
(589,381,cs),
(585,373,o),
(575,368,o),
(563,368,cs),
(224,368,l),
(224,693,l),
(847,693,ls),
(899,693,o),
(915,676,o),
(909,625,c),
(892,484,l),
(907,484,l),
(941,708,l),
(100,708,l),
(100,698,l),
(209,683,l),
(209,25,l),
(100,10,l),
(100,0,l)
);
},
{
attr = {
gradient = {
colors = (
(
(200,255,255,255),
0
),
(
(150,140,250,255),
0.24579
),
(
(255,0,220,255),
0.46538
),
(
(255,130,170,255),
0.74692
),
(
(255,220,220,255),
1
)
);
end = (4.2558,1.6237);
start = (0.0298,-0.0204);
};
};
closed = 1;
nodes = (
(214,703,l),
(219,703,l),
(219,5,l),
(214,5,l)
);
},
{
attr = {
gradient = {
colors = (
(
(200,255,255,255),
0
),
(
(150,140,250,255),
0.24805
),
(
(255,0,220,255),
0.5431
),
(
(255,130,170,255),
0.79647
),
(
(255,220,220,255),
1
)
);
end = (4.1986,2.0765);
start = (-2.12,-0.0276);
};
};
closed = 1;
nodes = (
(602,369,o),
(603,379,o),
(603,388,c),
(603,288,l),
(599,360,l)
);
},
{
attr = {
gradient = {
colors = (
(
(200,255,255,255),
0
),
(
(150,140,250,255),
0.24805
),
(
(255,0,220,255),
0.5431
),
(
(255,130,170,255),
0.79647
),
(
(255,220,220,255),
1
)
);
end = (4.1986,2.0765);
start = (-2.12,-0.0276);
};
};
closed = 1;
nodes = (
(914,7,o),
(928,31,o),
(920,92,cs),
(901,236,l),
(933,7,l),
(864,7,l)
);
},
{
attr = {
gradient = {
colors = (
(
(200,255,255,255),
0
),
(
(150,140,250,255),
0.24805
),
(
(255,0,220,255),
0.5431
),
(
(255,130,170,255),
0.79647
),
(
(255,220,220,255),
1
)
);
end = (4.1986,2.0765);
start = (-2.12,-0.0276);
};
};
closed = 1;
nodes = (
(916,624,ls),
(922,679,o),
(903,701,o),
(847,701,c),
(933,701,l),
(901,491,l)
);
}
);
width = 1056;
},
{
anchors = (
{
name = bottom;
pos = (354,0);
},
{
name = ogonek;
pos = (587,10);
},
{
name = top;
pos = (354,708);
},
{
name = topleft;
pos = (20,708);
}
);
associatedMasterId = "A5088515-37FF-452F-BD44-18A7A5EF88F0";
attr = {
colorPalette = 0;
};
layerId = "072D8A1F-F601-404B-86BA-CC7C60BD58E5";
name = "22 Jul 23 10:18 p.m.";
shapes = (
{
closed = 1;
nodes = (
(592,0,l),
(558,243,l),
(543,243,l),
(565,83,l),
(572,32,o),
(560,15,o),
(515,15,c),
(165,15,l),
(165,353,l),
(385,353,l),
(391,256,l),
(401,256,l),
(401,498,l),
(391,498,l),
(391,433,o),
(388,395,o),
(382,385,cs),
(376,374,o),
(366,368,o),
(354,368,c),
(165,368,l),
(165,693,l),
(498,693,l),
(548,693,o),
(564,679,o),
(559,635,c),
(543,484,l),
(558,484,l),
(592,708,l),
(80,708,l),
(80,698,l),
(150,683,l),
(150,25,l),
(80,10,l),
(80,0,l)
);
}
);
width = 667;
},
{
anchors = (
{
name = bottom;
pos = (351,0);
},
{
name = ogonek;
pos = (646,10);
},
{
name = top;
pos = (351,708);
},
{
name = topleft;
pos = (20,708);
}
);
associatedMasterId = "2660E96A-9963-4076-AFCB-E451BC6EE103";
attr = {
colorPalette = 0;
};
layerId = "CD0ACFA6-61FB-436C-9C2B-6D82046962AA";
name = "22 Jul 23 10:18 p.m.";
shapes = (
{
closed = 1;
nodes = (
(652,0,l),
(617,284,l),
(607,284,l),
(538,138,ls),
(502,62,o),
(442,15,o),
(397,15,c),
(315,15,l),
(315,356,l),
(325,356,l),
(471,246,l),
(481,246,l),
(481,506,l),
(471,506,l),
(465,485,o),
(442,438,o),
(408,404,cs),
(387,383,o),
(363,366,o),
(335,366,c),
(315,366,l),
(315,693,l),
(397,693,l),
(429,693,o),
(479,659,o),
(512,598,cs),
(607,424,l),
(617,424,l),
(652,708,l),
(20,708,l),
(20,698,l),
(70,683,l),
(70,25,l),
(20,10,l),
(20,0,l)
);
}
);
width = 702;
},
{
anchors = (
{
name = bottom;
pos = (548,0);
},
{
name = ogonek;
pos = (930,10);
},
{
name = top;
pos = (548,708);
},
{
name = topleft;
pos = (20,708);
}
);
associatedMasterId = "35A90D60-3AD4-435C-9F8B-D1CA483F6F66";
attr = {
colorPalette = 0;
};
layerId = "A4BC3C37-1D83-484E-91EB-93628A117350";
name = "22 Jul 23 10:18 p.m.";
shapes = (
{
closed = 1;
nodes = (
(941,0,l),
(907,243,l),
(892,243,l),
(913,91,l),
(921,34,o),
(909,15,o),
(864,15,cs),
(224,15,l),
(224,353,l),
(594,353,l),
(600,256,l),
(610,256,l),
(610,498,l),
(600,498,l),
(600,434,o),
(596,392,o),
(589,381,cs),
(585,373,o),
(575,368,o),
(563,368,cs),
(224,368,l),
(224,693,l),
(847,693,ls),
(899,693,o),
(915,676,o),
(909,625,c),
(892,484,l),
(907,484,l),
(941,708,l),
(100,708,l),
(100,698,l),
(209,683,l),
(209,25,l),
(100,10,l),
(100,0,l)
);
}
);
width = 1056;
},
{
anchors = (
{
name = bottom;
pos = (658,0);
},
{
name = ogonek;
pos = (1280,10);
},
{
name = top;
pos = (658,708);
},
{
name = topleft;
pos = (20,708);
}
);
associatedMasterId = "DF54607F-DD82-41E6-B2E3-81CA6D0E5C47";
attr = {
colorPalette = 0;
};
layerId = "C9CEC266-7EF7-4846-A629-192E698E5EFC";
name = "22 Jul 23 10:18 p.m.";
shapes = (
{
closed = 1;
nodes = (
(1286,0,l),
(1212,284,l),
(1202,284,l),
(1054,140,ls),
(967,55,o),
(853,15,o),
(745,15,c),
(590,15,l),
(590,356,l),
(602,356,l),
(913,246,l),
(923,246,l),
(923,506,l),
(913,506,l),
(901,488,o),
(856,449,o),
(795,416,cs),
(745,390,o),
(685,366,o),
(623,366,c),
(590,366,l),
(590,693,l),
(745,693,l),
(833,693,o),
(935,657,o),
(1025,579,cs),
(1202,424,l),
(1212,424,l),
(1286,708,l),
(20,708,l),
(20,698,l),
(70,688,l),
(70,20,l),
(20,10,l),
(20,0,l)
);
}
);
width = 1336;
},
{
anchors = (
{
name = bottom;
pos = (354,0);
},
{
name = ogonek;
pos = (587,10);
},
{
name = top;
pos = (354,708);
},
{
name = topleft;
pos = (20,708);
}
);
associatedMasterId = "A5088515-37FF-452F-BD44-18A7A5EF88F0";
attr = {
colorPalette = 1;
};
layerId = "7355D85A-79B4-417F-8C57-62175C37FC19";
name = "22 Jul 23 10:18 p.m.";
shapes = (
{
attr = {
gradient = {
colors = (
(
(200,255,255,255),
0
),
(
(150,140,250,255),
0.24579
),
(
(255,0,220,255),
0.46538
),
(
(255,130,170,255),
0.74692
),
(
(255,220,220,255),
1
)
);
end = (3.3113,1.014);
start = (-11.3494,-0.0615);
};
};
closed = 1;
nodes = (
(155,703,l),
(160,703,l),
(160,5,l),
(155,5,l)
);
},
{
attr = {
gradient = {
colors = (
(
(200,255,255,255),
0
),
(
(150,140,250,255),
0.24805
),
(
(255,0,220,255),
0.5431
),
(
(255,130,170,255),
0.79647
),
(
(255,220,220,255),
1
)
);
end = (1.1638,0.9833);
start = (-2.12,-0.0276);
};
};
closed = 1;
nodes = (
(393,369,o),
(394,379,o),
(394,388,c),
(394,288,l),
(390,360,l)
);
},
{
attr = {
gradient = {
colors = (
(
(200,255,255,255),
0
),
(
(150,140,250,255),
0.24805
),
(
(255,0,220,255),
0.5431
),
(
(255,130,170,255),
0.79647
),
(
(255,220,220,255),
1
)
);
end = (1.1638,0.9833);
start = (-2.12,-0.0276);
};
};
closed = 1;
nodes = (
(565,7,o),
(580,29,o),
(572,84,cs),
(551,236,l),
(584,7,l),
(515,7,l)
);
},
{
attr = {
gradient = {
colors = (
(
(200,255,255,255),
0
),
(
(150,140,250,255),
0.24805
),
(
(255,0,220,255),
0.5431
),
(
(255,130,170,255),
0.79647
),
(
(255,220,220,255),
1
)
);
end = (1.1638,0.9833);
start = (-2.12,-0.0276);
};
};
closed = 1;
nodes = (
(566,634,ls),
(571,683,o),
(552,701,o),
(498,701,c),
(584,701,l),
(552,491,l)
);
}
);
width = 667;
},
{
anchors = (
{
name = bottom;
pos = (351,0);
},
{
name = ogonek;
pos = (646,10);
},
{
name = top;
pos = (351,708);
},
{
name = topleft;
pos = (20,708);
}
);
associatedMasterId = "2660E96A-9963-4076-AFCB-E451BC6EE103";
attr = {
colorPalette = 1;
};
layerId = "B6BC18C1-72D6-4887-8343-E86D4C5CCF0D";
name = "22 Jul 23 10:18 p.m.";
shapes = (
{
attr = {
gradient = {
colors = (
(
(200,255,255,255),
0
),
(
(150,140,250,255),
0.24579
),
(
(255,0,220,255),
0.46538
),
(
(255,130,170,255),
0.74692
),
(
(255,220,220,255),
1
)
);
end = (3.3113,1.014);
start = (0.0298,-0.0204);
};
};
closed = 1;
nodes = (
(90,688,l),
(295,688,l),
(295,20,l),
(90,20,l)
);
},
{
attr = {
gradient = {
colors = (
(
(200,255,255,255),
0
),
(
(150,140,250,255),
0.24805
),
(
(255,0,220,255),
0.5431
),
(
(255,130,170,255),
0.79647
),
(
(255,220,220,255),
1
)
);
end = (1.1638,0.9833);
start = (-2.12,-0.0276);
};
};
closed = 1;
nodes = (
(403,362,o),
(428,384,o),
(459,433,c),
(459,282,l),
(368,351,l)
);
},
{
attr = {
gradient = {
colors = (
(
(200,255,255,255),
0
),
(
(150,140,250,255),
0.24805
),
(
(255,0,220,255),
0.5431
),
(
(255,130,170,255),
0.79647
),
(
(255,220,220,255),
1
)
);
end = (1.1638,0.9833);
start = (-2.12,-0.0276);
};
};
closed = 1;
nodes = (
(506,43,o),
(533,76,o),
(558,129,cs),
(603,223,l),
(627,20,l),
(473,20,l)
);
},
{
attr = {
gradient = {
colors = (
(
(200,255,255,255),
0
),
(
(150,140,250,255),
0.24805
),
(
(255,0,220,255),
0.5431
),
(
(255,130,170,255),
0.79647
),
(
(255,220,220,255),
1
)
);
end = (1.1638,0.9833);
start = (-2.12,-0.0276);
};
};
closed = 1;
nodes = (
(531,609,ls),
(510,648,o),
(492,669,o),
(467,688,c),
(627,688,l),
(602,479,l)
);
}
);
width = 702;
},
{
anchors = (
{
name = bottom;
pos = (548,0);
},
{
name = ogonek;
pos = (930,10);
},
{
name = top;
pos = (548,708);
},
{
name = topleft;
pos = (20,708);
}
);
associatedMasterId = "35A90D60-3AD4-435C-9F8B-D1CA483F6F66";
attr = {
colorPalette = 1;
};
layerId = "F6350269-405E-4741-A426-96E6522BD1DF";
name = "22 Jul 23 10:19 p.m.";
shapes = (
{
attr = {
gradient = {
colors = (
(
(200,255,255,255),
0
),
(
(150,140,250,255),
0.24579
),
(
(255,0,220,255),
0.46538
),
(
(255,130,170,255),
0.74692
),
(
(255,220,220,255),
1
)
);
end = (4.2558,1.6237);
start = (0.0298,-0.0204);
};
};
closed = 1;
nodes = (
(214,703,l),
(219,703,l),
(219,5,l),
(214,5,l)
);
},
{
attr = {
gradient = {
colors = (
(
(200,255,255,255),
0
),
(
(150,140,250,255),
0.24805
),
(
(255,0,220,255),
0.5431
),
(
(255,130,170,255),
0.79647
),
(
(255,220,220,255),
1
)
);
end = (4.1986,2.0765);
start = (-2.12,-0.0276);
};
};
closed = 1;
nodes = (
(602,369,o),
(603,379,o),
(603,388,c),
(603,288,l),
(599,360,l)
);
},
{
attr = {
gradient = {
colors = (
(
(200,255,255,255),
0
),
(
(150,140,250,255),
0.24805
),
(
(255,0,220,255),
0.5431
),
(
(255,130,170,255),
0.79647
),
(
(255,220,220,255),
1
)
);
end = (4.1986,2.0765);
start = (-2.12,-0.0276);
};
};
closed = 1;
nodes = (
(914,7,o),
(928,31,o),
(920,92,cs),
(901,236,l),
(933,7,l),
(864,7,l)
);
},
{
attr = {
gradient = {
colors = (
(
(200,255,255,255),
0
),
(
(150,140,250,255),
0.24805
),
(
(255,0,220,255),
0.5431
),
(
(255,130,170,255),
0.79647
),
(
(255,220,220,255),
1
)
);
end = (4.1986,2.0765);
start = (-2.12,-0.0276);
};
};
closed = 1;
nodes = (
(916,624,ls),
(922,679,o),
(903,701,o),
(847,701,c),
(933,701,l),
(901,491,l)
);
}
);
width = 1056;
},
{
anchors = (
{
name = bottom;
pos = (658,0);
},
{
name = ogonek;
pos = (1280,10);
},
{
name = top;
pos = (658,708);
},
{
name = topleft;
pos = (20,708);
}
);
associatedMasterId = "DF54607F-DD82-41E6-B2E3-81CA6D0E5C47";
attr = {
colorPalette = 1;
};
layerId = "29B0CF94-0E7D-42CA-BFE3-D149CE58A4CD";
name = "22 Jul 23 10:19 p.m.";
shapes = (
{
attr = {
gradient = {
colors = (
(
(200,255,255,255),
0
),
(
(150,140,250,255),
0.24579
),
(
(255,0,220,255),
0.46538
),
(
(255,130,170,255),
0.74692
),
(
(255,220,220,255),
1
)
);
end = (4.2558,1.6237);
start = (0.0298,-0.0204);
};
};
closed = 1;
nodes = (
(90,688,l),
(570,688,l),
(570,20,l),
(90,20,l)
);
},
{
attr = {
gradient = {
colors = (
(
(200,255,255,255),
0
),
(
(150,140,250,255),
0.24805
),
(
(255,0,220,255),
0.5431
),
(
(255,130,170,255),
0.79647
),
(
(255,220,220,255),
1
)
);
end = (4.1986,2.0765);
start = (-2.12,-0.0276);
};
};
closed = 1;
nodes = (
(773,372,o),
(828,399,o),
(901,462,c),
(901,274,l),
(681,351,l)
);
},
{
attr = {
gradient = {
colors = (
(
(200,255,255,255),
0
),
(
(150,140,250,255),
0.24805
),
(
(255,0,220,255),
0.5431
),
(
(255,130,170,255),
0.79647
),
(
(255,220,220,255),
1
)
);
end = (4.1986,2.0765);
start = (-2.12,-0.0276);
};
};
closed = 1;
nodes = (
(957,39,o),
(1017,73,o),
(1069,124,cs),
(1198,250,l),
(1258,20,l),
(886,20,l)
);
},
{
attr = {
gradient = {
colors = (
(
(200,255,255,255),
0
),
(
(150,140,250,255),
0.24805
),
(
(255,0,220,255),
0.5431
),
(
(255,130,170,255),
0.79647
),
(
(255,220,220,255),
1
)
);
end = (4.1986,2.0765);
start = (-2.12,-0.0276);
};
};
closed = 1;
nodes = (
(1039,596,ls),
(987,642,o),
(931,672,o),
(871,688,c),
(1258,688,l),
(1198,457,l)
);
}
);
width = 1336;
}
);
unicode = 69;
},
{
color = 4;
glyphname = F;
kernLeft = HH;
kernRight = F;
lastChange = "2023-07-26 04:47:37 +0000";
layers = (
{
layerId = "2660E96A-9963-4076-AFCB-E451BC6EE103";
shapes = (
{
closed = 1;
nodes = (
(365,0,l),
(365,10,l),
(315,20,l),
(315,356,l),
(325,356,l),
(481,246,l),
(491,246,l),
(491,506,l),
(481,506,l),
(475,485,o),
(442,438,o),
(408,404,cs),
(387,383,o),
(363,366,o),
(335,366,cs),
(315,366,l),
(315,693,l),
(397,693,ls),
(429,693,o),
(479,659,o),
(512,598,cs),
(607,424,l),
(617,424,l),
(652,708,l),
(20,708,l),
(20,698,l),
(70,683,l),
(70,25,l),
(20,10,l),
(20,0,l)
);
},
{
attr = {
gradient = {
colors = (
(
(200,255,255,255),
0
),
(
(150,140,250,255),
0.24579
),
(
(255,0,220,255),
0.46538
),
(
(255,130,170,255),
0.74692
),
(
(255,220,220,255),
1
)
);
end = (3.3113,1.014);
start = (0.0298,-0.0204);
};
};
closed = 1;
nodes = (
(90,688,l),
(295,688,l),
(295,20,l),
(90,20,l)
);
},
{
attr = {
gradient = {
colors = (
(
(200,255,255,255),
0
),
(
(150,140,250,255),
0.24805
),
(
(255,0,220,255),
0.5431
),
(
(255,130,170,255),
0.79647
),
(
(255,220,220,255),
1
)
);
end = (1.1638,0.9833);
start = (-2.12,-0.0276);
};
};
closed = 1;
nodes = (
(408,367,o),
(446,414,o),
(471,448,c),
(471,277,l),
(366,351,l)
);
},
{
attr = {
gradient = {
colors = (
(
(200,255,255,255),
0
),
(
(150,140,250,255),
0.24805
),
(
(255,0,220,255),
0.5431
),
(
(255,130,170,255),
0.79647
),
(
(255,220,220,255),
1
)
);
end = (1.1638,0.9833);
start = (-2.12,-0.0276);
};
};
closed = 1;
nodes = (
(531,609,ls),
(510,648,o),
(492,669,o),
(467,688,c),
(627,688,l),
(602,479,l)
);
}
);
width = 652;
},
{
layerId = "DF54607F-DD82-41E6-B2E3-81CA6D0E5C47";
shapes = (
{
closed = 1;
nodes = (
(630,0,l),
(630,10,l),
(590,20,l),
(590,356,l),
(602,356,l),
(933,246,l),
(943,246,l),
(943,506,l),
(933,506,l),
(923,492,o),
(864,450,o),
(792,415,cs),
(737,388,o),
(674,366,o),
(623,366,cs),
(590,366,l),
(590,693,l),
(745,693,ls),
(833,693,o),
(935,657,o),
(1025,579,cs),
(1202,424,l),
(1212,424,l),
(1286,708,l),
(20,708,l),
(20,698,l),
(70,688,l),
(70,20,l),
(20,10,l),
(20,0,l)
);
},
{
attr = {
gradient = {
colors = (
(
(200,255,255,255),
0
),
(
(150,140,250,255),
0.24579
),
(
(255,0,220,255),
0.46538
),
(
(255,130,170,255),
0.74692
),
(
(255,220,220,255),
1
)
);
end = (4.2558,1.6237);
start = (0.0298,-0.0204);
};
};
closed = 1;
nodes = (
(90,688,l),
(570,688,l),
(570,20,l),
(90,20,l)
);
},
{
attr = {
gradient = {
colors = (
(
(200,255,255,255),
0
),
(
(150,140,250,255),
0.24805
),
(
(255,0,220,255),
0.5431
),
(
(255,130,170,255),
0.79647
),
(
(255,220,220,255),
1
)
);
end = (4.1986,2.0765);
start = (-2.12,-0.0276);
};
};
closed = 1;
nodes = (
(757,369,o),
(858,421,o),
(923,470,c),
(923,270,l),
(677,352,l)
);
},
{
attr = {
gradient = {
colors = (
(
(200,255,255,255),
0
),
(
(150,140,250,255),
0.24805
),
(
(255,0,220,255),
0.5431
),
(
(255,130,170,255),
0.79647
),
(
(255,220,220,255),
1
)
);
end = (4.1986,2.0765);
start = (-2.12,-0.0276);
};
};
closed = 1;
nodes = (
(1039,596,ls),
(987,642,o),
(931,672,o),
(871,688,c),
(1258,688,l),
(1198,457,l)
);
}
);
width = 1276;
},
{
layerId = "A5088515-37FF-452F-BD44-18A7A5EF88F0";
shapes = (
{
closed = 1;
nodes = (
(235,0,l),
(235,10,l),
(165,25,l),
(165,353,l),
(405,353,l),
(411,256,l),
(421,256,l),
(421,498,l),
(411,498,l),
(411,433,o),
(408,395,o),
(402,385,cs),
(396,374,o),
(386,368,o),
(374,368,cs),
(165,368,l),
(165,693,l),
(498,693,ls),
(548,693,o),
(564,679,o),
(559,635,cs),
(543,484,l),
(558,484,l),
(592,708,l),
(80,708,l),
(80,698,l),
(150,683,l),
(150,25,l),
(80,10,l),
(80,0,l)
);
},
{
attr = {
gradient = {
colors = (
(
(200,255,255,255),
0
),
(
(150,140,250,255),
0.24579
),
(
(255,0,220,255),
0.46538
),
(
(255,130,170,255),
0.74692
),
(
(255,220,220,255),
1
)
);
end = (3.3113,1.014);
start = (-11.3494,-0.0615);
};
};
closed = 1;
nodes = (
(155,703,l),
(160,703,l),
(160,5,l),
(155,5,l)
);
},
{
attr = {
gradient = {
colors = (
(
(200,255,255,255),
0
),
(
(150,140,250,255),
0.24805
),
(
(255,0,220,255),
0.5431
),
(
(255,130,170,255),
0.79647
),
(
(255,220,220,255),
1
)
);
end = (1.1638,0.9833);
start = (-2.12,-0.0276);
};
};
closed = 1;
nodes = (
(413,369,o),
(414,379,o),
(414,388,c),
(414,288,l),
(410,360,l)
);
},
{
attr = {
gradient = {
colors = (
(
(200,255,255,255),
0
),
(
(150,140,250,255),
0.24805
),
(
(255,0,220,255),
0.5431
),
(
(255,130,170,255),
0.79647
),
(
(255,220,220,255),
1
)
);
end = (1.1638,0.9833);
start = (-2.12,-0.0276);
};
};
closed = 1;
nodes = (
(566,634,ls),
(571,683,o),
(552,701,o),
(498,701,c),
(584,701,l),
(552,491,l)
);
}
);
width = 598;
},
{
layerId = "35A90D60-3AD4-435C-9F8B-D1CA483F6F66";
shapes = (
{
closed = 1;
nodes = (
(342,0,l),
(342,10,l),
(224,25,l),
(224,353,l),
(614,353,l),
(620,256,l),
(630,256,l),
(630,498,l),
(620,498,l),
(620,434,o),
(616,392,o),
(609,381,cs),
(605,373,o),
(595,368,o),
(583,368,cs),
(224,368,l),
(224,693,l),
(847,693,ls),
(899,693,o),
(915,676,o),
(909,625,cs),
(892,484,l),
(907,484,l),
(941,708,l),
(100,708,l),
(100,698,l),
(209,683,l),
(209,25,l),
(100,10,l),
(100,0,l)
);
},
{
attr = {
gradient = {
colors = (
(
(200,255,255,255),
0
),
(
(150,140,250,255),
0.24579
),
(
(255,0,220,255),
0.46538
),
(
(255,130,170,255),
0.74692
),
(
(255,220,220,255),
1
)
);
end = (4.2558,1.6237);
start = (0.0298,-0.0204);
};
};
closed = 1;
nodes = (
(214,703,l),
(219,703,l),
(219,5,l),
(214,5,l)
);
},
{
attr = {
gradient = {
colors = (
(
(200,255,255,255),
0
),
(
(150,140,250,255),
0.24805
),
(
(255,0,220,255),
0.5431
),
(
(255,130,170,255),
0.79647
),
(
(255,220,220,255),
1
)
);
end = (4.1986,2.0765);
start = (-2.12,-0.0276);
};
};
closed = 1;
nodes = (
(622,369,o),
(623,379,o),
(623,388,c),
(623,288,l),
(619,360,l)
);
},
{
attr = {
gradient = {
colors = (
(
(200,255,255,255),
0
),
(
(150,140,250,255),
0.24805
),
(
(255,0,220,255),
0.5431
),
(
(255,130,170,255),
0.79647
),
(
(255,220,220,255),
1
)
);
end = (4.1986,2.0765);
start = (-2.12,-0.0276);
};
};
closed = 1;
nodes = (
(916,624,ls),
(922,679,o),
(903,701,o),
(847,701,c),
(933,701,l),
(901,491,l)
);
}
);
width = 996;
},
{
associatedMasterId = "A5088515-37FF-452F-BD44-18A7A5EF88F0";
attr = {
colorPalette = 0;
};
layerId = "D40E4B28-A529-4BEF-9B2D-86BB0B4D5551";
name = "25 Jul 23 9:22 p.m.";
shapes = (
{
closed = 1;
nodes = (
(235,0,l),
(235,10,l),
(165,25,l),
(165,353,l),
(405,353,l),
(411,256,l),
(421,256,l),
(421,498,l),
(411,498,l),
(411,433,o),
(408,395,o),
(402,385,cs),
(396,374,o),
(386,368,o),
(374,368,cs),
(165,368,l),
(165,693,l),
(498,693,ls),
(548,693,o),
(564,679,o),
(559,635,cs),
(543,484,l),
(558,484,l),
(592,708,l),
(80,708,l),
(80,698,l),
(150,683,l),
(150,25,l),
(80,10,l),
(80,0,l)
);
}
);
width = 598;
},
{
associatedMasterId = "2660E96A-9963-4076-AFCB-E451BC6EE103";
attr = {
colorPalette = 0;
};
layerId = "45104FD0-3DC2-43C4-B2A5-9860F2531305";
name = "25 Jul 23 9:22 p.m.";
shapes = (
{
closed = 1;
nodes = (
(365,0,l),
(365,10,l),
(315,20,l),
(315,356,l),
(325,356,l),
(481,246,l),
(491,246,l),
(491,506,l),
(481,506,l),
(475,485,o),
(442,438,o),
(408,404,cs),
(387,383,o),
(363,366,o),
(335,366,cs),
(315,366,l),
(315,693,l),
(397,693,ls),
(429,693,o),
(479,659,o),
(512,598,cs),
(607,424,l),
(617,424,l),
(652,708,l),
(20,708,l),
(20,698,l),
(70,683,l),
(70,25,l),
(20,10,l),
(20,0,l)
);
}
);
width = 652;
},
{
associatedMasterId = "35A90D60-3AD4-435C-9F8B-D1CA483F6F66";
attr = {
colorPalette = 0;
};
layerId = "6CEB53DD-B538-4842-8DE5-45EB8935B3BC";
name = "25 Jul 23 9:22 p.m.";
shapes = (
{
closed = 1;
nodes = (
(342,0,l),
(342,10,l),
(224,25,l),
(224,353,l),
(614,353,l),
(620,256,l),
(630,256,l),
(630,498,l),
(620,498,l),
(620,434,o),
(616,392,o),
(609,381,cs),
(605,373,o),
(595,368,o),
(583,368,cs),
(224,368,l),
(224,693,l),
(847,693,ls),
(899,693,o),
(915,676,o),
(909,625,cs),
(892,484,l),
(907,484,l),
(941,708,l),
(100,708,l),
(100,698,l),
(209,683,l),
(209,25,l),
(100,10,l),
(100,0,l)
);
}
);
width = 996;
},
{
associatedMasterId = "DF54607F-DD82-41E6-B2E3-81CA6D0E5C47";
attr = {
colorPalette = 0;
};
layerId = "89451441-9084-4523-AD0B-38D23B437BEA";
name = "25 Jul 23 9:22 p.m.";
shapes = (
{
closed = 1;
nodes = (
(630,0,l),
(630,10,l),
(590,20,l),
(590,356,l),
(602,356,l),
(933,246,l),
(943,246,l),
(943,506,l),
(933,506,l),
(923,492,o),
(864,450,o),
(792,415,cs),
(737,388,o),
(674,366,o),
(623,366,cs),
(590,366,l),
(590,693,l),
(745,693,ls),
(833,693,o),
(935,657,o),
(1025,579,cs),
(1202,424,l),
(1212,424,l),
(1286,708,l),
(20,708,l),
(20,698,l),
(70,688,l),
(70,20,l),
(20,10,l),
(20,0,l)
);
}
);
width = 1276;
},
{
associatedMasterId = "A5088515-37FF-452F-BD44-18A7A5EF88F0";
attr = {
colorPalette = 1;
};
layerId = "FD795549-DE3A-4811-B703-681C1F0C71FC";
name = "25 Jul 23 9:22 p.m.";
shapes = (
{
attr = {
gradient = {
colors = (
(
(200,255,255,255),
0
),
(
(150,140,250,255),
0.24579
),
(
(255,0,220,255),
0.46538
),
(
(255,130,170,255),
0.74692
),
(
(255,220,220,255),
1
)
);
end = (3.3113,1.014);
start = (-11.3494,-0.0615);
};
};
closed = 1;
nodes = (
(155,703,l),
(160,703,l),
(160,5,l),
(155,5,l)
);
},
{
attr = {
gradient = {
colors = (
(
(200,255,255,255),
0
),
(
(150,140,250,255),
0.24805
),
(
(255,0,220,255),
0.5431
),
(
(255,130,170,255),
0.79647
),
(
(255,220,220,255),
1
)
);
end = (1.1638,0.9833);
start = (-2.12,-0.0276);
};
};
closed = 1;
nodes = (
(413,369,o),
(414,379,o),
(414,388,c),
(414,288,l),
(410,360,l)
);
},
{
attr = {
gradient = {
colors = (
(
(200,255,255,255),
0
),
(
(150,140,250,255),
0.24805
),
(
(255,0,220,255),
0.5431
),
(
(255,130,170,255),
0.79647
),
(
(255,220,220,255),
1
)
);
end = (1.1638,0.9833);
start = (-2.12,-0.0276);
};
};
closed = 1;
nodes = (
(566,634,ls),
(571,683,o),
(552,701,o),
(498,701,c),
(584,701,l),
(552,491,l)
);
}
);
width = 598;
},
{
associatedMasterId = "2660E96A-9963-4076-AFCB-E451BC6EE103";
attr = {
colorPalette = 1;
};
layerId = "270BB9E7-2816-485D-BFAB-ED7144B5C42A";
name = "25 Jul 23 9:23 p.m.";
shapes = (
{
attr = {
gradient = {
colors = (
(
(200,255,255,255),
0
),
(
(150,140,250,255),
0.24579
),
(
(255,0,220,255),
0.46538
),
(
(255,130,170,255),
0.74692
),
(
(255,220,220,255),
1
)
);
end = (3.3113,1.014);
start = (0.0298,-0.0204);
};
};
closed = 1;
nodes = (
(90,688,l),
(295,688,l),
(295,20,l),
(90,20,l)
);
},
{
attr = {
gradient = {
colors = (
(
(200,255,255,255),
0
),
(
(150,140,250,255),
0.24805
),
(
(255,0,220,255),
0.5431
),
(
(255,130,170,255),
0.79647
),
(
(255,220,220,255),
1
)
);
end = (1.1638,0.9833);
start = (-2.12,-0.0276);
};
};
closed = 1;
nodes = (
(408,367,o),
(446,414,o),
(471,448,c),
(471,277,l),
(366,351,l)
);
},
{
attr = {
gradient = {
colors = (
(
(200,255,255,255),
0
),
(
(150,140,250,255),
0.24805
),
(
(255,0,220,255),
0.5431
),
(
(255,130,170,255),
0.79647
),
(
(255,220,220,255),
1
)
);
end = (1.1638,0.9833);
start = (-2.12,-0.0276);
};
};
closed = 1;
nodes = (
(531,609,ls),
(510,648,o),
(492,669,o),
(467,688,c),
(627,688,l),
(602,479,l)
);
}
);
width = 652;
},
{
associatedMasterId = "35A90D60-3AD4-435C-9F8B-D1CA483F6F66";
attr = {
colorPalette = 1;
};
layerId = "56238946-EEF4-4CF9-8727-49C1613195F0";
name = "25 Jul 23 9:23 p.m.";
shapes = (
{
attr = {
gradient = {
colors = (
(
(200,255,255,255),
0
),
(
(150,140,250,255),
0.24579
),
(
(255,0,220,255),
0.46538
),
(
(255,130,170,255),
0.74692
),
(
(255,220,220,255),
1
)
);
end = (4.2558,1.6237);
start = (0.0298,-0.0204);
};
};
closed = 1;
nodes = (
(214,703,l),
(219,703,l),
(219,5,l),
(214,5,l)
);
},
{
attr = {
gradient = {
colors = (
(
(200,255,255,255),
0
),
(
(150,140,250,255),
0.24805
),
(
(255,0,220,255),
0.5431
),
(
(255,130,170,255),
0.79647
),
(
(255,220,220,255),
1
)
);
end = (4.1986,2.0765);
start = (-2.12,-0.0276);
};
};
closed = 1;
nodes = (
(622,369,o),
(623,379,o),
(623,388,c),
(623,288,l),
(619,360,l)
);
},
{
attr = {
gradient = {
colors = (
(
(200,255,255,255),
0
),
(
(150,140,250,255),
0.24805
),
(
(255,0,220,255),
0.5431
),
(
(255,130,170,255),
0.79647
),
(
(255,220,220,255),
1
)
);
end = (4.1986,2.0765);
start = (-2.12,-0.0276);
};
};
closed = 1;
nodes = (
(916,624,ls),
(922,679,o),
(903,701,o),
(847,701,c),
(933,701,l),
(901,491,l)
);
}
);
width = 996;
},
{
associatedMasterId = "DF54607F-DD82-41E6-B2E3-81CA6D0E5C47";
attr = {
colorPalette = 1;
};
layerId = "A13C91F9-4758-4E86-8024-FF4E0ED083C2";
name = "25 Jul 23 9:23 p.m.";
shapes = (
{
attr = {
gradient = {
colors = (
(
(200,255,255,255),
0
),
(
(150,140,250,255),
0.24579
),
(
(255,0,220,255),
0.46538
),
(
(255,130,170,255),
0.74692
),
(
(255,220,220,255),
1
)
);
end = (4.2558,1.6237);
start = (0.0298,-0.0204);
};
};
closed = 1;
nodes = (
(90,688,l),
(570,688,l),
(570,20,l),
(90,20,l)
);
},
{
attr = {
gradient = {
colors = (
(
(200,255,255,255),
0
),
(
(150,140,250,255),
0.24805
),
(
(255,0,220,255),
0.5431
),
(
(255,130,170,255),
0.79647
),
(
(255,220,220,255),
1
)
);
end = (4.1986,2.0765);
start = (-2.12,-0.0276);
};
};
closed = 1;
nodes = (
(757,369,o),
(858,421,o),
(923,470,c),
(923,270,l),
(677,352,l)
);
},
{
attr = {
gradient = {
colors = (
(
(200,255,255,255),
0
),
(
(150,140,250,255),
0.24805
),
(
(255,0,220,255),
0.5431
),
(
(255,130,170,255),
0.79647
),
(
(255,220,220,255),
1
)
);
end = (4.1986,2.0765);
start = (-2.12,-0.0276);
};
};
closed = 1;
nodes = (
(1039,596,ls),
(987,642,o),
(931,672,o),
(871,688,c),
(1258,688,l),
(1198,457,l)
);
}
);
width = 1276;
}
);
unicode = 70;
},
{
color = 4;
glyphname = G;
kernLeft = OO;
kernRight = G;
lastChange = "2023-07-26 04:47:55 +0000";
layers = (
{
anchors = (
{
name = bottom;
pos = (416,0);
},
{
name = top;
pos = (395,708);
}
);
layerId = "2660E96A-9963-4076-AFCB-E451BC6EE103";
shapes = (
{
closed = 1;
nodes = (
(485,271,l),
(485,0,l),
(483,0,o),
(481,0,o),
(478,0,cs),
(320,0,o),
(272,294,o),
(272,428,c),
(272,574,o),
(309,711,o),
(374,711,cs),
(441,711,o),
(486,666,o),
(561,509,cs),
(621,384,l),
(641,384,l),
(701,660,l),
(644,685,o),
(535,723,o),
(425,723,cs),
(178,723,o),
(30,584,o),
(30,352,cs),
(30,120,o),
(198,-15,o),
(403,-15,cs),
(509,-15,o),
(648,21,o),
(730,127,c),
(730,306,l),
(365,306,l),
(365,296,l)
);
},
{
attr = {
gradient = {
colors = (
(
(200,255,255,255),
0
),
(
(150,140,250,255),
0.25119
),
(
(255,0,220,255),
0.49445
),
(
(255,130,170,255),
0.79625
),
(
(255,220,220,255),
1
)
);
end = (1.1273,1.0147);
start = (-0.05,-0.0163);
};
};
closed = 1;
nodes = (
(202,4,o),
(50,131,o),
(50,352,cs),
(50,535,o),
(142,655,o),
(309,691,c),
(273,656,o),
(252,541,o),
(252,428,cs),
(252,228,o),
(315,52,o),
(405,1,c)
);
},
{
attr = {
gradient = {
colors = (
(
(200,255,255,255),
0
),
(
(150,140,250,255),
0.24805
),
(
(255,0,220,255),
0.5431
),
(
(255,130,170,255),
0.79647
),
(
(255,220,220,255),
1
)
);
end = (1.1638,0.9833);
start = (-2.12,-0.0276);
};
};
closed = 1;
nodes = (
(505,286,l),
(710,286,l),
(710,134,l),
(662,74,o),
(594,35,o),
(505,16.437,c)
);
},
{
attr = {
gradient = {
colors = (
(
(200,255,255,255),
0
),
(
(150,140,250,255),
0.24805
),
(
(255,0,220,255),
0.5431
),
(
(255,130,170,255),
0.79647
),
(
(255,220,220,255),
1
)
);
end = (1.1638,0.9833);
start = (-2.12,-0.0276);
};
};
closed = 1;
nodes = (
(588,501,ls),
(545,594,o),
(491,683,o),
(456,702,c),
(540,697,o),
(624,670,o),
(678,648,c),
(628,415,l)
);
}
);
width = 760;
},
{
anchors = (
{
name = bottom;
pos = (831,0);
},
{
name = top;
pos = (771,708);
}
);
layerId = "DF54607F-DD82-41E6-B2E3-81CA6D0E5C47";
shapes = (
{
closed = 1;
nodes = (
(972,271,l),
(972,0,l),
(965,0,o),
(958,0,o),
(951,0,cs),
(630,0,o),
(562,275,o),
(562,408,c),
(562,554,o),
(608,711,o),
(743,711,cs),
(881,711,o),
(970,668,o),
(1120,518,cs),
(1254,384,l),
(1296,384,l),
(1460,660,l),
(1342,685,o),
(1076,723,o),
(848,723,cs),
(337,723,o),
(30,584,o),
(30,352,cs),
(30,120,o),
(378,-15,o),
(803,-15,cs),
(1022,-15,o),
(1322,21,o),
(1492,127,c),
(1492,306,l),
(724,306,l),
(724,296,l)
);
},
{
attr = {
gradient = {
colors = (
(
(200,255,255,255),
0
),
(
(150,140,250,255),
0.24579
),
(
(255,0,220,255),
0.46538
),
(
(255,130,170,255),
0.74692
),
(
(255,220,220,255),
1
)
);
end = (2.8424,1.3694);
start = (0.0298,-0.0204);
};
};
closed = 1;
nodes = (
(359,4,o),
(52,148,o),
(52,352,cs),
(52,537,o),
(260,659,o),
(632,692,c),
(564,631,o),
(540,514,o),
(540,408,cs),
(540,220,o),
(639,64,o),
(796,4,c)
);
},
{
attr = {
gradient = {
colors = (
(
(200,255,255,255),
0
),
(
(150,140,250,255),
0.24805
),
(
(255,0,220,255),
0.5431
),
(
(255,130,170,255),
0.79647
),
(
(255,220,220,255),
1
)
);
end = (4.1986,2.0765);
start = (-2.12,-0.0276);
};
};
closed = 1;
nodes = (
(994,284,l),
(1470,284,l),
(1470,139,l),
(1366,79,o),
(1196,34,o),
(994,15,c)
);
},
{
attr = {
gradient = {
colors = (
(
(200,255,255,255),
0
),
(
(150,140,250,255),
0.24805
),
(
(255,0,220,255),
0.5431
),
(
(255,130,170,255),
0.79647
),
(
(255,220,220,255),
1
)
);
end = (4.1986,2.0765);
start = (-2.12,-0.0276);
};
};
closed = 1;
nodes = (
(1139,536,ls),
(1055,622,o),
(1000,662,o),
(926,701,c),
(1095,696,o),
(1308,667,o),
(1425,645,c),
(1274,398,l)
);
}
);
width = 1522;
},
{
anchors = (
{
name = bottom;
pos = (394,0);
},
{
name = top;
pos = (378,708);
}
);
layerId = "A5088515-37FF-452F-BD44-18A7A5EF88F0";
shapes = (
{
closed = 1;
nodes = (
(608,281,l),
(608,48,l),
(529,15,o),
(457,0,o),
(394,0,cs),
(209,0,o),
(95,135,o),
(95,370,cs),
(95,567,o),
(211,708,o),
(378,708,cs),
(531,708,o),
(635,646,o),
(612,505,cs),
(592,384,l),
(608,384,l),
(655,616,l),
(580,687,o),
(498,723,o),
(378,723,cs),
(203,723,o),
(80,577,o),
(80,370,cs),
(80,128,o),
(195,-15,o),
(389,-15,cs),
(467,-15,o),
(557,9,o),
(623,47,c),
(623,306,l),
(498,306,l),
(498,296,l)
);
},
{
attr = {
gradient = {
colors = (
(
(200,255,255,255),
0
),
(
(150,140,250,255),
0.25119
),
(
(255,0,220,255),
0.49445
),
(
(255,130,170,255),
0.79625
),
(
(255,220,220,255),
1
)
);
end = (1.1273,1.0147);
start = (-0.05,-0.0163);
};
};
closed = 1;
nodes = (
(167,35,o),
(85,165,o),
(85,370,cs),
(85,517,o),
(148,632,o),
(247,683,c),
(150,630,o),
(90,515,o),
(90,370,cs),
(90,168,o),
(173,38,o),
(313,2,c)
);
},
{
attr = {
gradient = {
colors = (
(
(200,255,255,255),
0
),
(
(150,140,250,255),
0.24805
),
(
(255,0,220,255),
0.5431
),
(
(255,130,170,255),
0.79647
),
(
(255,220,220,255),
1
)
);
end = (1.1638,0.9833);
start = (-2.12,-0.0276);
};
};
closed = 1;
nodes = (
(613,301,l),
(618,301,l),
(618,51,l),
(616,50,o),
(615,50,o),
(613,49,c)
);
},
{
attr = {
gradient = {
colors = (
(
(200,255,255,255),
0
),
(
(150,140,250,255),
0.24805
),
(
(255,0,220,255),
0.5431
),
(
(255,130,170,255),
0.79647
),
(
(255,220,220,255),
1
)
);
end = (1.1638,0.9833);
start = (-2.12,-0.0276);
};
};
closed = 1;
nodes = (
(621,505,ls),
(637,601,o),
(594,670,o),
(500,699,c),
(556,683,o),
(603,655,o),
(647,614,c),
(603,394,l)
);
}
);
width = 735;
},
{
anchors = (
{
name = bottom;
pos = (558,0);
},
{
name = top;
pos = (558,708);
}
);
layerId = "35A90D60-3AD4-435C-9F8B-D1CA483F6F66";
shapes = (
{
closed = 1;
nodes = (
(939,281,l),
(939,48,l),
(814,15,o),
(699,0,o),
(597,0,cs),
(297,0,o),
(105,134,o),
(105,370,cs),
(105,568,o),
(298,708,o),
(564,708,cs),
(794,708,o),
(978,636,o),
(954,542,cs),
(914,384,l),
(930,384,l),
(1005,616,l),
(886,687,o),
(755,723,o),
(564,723,cs),
(286,723,o),
(90,577,o),
(90,370,cs),
(90,128,o),
(273,-15,o),
(582,-15,cs),
(719,-15,o),
(842,6,o),
(954,47,c),
(954,306,l),
(755,306,l),
(755,296,l)
);
},
{
attr = {
gradient = {
colors = (
(
(200,255,255,255),
0
),
(
(150,140,250,255),
0.24579
),
(
(255,0,220,255),
0.46538
),
(
(255,130,170,255),
0.74692
),
(
(255,220,220,255),
1
)
);
end = (2.8424,1.3694);
start = (0.0298,-0.0204);
};
};
closed = 1;
nodes = (
(223,38,o),
(95,168,o),
(95,370,cs),
(95,515,o),
(194,630,o),
(352,682,c),
(197,627,o),
(100,514,o),
(100,370,cs),
(100,169,o),
(236,41,o),
(457,3,c)
);
},
{
attr = {
gradient = {
colors = (
(
(200,255,255,255),
0
),
(
(150,140,250,255),
0.24805
),
(
(255,0,220,255),
0.5431
),
(
(255,130,170,255),
0.79647
),
(
(255,220,220,255),
1
)
);
end = (4.1986,2.0765);
start = (-2.12,-0.0276);
};
};
closed = 1;
nodes = (
(944,301,l),
(949,301,l),
(949,51,l),
(947,50,o),
(946,50,o),
(944,49,c)
);
},
{
attr = {
gradient = {
colors = (
(
(200,255,255,255),
0
),
(
(150,140,250,255),
0.24805
),
(
(255,0,220,255),
0.5431
),
(
(255,130,170,255),
0.79647
),
(
(255,220,220,255),
1
)
);
end = (4.1986,2.0765);
start = (-2.12,-0.0276);
};
};
closed = 1;
nodes = (
(964,542,ls),
(983,614,o),
(885,677,o),
(709,707,c),
(824,693,o),
(913,661,o),
(997,613,c),
(924,391,l)
);
}
);
width = 1095;
},
{
anchors = (
{
name = bottom;
pos = (394,0);
},
{
name = top;
pos = (378,708);
}
);
associatedMasterId = "A5088515-37FF-452F-BD44-18A7A5EF88F0";
attr = {
colorPalette = 0;
};
layerId = "066C1B6A-72C0-448E-B4A8-99C9D388CAE9";
name = "25 Jul 23 9:26 p.m.";
shapes = (
{
closed = 1;
nodes = (
(608,281,l),
(608,48,l),
(529,15,o),
(457,0,o),
(394,0,cs),
(209,0,o),
(95,135,o),
(95,370,cs),
(95,567,o),
(211,708,o),
(378,708,cs),
(531,708,o),
(635,646,o),
(612,505,cs),
(592,384,l),
(608,384,l),
(655,616,l),
(580,687,o),
(498,723,o),
(378,723,cs),
(203,723,o),
(80,577,o),
(80,370,cs),
(80,128,o),
(195,-15,o),
(389,-15,cs),
(467,-15,o),
(557,9,o),
(623,47,c),
(623,306,l),
(498,306,l),
(498,296,l)
);
}
);
width = 735;
},
{
anchors = (
{
name = bottom;
pos = (416,0);
},
{
name = top;
pos = (395,708);
}
);
associatedMasterId = "2660E96A-9963-4076-AFCB-E451BC6EE103";
attr = {
colorPalette = 0;
};
layerId = "374A0475-6E3A-4637-A780-2A75F4B655CA";
name = "25 Jul 23 9:26 p.m.";
shapes = (
{
closed = 1;
nodes = (
(485,271,l),
(485,0,l),
(483,0,o),
(481,0,o),
(478,0,cs),
(320,0,o),
(272,294,o),
(272,428,c),
(272,574,o),
(309,711,o),
(374,711,cs),
(441,711,o),
(486,666,o),
(561,509,cs),
(621,384,l),
(641,384,l),
(701,660,l),
(644,685,o),
(535,723,o),
(425,723,cs),
(178,723,o),
(30,584,o),
(30,352,cs),
(30,120,o),
(198,-15,o),
(403,-15,cs),
(509,-15,o),
(648,21,o),
(730,127,c),
(730,306,l),
(365,306,l),
(365,296,l)
);
}
);
width = 760;
},
{
anchors = (
{
name = bottom;
pos = (558,0);
},
{
name = top;
pos = (558,708);
}
);
associatedMasterId = "35A90D60-3AD4-435C-9F8B-D1CA483F6F66";
attr = {
colorPalette = 0;
};
layerId = "798FE6E0-8958-46E8-8C13-12E4B8144AC6";
name = "25 Jul 23 9:26 p.m.";
shapes = (
{
closed = 1;
nodes = (
(939,281,l),
(939,48,l),
(814,15,o),
(699,0,o),
(597,0,cs),
(297,0,o),
(105,134,o),
(105,370,cs),
(105,568,o),
(298,708,o),
(564,708,cs),
(794,708,o),
(978,636,o),
(954,542,cs),
(914,384,l),
(930,384,l),
(1005,616,l),
(886,687,o),
(755,723,o),
(564,723,cs),
(286,723,o),
(90,577,o),
(90,370,cs),
(90,128,o),
(273,-15,o),
(582,-15,cs),
(719,-15,o),
(842,6,o),
(954,47,c),
(954,306,l),
(755,306,l),
(755,296,l)
);
}
);
width = 1095;
},
{
anchors = (
{
name = bottom;
pos = (831,0);
},
{
name = top;
pos = (771,708);
}
);
associatedMasterId = "DF54607F-DD82-41E6-B2E3-81CA6D0E5C47";
attr = {
colorPalette = 0;
};
layerId = "CE9131A6-F4AC-4444-9220-E333BC766567";
name = "25 Jul 23 9:26 p.m.";
shapes = (
{
closed = 1;
nodes = (
(972,271,l),
(972,0,l),
(965,0,o),
(958,0,o),
(951,0,cs),
(630,0,o),
(562,275,o),
(562,408,c),
(562,554,o),
(608,711,o),
(743,711,cs),
(881,711,o),
(970,668,o),
(1120,518,cs),
(1254,384,l),
(1296,384,l),
(1460,660,l),
(1342,685,o),
(1076,723,o),
(848,723,cs),
(337,723,o),
(30,584,o),
(30,352,cs),
(30,120,o),
(378,-15,o),
(803,-15,cs),
(1022,-15,o),
(1322,21,o),
(1492,127,c),
(1492,306,l),
(724,306,l),
(724,296,l)
);
}
);
width = 1522;
},
{
anchors = (
{
name = bottom;
pos = (394,0);
},
{
name = top;
pos = (378,708);
}
);
associatedMasterId = "A5088515-37FF-452F-BD44-18A7A5EF88F0";
attr = {
colorPalette = 1;
};
layerId = "3E104D4A-4440-41EF-A116-FF5A9457E1A4";
name = "25 Jul 23 9:27 p.m.";
shapes = (
{
attr = {
gradient = {
colors = (
(
(200,255,255,255),
0
),
(
(150,140,250,255),
0.25119
),
(
(255,0,220,255),
0.49445
),
(
(255,130,170,255),
0.79625
),
(
(255,220,220,255),
1
)
);
end = (1.1273,1.0147);
start = (-0.05,-0.0163);
};
};
closed = 1;
nodes = (
(167,35,o),
(85,165,o),
(85,370,cs),
(85,517,o),
(148,632,o),
(247,683,c),
(150,630,o),
(90,515,o),
(90,370,cs),
(90,168,o),
(173,38,o),
(313,2,c)
);
},
{
attr = {
gradient = {
colors = (
(
(200,255,255,255),
0
),
(
(150,140,250,255),
0.24805
),
(
(255,0,220,255),
0.5431
),
(
(255,130,170,255),
0.79647
),
(
(255,220,220,255),
1
)
);
end = (1.1638,0.9833);
start = (-2.12,-0.0276);
};
};
closed = 1;
nodes = (
(613,301,l),
(618,301,l),
(618,51,l),
(616,50,o),
(615,50,o),
(613,49,c)
);
},
{
attr = {
gradient = {
colors = (
(
(200,255,255,255),
0
),
(
(150,140,250,255),
0.24805
),
(
(255,0,220,255),
0.5431
),
(
(255,130,170,255),
0.79647
),
(
(255,220,220,255),
1
)
);
end = (1.1638,0.9833);
start = (-2.12,-0.0276);
};
};
closed = 1;
nodes = (
(621,505,ls),
(637,601,o),
(594,670,o),
(500,699,c),
(556,683,o),
(603,655,o),
(647,614,c),
(603,394,l)
);
}
);
width = 735;
},
{
anchors = (
{
name = bottom;
pos = (416,0);
},
{
name = top;
pos = (395,708);
}
);
associatedMasterId = "2660E96A-9963-4076-AFCB-E451BC6EE103";
attr = {
colorPalette = 1;
};
layerId = "FC569404-C98E-4913-B326-1291F98190F1";
name = "25 Jul 23 9:27 p.m.";
shapes = (
{
attr = {
gradient = {
colors = (
(
(200,255,255,255),
0
),
(
(150,140,250,255),
0.25119
),
(
(255,0,220,255),
0.49445
),
(
(255,130,170,255),
0.79625
),
(
(255,220,220,255),
1
)
);
end = (1.1273,1.0147);
start = (-0.05,-0.0163);
};
};
closed = 1;
nodes = (
(202,4,o),
(50,131,o),
(50,352,cs),
(50,535,o),
(142,655,o),
(309,691,c),
(273,656,o),
(252,541,o),
(252,428,cs),
(252,228,o),
(315,52,o),
(405,1,c)
);
},
{
attr = {
gradient = {
colors = (
(
(200,255,255,255),
0
),
(
(150,140,250,255),
0.24805
),
(
(255,0,220,255),
0.5431
),
(
(255,130,170,255),
0.79647
),
(
(255,220,220,255),
1
)
);
end = (1.1638,0.9833);
start = (-2.12,-0.0276);
};
};
closed = 1;
nodes = (
(505,286,l),
(710,286,l),
(710,134,l),
(662,74,o),
(594,35,o),
(505,16.437,c)
);
},
{
attr = {
gradient = {
colors = (
(
(200,255,255,255),
0
),
(
(150,140,250,255),
0.24805
),
(
(255,0,220,255),
0.5431
),
(
(255,130,170,255),
0.79647
),
(
(255,220,220,255),
1
)
);
end = (1.1638,0.9833);
start = (-2.12,-0.0276);
};
};
closed = 1;
nodes = (
(588,501,ls),
(545,594,o),
(491,683,o),
(456,702,c),
(540,697,o),
(624,670,o),
(678,648,c),
(628,415,l)
);
}
);
width = 760;
},
{
anchors = (
{
name = bottom;
pos = (558,0);
},
{
name = top;
pos = (558,708);
}
);
associatedMasterId = "35A90D60-3AD4-435C-9F8B-D1CA483F6F66";
attr = {
colorPalette = 1;
};
layerId = "6BF22D10-98A0-4D89-BBA8-276AFEA7F5D5";
name = "25 Jul 23 9:27 p.m.";
shapes = (
{
attr = {
gradient = {
colors = (
(
(200,255,255,255),
0
),
(
(150,140,250,255),
0.24579
),
(
(255,0,220,255),
0.46538
),
(
(255,130,170,255),
0.74692
),
(
(255,220,220,255),
1
)
);
end = (2.8424,1.3694);
start = (0.0298,-0.0204);
};
};
closed = 1;
nodes = (
(223,38,o),
(95,168,o),
(95,370,cs),
(95,515,o),
(194,630,o),
(352,682,c),
(197,627,o),
(100,514,o),
(100,370,cs),
(100,169,o),
(236,41,o),
(457,3,c)
);
},
{
attr = {
gradient = {
colors = (
(
(200,255,255,255),
0
),
(
(150,140,250,255),
0.24805
),
(
(255,0,220,255),
0.5431
),
(
(255,130,170,255),
0.79647
),
(
(255,220,220,255),
1
)
);
end = (4.1986,2.0765);
start = (-2.12,-0.0276);
};
};
closed = 1;
nodes = (
(944,301,l),
(949,301,l),
(949,51,l),
(947,50,o),
(946,50,o),
(944,49,c)
);
},
{
attr = {
gradient = {
colors = (
(
(200,255,255,255),
0
),
(
(150,140,250,255),
0.24805
),
(
(255,0,220,255),
0.5431
),
(
(255,130,170,255),
0.79647
),
(
(255,220,220,255),
1
)
);
end = (4.1986,2.0765);
start = (-2.12,-0.0276);
};
};
closed = 1;
nodes = (
(964,542,ls),
(983,614,o),
(885,677,o),
(709,707,c),
(824,693,o),
(913,661,o),
(997,613,c),
(924,391,l)
);
}
);
width = 1095;
},
{
anchors = (
{
name = bottom;
pos = (831,0);
},
{
name = top;
pos = (771,708);
}
);
associatedMasterId = "DF54607F-DD82-41E6-B2E3-81CA6D0E5C47";
attr = {
colorPalette = 1;
};
layerId = "4A86F574-16A4-443B-ACCC-4CC283FA8ED9";
name = "25 Jul 23 9:27 p.m.";
shapes = (
{
attr = {
gradient = {
colors = (
(
(200,255,255,255),
0
),
(
(150,140,250,255),
0.24579
),
(
(255,0,220,255),
0.46538
),
(
(255,130,170,255),
0.74692
),
(
(255,220,220,255),
1
)
);
end = (2.8424,1.3694);
start = (0.0298,-0.0204);
};
};
closed = 1;
nodes = (
(359,4,o),
(52,148,o),
(52,352,cs),
(52,537,o),
(260,659,o),
(632,692,c),
(564,631,o),
(540,514,o),
(540,408,cs),
(540,220,o),
(639,64,o),
(796,4,c)
);
},
{
attr = {
gradient = {
colors = (
(
(200,255,255,255),
0
),
(
(150,140,250,255),
0.24805
),
(
(255,0,220,255),
0.5431
),
(
(255,130,170,255),
0.79647
),
(
(255,220,220,255),
1
)
);
end = (4.1986,2.0765);
start = (-2.12,-0.0276);
};
};
closed = 1;
nodes = (
(994,284,l),
(1470,284,l),
(1470,139,l),
(1366,79,o),
(1196,34,o),
(994,15,c)
);
},
{
attr = {
gradient = {
colors = (
(
(200,255,255,255),
0
),
(
(150,140,250,255),
0.24805
),
(
(255,0,220,255),
0.5431
),
(
(255,130,170,255),
0.79647
),
(
(255,220,220,255),
1
)
);
end = (4.1986,2.0765);
start = (-2.12,-0.0276);
};
};
closed = 1;
nodes = (
(1139,536,ls),
(1055,622,o),
(1000,662,o),
(926,701,c),
(1095,696,o),
(1308,667,o),
(1425,645,c),
(1274,398,l)
);
}
);
width = 1522;
}
);
unicode = 71;
},
{
color = 4;
glyphname = H;
kernLeft = HH;
kernRight = H;
lastChange = "2023-07-26 19:54:15 +0000";
layers = (
{
layerId = "2660E96A-9963-4076-AFCB-E451BC6EE103";
shapes = (
{
closed = 1;
nodes = (
(495,708,l),
(495,698,l),
(535,688,l),
(535,20,l),
(495,10,l),
(495,0,l),
(830,0,l),
(830,10,l),
(780,20,l),
(780,688,l),
(830,698,l),
(830,708,l)
);
},
{
closed = 1;
nodes = (
(20,708,l),
(20,698,l),
(70,688,l),
(70,20,l),
(20,10,l),
(20,0,l),
(355,0,l),
(355,10,l),
(315,20,l),
(315,688,l),
(355,698,l),
(355,708,l)
);
},
{
closed = 1;
nodes = (
(303,340,l),
(303,330,l),
(545,330,l),
(545,360,l)
);
},
{
attr = {
gradient = {
colors = (
(
(200,255,255,255),
0
),
(
(150,140,250,255),
0.24579
),
(
(255,0,220,255),
0.46538
),
(
(255,130,170,255),
0.74692
),
(
(255,220,220,255),
1
)
);
end = (3.3113,1.014);
start = (0.0298,-0.0204);
};
};
closed = 1;
nodes = (
(90,688,l),
(295,688,l),
(295,20,l),
(90,20,l)
);
},
{
attr = {
gradient = {
colors = (
(
(200,255,255,255),
0
),
(
(150,140,250,255),
0.24805
),
(
(255,0,220,255),
0.5431
),
(
(255,130,170,255),
0.79647
),
(
(255,220,220,255),
1
)
);
end = (1.1638,0.9833);
start = (-2.12,-0.0276);
};
};
closed = 1;
nodes = (
(555,688,l),
(760,688,l),
(760,20,l),
(555,20,l)
);
}
);
width = 850;
},
{
layerId = "DF54607F-DD82-41E6-B2E3-81CA6D0E5C47";
shapes = (
{
closed = 1;
nodes = (
(770,708,l),
(770,698,l),
(810,688,l),
(810,20,l),
(770,10,l),
(770,0,l),
(1380,0,l),
(1380,10,l),
(1330,20,l),
(1330,688,l),
(1380,698,l),
(1380,708,l)
);
},
{
closed = 1;
nodes = (
(20,708,l),
(20,698,l),
(70,688,l),
(70,20,l),
(20,10,l),
(20,0,l),
(630,0,l),
(630,10,l),
(590,20,l),
(590,688,l),
(630,698,l),
(630,708,l)
);
},
{
closed = 1;
nodes = (
(578,340,l),
(578,330,l),
(820,330,l),
(820,360,l)
);
},
{
attr = {
gradient = {
colors = (
(
(200,255,255,255),
0
),
(
(150,140,250,255),
0.24579
),
(
(255,0,220,255),
0.46538
),
(
(255,130,170,255),
0.74692
),
(
(255,220,220,255),
1
)
);
end = (4.2558,1.6237);
start = (0.0298,-0.0204);
};
};
closed = 1;
nodes = (
(90,688,l),
(570,688,l),
(570,20,l),
(90,20,l)
);
},
{
attr = {
gradient = {
colors = (
(
(200,255,255,255),
0
),
(
(150,140,250,255),
0.24805
),
(
(255,0,220,255),
0.5431
),
(
(255,130,170,255),
0.79647
),
(
(255,220,220,255),
1
)
);
end = (4.1986,2.0765);
start = (-2.12,-0.0276);
};
};
closed = 1;
nodes = (
(830,688,l),
(1310,688,l),
(1310,20,l),
(830,20,l)
);
}
);
width = 1400;
},
{
layerId = "A5088515-37FF-452F-BD44-18A7A5EF88F0";
shapes = (
{
closed = 1;
nodes = (
(545,708,l),
(545,698,l),
(615,683,l),
(615,25,l),
(545,10,l),
(545,0,l),
(700,0,l),
(700,10,l),
(630,25,l),
(630,683,l),
(700,698,l),
(700,708,l)
);
},
{
closed = 1;
nodes = (
(80,708,l),
(80,698,l),
(150,683,l),
(150,25,l),
(80,10,l),
(80,0,l),
(235,0,l),
(235,10,l),
(165,25,l),
(165,683,l),
(235,698,l),
(235,708,l)
);
},
{
closed = 1;
nodes = (
(159,342,l),
(159,332,l),
(620,332,l),
(620,348,l)
);
},
{
attr = {
gradient = {
colors = (
(
(200,255,255,255),
0
),
(
(150,140,250,255),
0.24579
),
(
(255,0,220,255),
0.46538
),
(
(255,130,170,255),
0.74692
),
(
(255,220,220,255),
1
)
);
end = (3.3113,1.014);
start = (-11.3494,-0.0615);
};
};
closed = 1;
nodes = (
(155,703,l),
(160,703,l),
(160,5,l),
(155,5,l)
);
},
{
attr = {
gradient = {
colors = (
(
(200,255,255,255),
0
),
(
(150,140,250,255),
0.24805
),
(
(255,0,220,255),
0.5431
),
(
(255,130,170,255),
0.79647
),
(
(255,220,220,255),
1
)
);
end = (1.1638,0.9833);
start = (-2.12,-0.0276);
};
};
closed = 1;
nodes = (
(620,703,l),
(625,703,l),
(625,5,l),
(620,5,l)
);
}
);
width = 780;
},
{
layerId = "35A90D60-3AD4-435C-9F8B-D1CA483F6F66";
shapes = (
{
closed = 1;
nodes = (
(836,708,l),
(836,693,l),
(945,683,l),
(945,25,l),
(836,10,l),
(836,0,l),
(1070,0,l),
(1070,10,l),
(960,25,l),
(960,683,l),
(1070,698,l),
(1070,708,l)
);
},
{
closed = 1;
nodes = (
(100,708,l),
(100,698,l),
(210,683,l),
(210,25,l),
(100,10,l),
(100,0,l),
(334,0,l),
(334,10,l),
(225,25,l),
(225,683,l),
(334,693,l),
(334,708,l)
);
},
{
closed = 1;
nodes = (
(217,342,l),
(217,332,l),
(948,332,l),
(948,348,l)
);
},
{
attr = {
gradient = {
colors = (
(
(200,255,255,255),
0
),
(
(150,140,250,255),
0.24579
),
(
(255,0,220,255),
0.46538
),
(
(255,130,170,255),
0.74692
),
(
(255,220,220,255),
1
)
);
end = (4.2558,1.6237);
start = (0.0298,-0.0204);
};
};
closed = 1;
nodes = (
(215,703,l),
(220,703,l),
(220,5,l),
(215,5,l)
);
},
{
attr = {
gradient = {
colors = (
(
(200,255,255,255),
0
),
(
(150,140,250,255),
0.24805
),
(
(255,0,220,255),
0.5431
),
(
(255,130,170,255),
0.79647
),
(
(255,220,220,255),
1
)
);
end = (4.1986,2.0765);
start = (-2.12,-0.0276);
};
};
closed = 1;
nodes = (
(950,703,l),
(955,703,l),
(955,5,l),
(950,5,l)
);
}
);
width = 1170;
},
{
associatedMasterId = "A5088515-37FF-452F-BD44-18A7A5EF88F0";
attr = {
colorPalette = 0;
};
layerId = "9FC22CF1-C3D1-4D6C-BFC0-D7BB8C8170D2";
name = "22 Jul 23 9:57 p.m.";
shapes = (
{
closed = 1;
nodes = (
(545,708,l),
(545,698,l),
(615,683,l),
(615,25,l),
(545,10,l),
(545,0,l),
(700,0,l),
(700,10,l),
(630,25,l),
(630,683,l),
(700,698,l),
(700,708,l)
);
},
{
closed = 1;
nodes = (
(80,708,l),
(80,698,l),
(150,683,l),
(150,25,l),
(80,10,l),
(80,0,l),
(235,0,l),
(235,10,l),
(165,25,l),
(165,683,l),
(235,698,l),
(235,708,l)
);
},
{
closed = 1;
nodes = (
(159,342,l),
(159,332,l),
(620,332,l),
(620,348,l)
);
}
);
width = 780;
},
{
associatedMasterId = "A5088515-37FF-452F-BD44-18A7A5EF88F0";
attr = {
colorPalette = 1;
};
layerId = "D08631ED-65CD-4D9A-A019-BE2A5133D453";
name = "22 Jul 23 9:57 p.m.";
shapes = (
{
attr = {
gradient = {
colors = (
(
(200,255,255,255),
0
),
(
(150,140,250,255),
0.24579
),
(
(255,0,220,255),
0.46538
),
(
(255,130,170,255),
0.74692
),
(
(255,220,220,255),
1
)
);
end = (3.3113,1.014);
start = (-11.3494,-0.0615);
};
};
closed = 1;
nodes = (
(155,703,l),
(160,703,l),
(160,5,l),
(155,5,l)
);
},
{
attr = {
gradient = {
colors = (
(
(200,255,255,255),
0
),
(
(150,140,250,255),
0.24805
),
(
(255,0,220,255),
0.5431
),
(
(255,130,170,255),
0.79647
),
(
(255,220,220,255),
1
)
);
end = (1.1638,0.9833);
start = (-2.12,-0.0276);
};
};
closed = 1;
nodes = (
(620,703,l),
(625,703,l),
(625,5,l),
(620,5,l)
);
}
);
width = 780;
},
{
associatedMasterId = "2660E96A-9963-4076-AFCB-E451BC6EE103";
attr = {
colorPalette = 0;
};
layerId = "21A12BC7-1E4E-41B6-86CF-A5B3030EDA0C";
name = "22 Jul 23 9:57 p.m.";
shapes = (
{
closed = 1;
nodes = (
(495,708,l),
(495,698,l),
(535,688,l),
(535,20,l),
(495,10,l),
(495,0,l),
(830,0,l),
(830,10,l),
(780,20,l),
(780,688,l),
(830,698,l),
(830,708,l)
);
},
{
closed = 1;
nodes = (
(20,708,l),
(20,698,l),
(70,688,l),
(70,20,l),
(20,10,l),
(20,0,l),
(355,0,l),
(355,10,l),
(315,20,l),
(315,688,l),
(355,698,l),
(355,708,l)
);
},
{
closed = 1;
nodes = (
(303,340,l),
(303,330,l),
(545,330,l),
(545,360,l)
);
}
);
width = 850;
},
{
associatedMasterId = "2660E96A-9963-4076-AFCB-E451BC6EE103";
attr = {
colorPalette = 1;
};
layerId = "437DDD54-25A5-433D-8A0B-E0A2B46C521F";
name = "22 Jul 23 9:57 p.m.";
shapes = (
{
attr = {
gradient = {
colors = (
(
(200,255,255,255),
0
),
(
(150,140,250,255),
0.24579
),
(
(255,0,220,255),
0.46538
),
(
(255,130,170,255),
0.74692
),
(
(255,220,220,255),
1
)
);
end = (3.3113,1.014);
start = (0.0298,-0.0204);
};
};
closed = 1;
nodes = (
(90,688,l),
(295,688,l),
(295,20,l),
(90,20,l)
);
},
{
attr = {
gradient = {
colors = (
(
(200,255,255,255),
0
),
(
(150,140,250,255),
0.24805
),
(
(255,0,220,255),
0.5431
),
(
(255,130,170,255),
0.79647
),
(
(255,220,220,255),
1
)
);
end = (1.1638,0.9833);
start = (-2.12,-0.0276);
};
};
closed = 1;
nodes = (
(555,688,l),
(760,688,l),
(760,20,l),
(555,20,l)
);
}
);
width = 850;
},
{
associatedMasterId = "35A90D60-3AD4-435C-9F8B-D1CA483F6F66";
attr = {
colorPalette = 0;
};
layerId = "1CF18AF6-4801-4E18-97FF-F2F0FF2F5B38";
name = "22 Jul 23 9:58 p.m.";
shapes = (
{
closed = 1;
nodes = (
(836,708,l),
(836,693,l),
(945,683,l),
(945,25,l),
(836,10,l),
(836,0,l),
(1070,0,l),
(1070,10,l),
(960,25,l),
(960,683,l),
(1070,698,l),
(1070,708,l)
);
},
{
closed = 1;
nodes = (
(100,708,l),
(100,698,l),
(210,683,l),
(210,25,l),
(100,10,l),
(100,0,l),
(334,0,l),
(334,10,l),
(225,25,l),
(225,683,l),
(334,693,l),
(334,708,l)
);
},
{
closed = 1;
nodes = (
(217,342,l),
(217,332,l),
(948,332,l),
(948,348,l)
);
}
);
width = 1170;
},
{
associatedMasterId = "35A90D60-3AD4-435C-9F8B-D1CA483F6F66";
attr = {
colorPalette = 1;
};
layerId = "768F75A4-E474-43C5-BAA1-D5211BDFF3A3";
name = "22 Jul 23 9:58 p.m.";
shapes = (
{
attr = {
gradient = {
colors = (
(
(200,255,255,255),
0
),
(
(150,140,250,255),
0.24579
),
(
(255,0,220,255),
0.46538
),
(
(255,130,170,255),
0.74692
),
(
(255,220,220,255),
1
)
);
end = (4.2558,1.6237);
start = (0.0298,-0.0204);
};
};
closed = 1;
nodes = (
(215,703,l),
(220,703,l),
(220,5,l),
(215,5,l)
);
},
{
attr = {
gradient = {
colors = (
(
(200,255,255,255),
0
),
(
(150,140,250,255),
0.24805
),
(
(255,0,220,255),
0.5431
),
(
(255,130,170,255),
0.79647
),
(
(255,220,220,255),
1
)
);
end = (4.1986,2.0765);
start = (-2.12,-0.0276);
};
};
closed = 1;
nodes = (
(950,703,l),
(955,703,l),
(955,5,l),
(950,5,l)
);
}
);
width = 1170;
},
{
associatedMasterId = "DF54607F-DD82-41E6-B2E3-81CA6D0E5C47";
attr = {
colorPalette = 0;
};
layerId = "1B5FB155-4B0C-4C31-8965-A7B4598466BE";
name = "22 Jul 23 9:58 p.m.";
shapes = (
{
closed = 1;
nodes = (
(770,708,l),
(770,698,l),
(810,688,l),
(810,20,l),
(770,10,l),
(770,0,l),
(1380,0,l),
(1380,10,l),
(1330,20,l),
(1330,688,l),
(1380,698,l),
(1380,708,l)
);
},
{
closed = 1;
nodes = (
(20,708,l),
(20,698,l),
(70,688,l),
(70,20,l),
(20,10,l),
(20,0,l),
(630,0,l),
(630,10,l),
(590,20,l),
(590,688,l),
(630,698,l),
(630,708,l)
);
},
{
closed = 1;
nodes = (
(578,340,l),
(578,330,l),
(820,330,l),
(820,360,l)
);
}
);
width = 1400;
},
{
associatedMasterId = "DF54607F-DD82-41E6-B2E3-81CA6D0E5C47";
attr = {
colorPalette = 1;
};
layerId = "6612908E-83EE-41AD-9F00-4D3EC04219E8";
name = "22 Jul 23 9:58 p.m.";
shapes = (
{
attr = {
gradient = {
colors = (
(
(200,255,255,255),
0
),
(
(150,140,250,255),
0.24579
),
(
(255,0,220,255),
0.46538
),
(
(255,130,170,255),
0.74692
),
(
(255,220,220,255),
1
)
);
end = (4.2558,1.6237);
start = (0.0298,-0.0204);
};
};
closed = 1;
nodes = (
(90,688,l),
(570,688,l),
(570,20,l),
(90,20,l)
);
},
{
attr = {
gradient = {
colors = (
(
(200,255,255,255),
0
),
(
(150,140,250,255),
0.24805
),
(
(255,0,220,255),
0.5431
),
(
(255,130,170,255),
0.79647
),
(
(255,220,220,255),
1
)
);
end = (4.1986,2.0765);
start = (-2.12,-0.0276);
};
};
closed = 1;
nodes = (
(830,688,l),
(1310,688,l),
(1310,20,l),
(830,20,l)
);
}
);
width = 1400;
}
);
unicode = 72;
},
{
color = 5;
glyphname = Hbar;
kernLeft = HH;
kernRight = H;
lastChange = "2023-02-19 07:03:36 +0000";
layers = (
{
layerId = "DF54607F-DD82-41E6-B2E3-81CA6D0E5C47";
shapes = (
{
closed = 1;
nodes = (
(9,523,l),
(1390,523,l),
(1390,538,l),
(9,538,l)
);
},
{
ref = H;
}
);
width = 1400;
},
{
layerId = "A5088515-37FF-452F-BD44-18A7A5EF88F0";
shapes = (
{
closed = 1;
nodes = (
(60,523,l),
(720,523,l),
(720,538,l),
(60,538,l)
);
},
{
ref = H;
}
);
width = 780;
},
{
layerId = "2660E96A-9963-4076-AFCB-E451BC6EE103";
shapes = (
{
closed = 1;
nodes = (
(9,523,l),
(840,523,l),
(840,538,l),
(9,538,l)
);
},
{
ref = H;
}
);
width = 850;
},
{
layerId = "35A90D60-3AD4-435C-9F8B-D1CA483F6F66";
shapes = (
{
closed = 1;
nodes = (
(60,523,l),
(1110,523,l),
(1110,538,l),
(60,538,l)
);
},
{
ref = H;
}
);
width = 1170;
}
);
unicode = 294;
},
{
color = 4;
glyphname = I;
kernLeft = HH;
kernRight = H;
lastChange = "2023-07-26 04:18:02 +0000";
layers = (
{
anchors = (
{
name = bottom;
pos = (158,0);
},
{
name = ogonek;
pos = (230,10);
},
{
name = top;
pos = (158,708);
},
{
name = topleft;
pos = (20,708);
}
);
layerId = "A5088515-37FF-452F-BD44-18A7A5EF88F0";
shapes = (
{
closed = 1;
nodes = (
(80,708,l),
(80,698,l),
(150,683,l),
(150,25,l),
(80,10,l),
(80,0,l),
(235,0,l),
(235,10,l),
(165,25,l),
(165,683,l),
(235,698,l),
(235,708,l)
);
},
{
attr = {
gradient = {
colors = (
(
(200,255,255,255),
0
),
(
(150,140,250,255),
0.25119
),
(
(255,0,220,255),
0.49445
),
(
(255,130,170,255),
0.79625
),
(
(255,220,220,255),
1
)
);
end = (1.1273,1.0147);
start = (-0.05,-0.0163);
};
};
closed = 1;
nodes = (
(155,703,l),
(160,703,l),
(160,5,l),
(155,5,l)
);
}
);
width = 315;
},
{
anchors = (
{
name = bottom;
pos = (158,0);
},
{
name = ogonek;
pos = (230,10);
},
{
name = top;
pos = (158,708);
},
{
name = topleft;
pos = (20,708);
}
);
associatedMasterId = "A5088515-37FF-452F-BD44-18A7A5EF88F0";
attr = {
colorPalette = 0;
};
layerId = "54689FCD-37CF-4C0F-A9B8-D5BA57656DE7";
name = "22 Jul 23 9:26 p.m.";
shapes = (
{
closed = 1;
nodes = (
(80,708,l),
(80,698,l),
(150,683,l),
(150,25,l),
(80,10,l),
(80,0,l),
(235,0,l),
(235,10,l),
(165,25,l),
(165,683,l),
(235,698,l),
(235,708,l)
);
}
);
width = 315;
},
{
anchors = (
{
name = bottom;
pos = (158,0);
},
{
name = ogonek;
pos = (230,10);
},
{
name = top;
pos = (158,708);
},
{
name = topleft;
pos = (20,708);
}
);
associatedMasterId = "A5088515-37FF-452F-BD44-18A7A5EF88F0";
attr = {
colorPalette = 1;
};
layerId = "51122504-24E6-4B5E-8182-AB5546D3B0DD";
name = "22 Jul 23 9:26 p.m.";
shapes = (
{
attr = {
gradient = {
colors = (
(
(200,255,255,255),
0
),
(
(150,140,250,255),
0.25119
),
(
(255,0,220,255),
0.49445
),
(
(255,130,170,255),
0.79625
),
(
(255,220,220,255),
1
)
);
end = (1.1273,1.0147);
start = (-0.05,-0.0163);
};
};
closed = 1;
nodes = (
(155,703,l),
(160,703,l),
(160,5,l),
(155,5,l)
);
}
);
width = 315;
},
{
anchors = (
{
name = bottom;
pos = (193,0);
},
{
name = ogonek;
pos = (360,10);
},
{
name = top;
pos = (193,708);
},
{
name = topleft;
pos = (20,708);
}
);
layerId = "2660E96A-9963-4076-AFCB-E451BC6EE103";
shapes = (
{
closed = 1;
nodes = (
(20,708,l),
(20,698,l),
(70,688,l),
(70,20,l),
(20,10,l),
(20,0,l),
(365,0,l),
(365,10,l),
(315,20,l),
(315,688,l),
(365,698,l),
(365,708,l)
);
},
{
attr = {
gradient = {
colors = (
(
(200,255,255,255),
0
),
(
(150,140,250,255),
0.25119
),
(
(255,0,220,255),
0.49445
),
(
(255,130,170,255),
0.79625
),
(
(255,220,220,255),
1
)
);
end = (1.1273,1.0147);
start = (-0.05,-0.0163);
};
};
closed = 1;
nodes = (
(90,688,l),
(295,688,l),
(295,20,l),
(90,20,l)
);
}
);
width = 385;
},
{
anchors = (
{
name = bottom;
pos = (193,0);
},
{
name = ogonek;
pos = (360,10);
},
{
name = top;
pos = (193,708);
},
{
name = topleft;
pos = (20,708);
}
);
associatedMasterId = "2660E96A-9963-4076-AFCB-E451BC6EE103";
attr = {
colorPalette = 0;
};
layerId = "5C792369-4BA6-4E4F-9A70-600A4A6815F1";
name = "22 Jul 23 9:26 p.m.";
shapes = (
{
closed = 1;
nodes = (
(20,708,l),
(20,698,l),
(70,688,l),
(70,20,l),
(20,10,l),
(20,0,l),
(365,0,l),
(365,10,l),
(315,20,l),
(315,688,l),
(365,698,l),
(365,708,l)
);
}
);
width = 385;
},
{
anchors = (
{
name = bottom;
pos = (193,0);
},
{
name = ogonek;
pos = (360,10);
},
{
name = top;
pos = (193,708);
},
{
name = topleft;
pos = (20,708);
}
);
associatedMasterId = "2660E96A-9963-4076-AFCB-E451BC6EE103";
attr = {
colorPalette = 1;
};
layerId = "B6970370-ADA6-4A09-B96E-DA2D1962A4E2";
name = "22 Jul 23 9:26 p.m.";
shapes = (
{
attr = {
gradient = {
colors = (
(
(200,255,255,255),
0
),
(
(150,140,250,255),
0.25119
),
(
(255,0,220,255),
0.49445
),
(
(255,130,170,255),
0.79625
),
(
(255,220,220,255),
1
)
);
end = (1.1273,1.0147);
start = (-0.05,-0.0163);
};
};
closed = 1;
nodes = (
(90,688,l),
(295,688,l),
(295,20,l),
(90,20,l)
);
}
);
width = 385;
},
{
anchors = (
{
name = bottom;
pos = (217,0);
},
{
name = ogonek;
pos = (324,10);
},
{
name = top;
pos = (217,708);
},
{
name = topleft;
pos = (20,708);
}
);
layerId = "35A90D60-3AD4-435C-9F8B-D1CA483F6F66";
shapes = (
{
closed = 1;
nodes = (
(100,708,l),
(100,698,l),
(209,683,l),
(209,25,l),
(100,10,l),
(100,0,l),
(334,0,l),
(334,10,l),
(224,25,l),
(224,683,l),
(334,698,l),
(334,708,l)
);
},
{
attr = {
gradient = {
colors = (
(
(200,255,255,255),
0
),
(
(150,140,250,255),
0.24579
),
(
(255,0,220,255),
0.46538
),
(
(255,130,170,255),
0.74692
),
(
(255,220,220,255),
1
)
);
end = (2.8424,1.3694);
start = (0.0298,-0.0204);
};
};
closed = 1;
nodes = (
(214,703,l),
(219,703,l),
(219,5,l),
(214,5,l)
);
}
);
width = 434;
},
{
anchors = (
{
name = bottom;
pos = (217,0);
},
{
name = ogonek;
pos = (324,10);
},
{
name = top;
pos = (217,708);
},
{
name = topleft;
pos = (20,708);
}
);
associatedMasterId = "35A90D60-3AD4-435C-9F8B-D1CA483F6F66";
attr = {
colorPalette = 0;
};
layerId = "156E43A7-FC29-4666-942B-40296DE2691B";
name = "22 Jul 23 9:26 p.m.";
shapes = (
{
closed = 1;
nodes = (
(100,708,l),
(100,698,l),
(209,683,l),
(209,25,l),
(100,10,l),
(100,0,l),
(334,0,l),
(334,10,l),
(224,25,l),
(224,683,l),
(334,698,l),
(334,708,l)
);
}
);
width = 434;
},
{
anchors = (
{
name = bottom;
pos = (217,0);
},
{
name = ogonek;
pos = (324,10);
},
{
name = top;
pos = (217,708);
},
{
name = topleft;
pos = (20,708);
}
);
associatedMasterId = "35A90D60-3AD4-435C-9F8B-D1CA483F6F66";
attr = {
colorPalette = 1;
};
layerId = "7AAAAD94-07D9-426C-903C-D6CBD0905808";
name = "22 Jul 23 9:26 p.m.";
shapes = (
{
attr = {
gradient = {
colors = (
(
(200,255,255,255),
0
),
(
(150,140,250,255),
0.24579
),
(
(255,0,220,255),
0.46538
),
(
(255,130,170,255),
0.74692
),
(
(255,220,220,255),
1
)
);
end = (2.8424,1.3694);
start = (0.0298,-0.0204);
};
};
closed = 1;
nodes = (
(214,703,l),
(219,703,l),
(219,5,l),
(214,5,l)
);
}
);
width = 434;
},
{
anchors = (
{
name = bottom;
pos = (330,0);
},
{
name = ogonek;
pos = (635,10);
},
{
name = top;
pos = (330,708);
},
{
name = topleft;
pos = (20,708);
}
);
layerId = "DF54607F-DD82-41E6-B2E3-81CA6D0E5C47";
shapes = (
{
closed = 1;
nodes = (
(20,708,l),
(20,698,l),
(70,688,l),
(70,20,l),
(20,10,l),
(20,0,l),
(640,0,l),
(640,10,l),
(590,20,l),
(590,688,l),
(640,698,l),
(640,708,l)
);
},
{
attr = {
gradient = {
colors = (
(
(200,255,255,255),
0
),
(
(150,140,250,255),
0.24579
),
(
(255,0,220,255),
0.46538
),
(
(255,130,170,255),
0.74692
),
(
(255,220,220,255),
1
)
);
end = (2.8424,1.3694);
start = (0.0298,-0.0204);
};
};
closed = 1;
nodes = (
(90,688,l),
(570,688,l),
(570,20,l),
(90,20,l)
);
}
);
width = 660;
},
{
anchors = (
{
name = bottom;
pos = (330,0);
},
{
name = ogonek;
pos = (635,10);
},
{
name = top;
pos = (330,708);
},
{
name = topleft;
pos = (20,708);
}
);
associatedMasterId = "DF54607F-DD82-41E6-B2E3-81CA6D0E5C47";
attr = {
colorPalette = 0;
};
layerId = "E93562F0-30CA-4274-B7F4-F74528CFBE20";
name = "22 Jul 23 9:26 p.m.";
shapes = (
{
closed = 1;
nodes = (
(20,708,l),
(20,698,l),
(70,688,l),
(70,20,l),
(20,10,l),
(20,0,l),
(640,0,l),
(640,10,l),
(590,20,l),
(590,688,l),
(640,698,l),
(640,708,l)
);
}
);
width = 660;
},
{
anchors = (
{
name = bottom;
pos = (330,0);
},
{
name = ogonek;
pos = (635,10);
},
{
name = top;
pos = (330,708);
},
{
name = topleft;
pos = (20,708);
}
);
associatedMasterId = "DF54607F-DD82-41E6-B2E3-81CA6D0E5C47";
attr = {
colorPalette = 1;
};
layerId = "732852B9-AAB7-4F65-AAA5-9C5678609641";
name = "22 Jul 23 9:26 p.m.";
shapes = (
{
attr = {
gradient = {
colors = (
(
(200,255,255,255),
0
),
(
(150,140,250,255),
0.24579
),
(
(255,0,220,255),
0.46538
),
(
(255,130,170,255),
0.74692
),
(
(255,220,220,255),
1
)
);
end = (2.8424,1.3694);
start = (0.0298,-0.0204);
};
};
closed = 1;
nodes = (
(90,688,l),
(570,688,l),
(570,20,l),
(90,20,l)
);
}
);
width = 660;
}
);
unicode = 73;
},
{
color = 4;
glyphname = J;
kernLeft = J;
kernRight = JJ;
lastChange = "2023-07-26 17:11:49 +0000";
layers = (
{
layerId = "2660E96A-9963-4076-AFCB-E451BC6EE103";
shapes = (
{
closed = 1;
nodes = (
(449,-15,o),
(537,27,o),
(537,225,c),
(537,708,l),
(202,708,l),
(202,698,l),
(292,688,l),
(292,262,l),
(316,28,o),
(253,0,o),
(191,0,cs,{
name = "❌";
}),
(152,0,o),
(116,16,o),
(116,28,cs),
(116,66,o),
(248,60,o),
(248,154,cs),
(248,195,o),
(202,223,o),
(144,223,cs),
(76,223,o),
(1,196,o),
(1,121,cs),
(1,36,o),
(102,-15,o),
(272,-15,c)
);
},
{
closed = 1;
nodes = (
(46,51,o),
(21,81,o),
(21,121,cs),
(21,182,o),
(79,203,o),
(144,203,cs),
(196,203,o),
(228,184,o),
(228,154,cs),
(228,131,o),
(218,116,o),
(193,98,cs),
(178,90,o),
(161,82,o),
(144,76,cs),
(109,63,o),
(96,50,o),
(96,26,c)
);
},
{
closed = 1;
nodes = (
(304,36,o),
(328,106,o),
(312,263,c),
(312,688,l),
(517,688,l),
(517,225,ls),
(517,46,o),
(444,5,o),
(267,5,c)
);
}
);
width = 597;
},
{
layerId = "DF54607F-DD82-41E6-B2E3-81CA6D0E5C47";
shapes = (
{
closed = 1;
nodes = (
(901,-15,o),
(1088,34,o),
(1088,225,c),
(1088,708,l),
(478,708,l),
(478,698,l),
(568,688,l),
(568,262,l),
(599,28,o),
(536,0,o),
(404,0,cs),
(321,0,o),
(245,16,o),
(245,28,cs),
(245,64,o),
(525,63,o),
(525,154,cs),
(525,195,o),
(427,223,o),
(304,223,cs),
(160,223,o),
(1,196,o),
(1,121,cs),
(1,36,o),
(215,-15,o),
(526,-15,c)
);
},
{
closed = 1;
nodes = (
(96,44,o),
(21,78,o),
(21,121,cs),
(21,179,o),
(162,203,o),
(304,203,cs),
(424,203,o),
(505,180,o),
(505,154,cs),
(505,123,o),
(454,106,o),
(387,91,cs),
(368,87,o),
(349,83,o),
(331,80,cs),
(248,63,o),
(220,48,o),
(220,19,c)
);
},
{
closed = 1;
nodes = (
(586,37,o),
(608,107,o),
(588,263,c),
(588,688,l),
(1068,688,l),
(1068,225,ls),
(1068,51,o),
(902,5,o),
(533,5,c)
);
}
);
width = 1148;
},
{
layerId = "A5088515-37FF-452F-BD44-18A7A5EF88F0";
shapes = (
{
closed = 1;
nodes = (
(278,-15,o),
(325,63,o),
(315,222,c),
(315,708,l),
(200,708,l),
(200,698,l),
(300,683,l),
(300,222,l),
(310,73,o),
(268,0,o),
(179,0,cs),
(97,0,o),
(62,61,o),
(62,70,cs),
(62,132,o),
(167,72,o),
(167,154,cs),
(167,183,o),
(137,195,o),
(110,195,cs),
(63,195,o),
(45,160,o),
(45,119,cs),
(45,66,o),
(89,-15,o),
(179,-15,cs)
);
},
{
closed = 1;
nodes = (
(53,92,o),
(52,106,o),
(52,119,cs),
(52,159,o),
(66,188,o),
(110,188,cs),
(139,188,o),
(160,174,o),
(160,154,cs),
(160,132,o),
(153,120,o),
(137,115,cs),
(128,112,o),
(115,110,o),
(97,108,cs),
(73,106,o),
(58,94,o),
(58,78,c)
);
},
{
closed = 1;
nodes = (
(290,41,o),
(312,110,o),
(305,222,c),
(305,703,l),
(310,703,l),
(310,222,l),
(317,110,o),
(297,41,o),
(244,10,c)
);
}
);
width = 396;
},
{
layerId = "35A90D60-3AD4-435C-9F8B-D1CA483F6F66";
shapes = (
{
closed = 1;
nodes = (
(563,-15,o),
(638,63,o),
(626,222,c),
(626,708,l),
(393,708,l),
(393,698,l),
(611,683,l),
(611,222,l),
(622,73,o),
(542,0,o),
(347,0,cs),
(177,0,o),
(102,61,o),
(102,70,cs),
(102,133,o),
(311,68,o),
(311,154,cs),
(311,183,o),
(255,195,o),
(197,195,cs),
(94,195,o),
(65,160,o),
(65,119,cs),
(65,66,o),
(161,-15,o),
(347,-15,cs)
);
},
{
closed = 1;
nodes = (
(83,81,o),
(72,101,o),
(72,119,cs),
(72,158,o),
(96,188,o),
(197,188,cs),
(254,188,o),
(304,179,o),
(304,154,cs),
(304,135,o),
(289,122,o),
(261,116,cs),
(241,112,o),
(217,110,o),
(184,109,cs),
(123,107,o),
(96,96,o),
(96,72,c)
);
},
{
closed = 1;
nodes = (
(581,40,o),
(624,109,o),
(616,222,c),
(616,703,l),
(621,703,l),
(621,222,l),
(630,109,o),
(595,40,o),
(487,10,c)
);
}
);
width = 757;
},
{
associatedMasterId = "DF54607F-DD82-41E6-B2E3-81CA6D0E5C47";
attr = {
colorPalette = 0;
};
layerId = "A8353AEA-6184-42B3-9F45-498F6B61528A";
name = "26 Jul 23 10:04 a.m.";
shapes = (
{
closed = 1;
nodes = (
(901,-15,o),
(1088,34,o),
(1088,225,c),
(1088,708,l),
(478,708,l),
(478,698,l),
(568,688,l),
(568,262,l),
(599,28,o),
(536,0,o),
(404,0,cs),
(321,0,o),
(245,16,o),
(245,28,cs),
(245,64,o),
(525,63,o),
(525,154,cs),
(525,195,o),
(427,223,o),
(304,223,cs),
(160,223,o),
(1,196,o),
(1,121,cs),
(1,36,o),
(215,-15,o),
(526,-15,c)
);
}
);
width = 1148;
},
{
associatedMasterId = "35A90D60-3AD4-435C-9F8B-D1CA483F6F66";
attr = {
colorPalette = 0;
};
layerId = "A6616CA6-2D74-43C3-A9A4-EC57B668755A";
name = "26 Jul 23 10:04 a.m.";
shapes = (
{
closed = 1;
nodes = (
(563,-15,o),
(638,63,o),
(626,222,c),
(626,708,l),
(393,708,l),
(393,698,l),
(611,683,l),
(611,222,l),
(622,73,o),
(542,0,o),
(347,0,cs),
(177,0,o),
(102,61,o),
(102,70,cs),
(102,133,o),
(311,68,o),
(311,154,cs),
(311,183,o),
(255,195,o),
(197,195,cs),
(94,195,o),
(65,160,o),
(65,119,cs),
(65,66,o),
(161,-15,o),
(347,-15,cs)
);
}
);
width = 757;
},
{
associatedMasterId = "2660E96A-9963-4076-AFCB-E451BC6EE103";
attr = {
colorPalette = 0;
};
layerId = "A59FD8E4-4155-44E2-9B0B-814D3D5F89F1";
name = "26 Jul 23 10:04 a.m.";
shapes = (
{
closed = 1;
nodes = (
(449,-15,o),
(537,27,o),
(537,225,c),
(537,708,l),
(202,708,l),
(202,698,l),
(292,688,l),
(292,262,l),
(316,28,o),
(253,0,o),
(191,0,cs,{
name = "❌";
}),
(152,0,o),
(116,16,o),
(116,28,cs),
(116,66,o),
(248,60,o),
(248,154,cs),
(248,195,o),
(202,223,o),
(144,223,cs),
(76,223,o),
(1,196,o),
(1,121,cs),
(1,36,o),
(102,-15,o),
(272,-15,c)
);
}
);
width = 597;
},
{
associatedMasterId = "A5088515-37FF-452F-BD44-18A7A5EF88F0";
attr = {
colorPalette = 0;
};
layerId = "42289567-A40F-4EDB-9E7B-CC77CBA12809";
name = "26 Jul 23 10:04 a.m.";
shapes = (
{
closed = 1;
nodes = (
(278,-15,o),
(325,63,o),
(315,222,c),
(315,708,l),
(200,708,l),
(200,698,l),
(300,683,l),
(300,222,l),
(310,73,o),
(268,0,o),
(179,0,cs),
(97,0,o),
(62,61,o),
(62,70,cs),
(62,132,o),
(167,72,o),
(167,154,cs),
(167,183,o),
(137,195,o),
(110,195,cs),
(63,195,o),
(45,160,o),
(45,119,cs),
(45,66,o),
(89,-15,o),
(179,-15,cs)
);
}
);
width = 396;
},
{
associatedMasterId = "A5088515-37FF-452F-BD44-18A7A5EF88F0";
attr = {
colorPalette = 1;
};
layerId = "C0BAD876-97D3-4C21-B863-7A04FC1D3A91";
name = "26 Jul 23 10:11 a.m.";
shapes = (
{
closed = 1;
nodes = (
(53,92,o),
(52,106,o),
(52,119,cs),
(52,159,o),
(66,188,o),
(110,188,cs),
(139,188,o),
(160,174,o),
(160,154,cs),
(160,132,o),
(153,120,o),
(137,115,cs),
(128,112,o),
(115,110,o),
(97,108,cs),
(73,106,o),
(58,94,o),
(58,78,c)
);
},
{
closed = 1;
nodes = (
(290,41,o),
(312,110,o),
(305,222,c),
(305,703,l),
(310,703,l),
(310,222,l),
(317,110,o),
(297,41,o),
(244,10,c)
);
}
);
width = 396;
},
{
associatedMasterId = "2660E96A-9963-4076-AFCB-E451BC6EE103";
attr = {
colorPalette = 1;
};
layerId = "C897B1A5-269E-47F5-9767-C6459F3B6EF8";
name = "26 Jul 23 10:11 a.m.";
shapes = (
{
closed = 1;
nodes = (
(46,51,o),
(21,81,o),
(21,121,cs),
(21,182,o),
(79,203,o),
(144,203,cs),
(196,203,o),
(228,184,o),
(228,154,cs),
(228,131,o),
(218,116,o),
(193,98,cs),
(178,90,o),
(161,82,o),
(144,76,cs),
(109,63,o),
(96,50,o),
(96,26,c)
);
},
{
closed = 1;
nodes = (
(304,36,o),
(328,106,o),
(312,263,c),
(312,688,l),
(517,688,l),
(517,225,ls),
(517,46,o),
(444,5,o),
(267,5,c)
);
}
);
width = 597;
},
{
associatedMasterId = "35A90D60-3AD4-435C-9F8B-D1CA483F6F66";
attr = {
colorPalette = 1;
};
layerId = "9801E5DD-211F-4C48-A630-531C379F1C63";
name = "26 Jul 23 10:11 a.m.";
shapes = (
{
closed = 1;
nodes = (
(83,81,o),
(72,101,o),
(72,119,cs),
(72,158,o),
(96,188,o),
(197,188,cs),
(254,188,o),
(304,179,o),
(304,154,cs),
(304,135,o),
(289,122,o),
(261,116,cs),
(241,112,o),
(217,110,o),
(184,109,cs),
(123,107,o),
(96,96,o),
(96,72,c)
);
},
{
closed = 1;
nodes = (
(581,40,o),
(624,109,o),
(616,222,c),
(616,703,l),
(621,703,l),
(621,222,l),
(630,109,o),
(595,40,o),
(487,10,c)
);
}
);
width = 757;
},
{
associatedMasterId = "DF54607F-DD82-41E6-B2E3-81CA6D0E5C47";
attr = {
colorPalette = 1;
};
layerId = "3BC50AF7-0AE1-4AC4-A691-E9F8208844DF";
name = "26 Jul 23 10:11 a.m.";
shapes = (
{
closed = 1;
nodes = (
(96,44,o),
(21,78,o),
(21,121,cs),
(21,179,o),
(162,203,o),
(304,203,cs),
(424,203,o),
(505,180,o),
(505,154,cs),
(505,123,o),
(454,106,o),
(387,91,cs),
(368,87,o),
(349,83,o),
(331,80,cs),
(248,63,o),
(220,48,o),
(220,19,c)
);
},
{
closed = 1;
nodes = (
(586,37,o),
(608,107,o),
(588,263,c),
(588,688,l),
(1068,688,l),
(1068,225,ls),
(1068,51,o),
(902,5,o),
(533,5,c)
);
}
);
width = 1148;
}
);
unicode = 74;
},
{
color = 7;
glyphname = K;
kernLeft = HH;
kernRight = K;
lastChange = "2023-07-26 21:05:26 +0000";
layers = (
{
anchors = (
{
name = bottom;
pos = (412,0);
},
{
name = top;
pos = (382,708);
}
);
layerId = "2660E96A-9963-4076-AFCB-E451BC6EE103";
shapes = (
{
closed = 1;
nodes = (
(644,-15,o),
(698,-14,o),
(745,22,c),
(745,32,l),
(739,32,o),
(733,34,o),
(727,38,cs),
(692,61,o),
(667,99,o),
(629,189,cs),
(578,307,o),
(509,346,o),
(351,346,c),
(351,351,l),
(397,351,o),
(505,395,o),
(588,471,cs),
(650,527,o),
(699,601,o),
(699,688,c),
(749,698,l),
(749,708,l),
(395,708,l),
(395,698,l),
(452,698,o),
(477,661,o),
(477,611,cs),
(477,571,o),
(464,522,o),
(442,478,cs),
(416,424,o),
(379,378,o),
(339,364,cs),
(331,361,o),
(323,360,o),
(315,360,c),
(315,708,l),
(20,708,l),
(20,698,l),
(70,688,l),
(70,20,l),
(20,10,l),
(20,0,l),
(365,0,l),
(365,10,l),
(315,20,l),
(315,346,l),
(332,346,l),
(369,218,o),
(405,130,o),
(439,78,cs),
(486,8,o),
(527,-15,o),
(603,-15,cs)
);
},
{
closed = 1;
nodes = (
(679,688,l),
(679,607,o),
(635,540,o),
(575,486,cs),
(517,433,o),
(450,397,o),
(400,381,c),
(424,404,o),
(444,436,o),
(460,469,cs),
(483,515,o),
(497,568,o),
(497,611,cs),
(497,641,o),
(489,668,o),
(471,688,c)
);
},
{
closed = 1;
nodes = (
(365,326,l),
(503,326,o),
(565,288,o),
(611,181,cs),
(639,110,o),
(669,61,o),
(701,33,cs),
(705,30,o),
(708,27,o),
(711,24,c),
(686,11,o),
(650,5,o),
(603,5,cs),
(540,5,o),
(495,31,o),
(456,89,cs),
(423,139,o),
(394,211,o),
(359,326,c)
);
},
{
closed = 1;
nodes = (
(90,688,l),
(295,688,l),
(295,20,l),
(90,20,l)
);
}
);
width = 764;
},
{
anchors = (
{
name = bottom;
pos = (765,0);
},
{
name = top;
pos = (695,708);
}
);
layerId = "DF54607F-DD82-41E6-B2E3-81CA6D0E5C47";
shapes = (
{
closed = 1;
nodes = (
(1260,-15,o),
(1375,-14,o),
(1475,22,c),
(1475,32,l),
(1466,32,o),
(1456,34,o),
(1446,37,cs),
(1399,52,o),
(1341,94,o),
(1237,189,cs),
(1109,307,o),
(979,346,o),
(719,346,c),
(719,351,l),
(859,351,o),
(1015,384,o),
(1154,444,cs),
(1297,506,o),
(1377,594,o),
(1377,688,c),
(1428,698,l),
(1428,708,l),
(761,708,l),
(761,698,l),
(827,698,o),
(862,665,o),
(862,619,cs),
(862,576,o),
(840,520,o),
(805,473,cs),
(759,413,o),
(690,371,o),
(624,362,cs),
(613,361,o),
(602,360,o),
(591,360,c),
(591,708,l),
(20,708,l),
(20,698,l),
(71,688,l),
(71,20,l),
(20,10,l),
(20,0,l),
(641,0,l),
(641,10,l),
(591,20,l),
(591,346,l),
(608,346,l),
(686,220,o),
(756,134,o),
(835,78,cs),
(926,13,o),
(1029,-15,o),
(1173,-15,cs)
);
},
{
closed = 1;
nodes = (
(1357,688,l),
(1357,602,o),
(1285,522,o),
(1146,462,cs),
(1009,403,o),
(857,371,o),
(719,371,c),
(757,394,o),
(793,425,o),
(821,461,cs),
(858,511,o),
(882,571,o),
(882,619,cs),
(882,647,o),
(872,671,o),
(852,688,c)
);
},
{
closed = 1;
nodes = (
(679,326,l),
(960,326,o),
(1085,299,o),
(1178,217,cs),
(1274,133,o),
(1347,73,o),
(1398,37,cs),
(1404,32,o),
(1411,28,o),
(1419,26,c),
(1360,12,o),
(1279,5,o),
(1173,5,cs),
(1033,5,o),
(935,32,o),
(849,94,cs),
(784,140,o),
(711,223,o),
(645,326,c)
);
},
{
closed = 1;
nodes = (
(91,688,l),
(571,688,l),
(571,20,l),
(91,20,l)
);
}
);
width = 1490;
},
{
anchors = (
{
name = bottom;
pos = (383,0);
},
{
name = top;
pos = (323,708);
}
);
layerId = "A5088515-37FF-452F-BD44-18A7A5EF88F0";
shapes = (
{
closed = 1;
nodes = (
(637,-15,o),
(648,-13,o),
(660,-4,c),
(660,6,l),
(652,2,o),
(644,0,o),
(637,0,cs),
(605,0,o),
(573,45,o),
(510,180,cs),
(457,294,o),
(400,341,o),
(305,351,c),
(305,356,l),
(366,371,o),
(420,418,o),
(461,474,cs),
(514,546,o),
(541,633,o),
(541,683,c),
(608,698,l),
(608,708,l),
(455,708,l),
(455,698,l),
(498,698,o),
(522,684,o),
(522,658,cs),
(522,618,o),
(495,547,o),
(450,484,cs),
(401,417,o),
(332,358,o),
(255,358,cs),
(225,358,o),
(195,356,o),
(165,356,c),
(165,708,l),
(80,708,l),
(80,698,l),
(150,683,l),
(150,25,l),
(80,10,l),
(80,0,l),
(235,0,l),
(235,10,l),
(165,25,l),
(165,343,l),
(241,343,ls),
(372,343,o),
(436,300,o),
(495,171,cs),
(561,32,o),
(594,-15,o),
(627,-15,cs)
);
},
{
closed = 1;
nodes = (
(535,703,l),
(542,638,o),
(510,551,o),
(457,477,cs),
(413,415,o),
(356,373,o),
(299,360,c),
(357,378,o),
(409,418,o),
(455,482,cs),
(497,542,o),
(527,614,o),
(527,658,cs),
(527,683,o),
(509,703,o),
(480,703,c)
);
},
{
closed = 1;
nodes = (
(325,343,l),
(404,330,o),
(459,279,o),
(505,177,cs),
(569,41,o),
(602,-5,o),
(635,-5,cs),
(643,-5,o),
(649,-4,o),
(652,-3,c),
(647,-8,o),
(639,-10,o),
(628,-10,cs),
(596,-10,o),
(564,36,o),
(500,174,cs),
(451,281,o),
(392,332,o),
(305,343,c)
);
},
{
closed = 1;
nodes = (
(155,703,l),
(160,703,l),
(160,5,l),
(155,5,l)
);
}
);
width = 665;
},
{
anchors = (
{
name = bottom;
pos = (554,0);
},
{
name = top;
pos = (474,708);
}
);
layerId = "35A90D60-3AD4-435C-9F8B-D1CA483F6F66";
shapes = (
{
closed = 1;
nodes = (
(981,-15,o),
(999,-13,o),
(1018,-4,c),
(1018,6,l),
(1005,2,o),
(992,0,o),
(981,0,cs),
(924,0,o),
(871,45,o),
(768,180,cs),
(712,255,o),
(649,338,o),
(449,351,c),
(449,356,l),
(540,373,o),
(629,416,o),
(697,475,cs),
(773,540,o),
(827,626,o),
(827,683,c),
(935,698,l),
(935,708,l),
(689,708,l),
(689,698,l),
(762,698,o),
(803,683,o),
(803,657,cs),
(803,612,o),
(747,532,o),
(675,475,cs),
(595,411,o),
(461,358,o),
(369,358,cs),
(320,358,o),
(260,356,o),
(224,356,c),
(224,708,l),
(100,708,l),
(100,698,l),
(209,683,l),
(209,25,l),
(100,10,l),
(100,0,l),
(337,0,l),
(337,10,l),
(224,25,l),
(224,343,l),
(346,343,ls),
(615,343,o),
(689,258,o),
(753,171,cs),
(858,32,o),
(911,-15,o),
(965,-15,cs)
);
},
{
closed = 1;
nodes = (
(821,703,l),
(825,633,o),
(779,552,o),
(694,479,cs),
(625,419,o),
(536,377,o),
(436,360,c),
(524,381,o),
(617,422,o),
(678,471,cs),
(751,529,o),
(808,611,o),
(808,657,cs),
(808,685,o),
(778,703,o),
(724,703,c)
);
},
{
closed = 1;
nodes = (
(479,343,l),
(610,329,o),
(681,288,o),
(763,177,cs),
(867,40,o),
(919,-6,o),
(971,-6,cs),
(990,-6,o),
(997,-5,o),
(1006,-2,c),
(994,-8,o),
(984,-10,o),
(965,-10,cs),
(914,-10,o),
(862,36,o),
(758,174,cs),
(675,287,o),
(596,329,o),
(443,343,c)
);
},
{
closed = 1;
nodes = (
(214,703,l),
(219,703,l),
(219,5,l),
(214,5,l)
);
}
);
width = 1088;
},
{
anchors = (
{
name = bottom;
pos = (412,0);
},
{
name = top;
pos = (382,708);
}
);
associatedMasterId = "2660E96A-9963-4076-AFCB-E451BC6EE103";
attr = {
colorPalette = 0;
};
layerId = "F15FBF47-6671-4F95-B310-FE43F01822DD";
name = "26 Jul 23 1:05 p.m.";
shapes = (
{
closed = 1;
nodes = (
(644,-15,o),
(698,-14,o),
(745,22,c),
(745,32,l),
(739,32,o),
(733,34,o),
(727,38,cs),
(692,61,o),
(667,99,o),
(629,189,cs),
(578,307,o),
(509,346,o),
(351,346,c),
(351,351,l),
(397,351,o),
(505,395,o),
(588,471,cs),
(650,527,o),
(699,601,o),
(699,688,c),
(749,698,l),
(749,708,l),
(395,708,l),
(395,698,l),
(452,698,o),
(477,661,o),
(477,611,cs),
(477,571,o),
(464,522,o),
(442,478,cs),
(416,424,o),
(379,378,o),
(339,364,cs),
(331,361,o),
(323,360,o),
(315,360,c),
(315,708,l),
(20,708,l),
(20,698,l),
(70,688,l),
(70,20,l),
(20,10,l),
(20,0,l),
(365,0,l),
(365,10,l),
(315,20,l),
(315,346,l),
(332,346,l),
(369,218,o),
(405,130,o),
(439,78,cs),
(486,8,o),
(527,-15,o),
(603,-15,cs)
);
}
);
width = 764;
},
{
anchors = (
{
name = bottom;
pos = (765,0);
},
{
name = top;
pos = (695,708);
}
);
associatedMasterId = "DF54607F-DD82-41E6-B2E3-81CA6D0E5C47";
attr = {
colorPalette = 0;
};
layerId = "0410BED8-07CB-4D8D-A39B-5569614B57D3";
name = "26 Jul 23 1:05 p.m.";
shapes = (
{
closed = 1;
nodes = (
(1260,-15,o),
(1375,-14,o),
(1475,22,c),
(1475,32,l),
(1466,32,o),
(1456,34,o),
(1446,37,cs),
(1399,52,o),
(1341,94,o),
(1237,189,cs),
(1109,307,o),
(979,346,o),
(719,346,c),
(719,351,l),
(859,351,o),
(1015,384,o),
(1154,444,cs),
(1297,506,o),
(1377,594,o),
(1377,688,c),
(1428,698,l),
(1428,708,l),
(761,708,l),
(761,698,l),
(827,698,o),
(862,665,o),
(862,619,cs),
(862,576,o),
(840,520,o),
(805,473,cs),
(759,413,o),
(690,371,o),
(624,362,cs),
(613,361,o),
(602,360,o),
(591,360,c),
(591,708,l),
(20,708,l),
(20,698,l),
(71,688,l),
(71,20,l),
(20,10,l),
(20,0,l),
(641,0,l),
(641,10,l),
(591,20,l),
(591,346,l),
(608,346,l),
(686,220,o),
(756,134,o),
(835,78,cs),
(926,13,o),
(1029,-15,o),
(1173,-15,cs)
);
}
);
width = 1490;
},
{
anchors = (
{
name = bottom;
pos = (383,0);
},
{
name = top;
pos = (323,708);
}
);
associatedMasterId = "A5088515-37FF-452F-BD44-18A7A5EF88F0";
attr = {
colorPalette = 0;
};
layerId = "5D425716-9597-4CA8-B240-37190942FEF1";
name = "26 Jul 23 1:06 p.m.";
shapes = (
{
closed = 1;
nodes = (
(637,-15,o),
(648,-13,o),
(660,-4,c),
(660,6,l),
(652,2,o),
(644,0,o),
(637,0,cs),
(605,0,o),
(573,45,o),
(510,180,cs),
(457,294,o),
(400,341,o),
(305,351,c),
(305,356,l),
(366,371,o),
(420,418,o),
(461,474,cs),
(514,546,o),
(541,633,o),
(541,683,c),
(608,698,l),
(608,708,l),
(455,708,l),
(455,698,l),
(498,698,o),
(522,684,o),
(522,658,cs),
(522,618,o),
(495,547,o),
(450,484,cs),
(401,417,o),
(332,358,o),
(255,358,cs),
(225,358,o),
(195,356,o),
(165,356,c),
(165,708,l),
(80,708,l),
(80,698,l),
(150,683,l),
(150,25,l),
(80,10,l),
(80,0,l),
(235,0,l),
(235,10,l),
(165,25,l),
(165,343,l),
(241,343,ls),
(372,343,o),
(436,300,o),
(495,171,cs),
(561,32,o),
(594,-15,o),
(627,-15,cs)
);
}
);
width = 665;
},
{
anchors = (
{
name = bottom;
pos = (554,0);
},
{
name = top;
pos = (474,708);
}
);
associatedMasterId = "35A90D60-3AD4-435C-9F8B-D1CA483F6F66";
attr = {
colorPalette = 0;
};
layerId = "4FE53230-99D5-43B4-BC8A-2F232550FDB3";
name = "26 Jul 23 1:06 p.m.";
shapes = (
{
closed = 1;
nodes = (
(981,-15,o),
(999,-13,o),
(1018,-4,c),
(1018,6,l),
(1005,2,o),
(992,0,o),
(981,0,cs),
(924,0,o),
(871,45,o),
(768,180,cs),
(712,255,o),
(649,338,o),
(449,351,c),
(449,356,l),
(540,373,o),
(629,416,o),
(697,475,cs),
(773,540,o),
(827,626,o),
(827,683,c),
(935,698,l),
(935,708,l),
(689,708,l),
(689,698,l),
(762,698,o),
(803,683,o),
(803,657,cs),
(803,612,o),
(747,532,o),
(675,475,cs),
(595,411,o),
(461,358,o),
(369,358,cs),
(320,358,o),
(260,356,o),
(224,356,c),
(224,708,l),
(100,708,l),
(100,698,l),
(209,683,l),
(209,25,l),
(100,10,l),
(100,0,l),
(337,0,l),
(337,10,l),
(224,25,l),
(224,343,l),
(346,343,ls),
(615,343,o),
(689,258,o),
(753,171,cs),
(858,32,o),
(911,-15,o),
(965,-15,cs)
);
}
);
width = 1088;
},
{
anchors = (
{
name = bottom;
pos = (765,0);
},
{
name = top;
pos = (695,708);
}
);
associatedMasterId = "DF54607F-DD82-41E6-B2E3-81CA6D0E5C47";
attr = {
colorPalette = 1;
};
layerId = "BD0A3091-6D2F-4757-9C12-C0D4BE630927";
name = "26 Jul 23 1:09 p.m.";
shapes = (
{
closed = 1;
nodes = (
(1357,688,l),
(1357,602,o),
(1285,522,o),
(1146,462,cs),
(1009,403,o),
(857,371,o),
(719,371,c),
(757,394,o),
(793,425,o),
(821,461,cs),
(858,511,o),
(882,571,o),
(882,619,cs),
(882,647,o),
(872,671,o),
(852,688,c)
);
},
{
closed = 1;
nodes = (
(679,326,l),
(960,326,o),
(1085,299,o),
(1178,217,cs),
(1274,133,o),
(1347,73,o),
(1398,37,cs),
(1404,32,o),
(1411,28,o),
(1419,26,c),
(1360,12,o),
(1279,5,o),
(1173,5,cs),
(1033,5,o),
(935,32,o),
(849,94,cs),
(784,140,o),
(711,223,o),
(645,326,c)
);
},
{
closed = 1;
nodes = (
(91,688,l),
(571,688,l),
(571,20,l),
(91,20,l)
);
}
);
width = 1490;
},
{
anchors = (
{
name = bottom;
pos = (554,0);
},
{
name = top;
pos = (474,708);
}
);
associatedMasterId = "35A90D60-3AD4-435C-9F8B-D1CA483F6F66";
attr = {
colorPalette = 1;
};
layerId = "A65820D4-572F-41A6-8BED-490224594D50";
name = "26 Jul 23 1:09 p.m.";
shapes = (
{
closed = 1;
nodes = (
(821,703,l),
(825,633,o),
(779,552,o),
(694,479,cs),
(625,419,o),
(536,377,o),
(436,360,c),
(524,381,o),
(617,422,o),
(678,471,cs),
(751,529,o),
(808,611,o),
(808,657,cs),
(808,685,o),
(778,703,o),
(724,703,c)
);
},
{
closed = 1;
nodes = (
(479,343,l),
(610,329,o),
(681,288,o),
(763,177,cs),
(867,40,o),
(919,-6,o),
(971,-6,cs),
(990,-6,o),
(997,-5,o),
(1006,-2,c),
(994,-8,o),
(984,-10,o),
(965,-10,cs),
(914,-10,o),
(862,36,o),
(758,174,cs),
(675,287,o),
(596,329,o),
(443,343,c)
);
},
{
closed = 1;
nodes = (
(214,703,l),
(219,703,l),
(219,5,l),
(214,5,l)
);
}
);
width = 1088;
},
{
anchors = (
{
name = bottom;
pos = (412,0);
},
{
name = top;
pos = (382,708);
}
);
associatedMasterId = "2660E96A-9963-4076-AFCB-E451BC6EE103";
attr = {
colorPalette = 1;
};
layerId = "CE2D5E17-B322-42D1-A4B1-275E0405886C";
name = "26 Jul 23 1:09 p.m.";
shapes = (
{
closed = 1;
nodes = (
(679,688,l),
(679,607,o),
(635,540,o),
(575,486,cs),
(517,433,o),
(450,397,o),
(400,381,c),
(424,404,o),
(444,436,o),
(460,469,cs),
(483,515,o),
(497,568,o),
(497,611,cs),
(497,641,o),
(489,668,o),
(471,688,c)
);
},
{
closed = 1;
nodes = (
(365,326,l),
(503,326,o),
(565,288,o),
(611,181,cs),
(639,110,o),
(669,61,o),
(701,33,cs),
(705,30,o),
(708,27,o),
(711,24,c),
(686,11,o),
(650,5,o),
(603,5,cs),
(540,5,o),
(495,31,o),
(456,89,cs),
(423,139,o),
(394,211,o),
(359,326,c)
);
},
{
closed = 1;
nodes = (
(90,688,l),
(295,688,l),
(295,20,l),
(90,20,l)
);
}
);
width = 764;
},
{
anchors = (
{
name = bottom;
pos = (383,0);
},
{
name = top;
pos = (323,708);
}
);
associatedMasterId = "A5088515-37FF-452F-BD44-18A7A5EF88F0";
attr = {
colorPalette = 1;
};
layerId = "F88786ED-CDB9-4209-AC3A-7F1269892A7D";
name = "26 Jul 23 1:09 p.m.";
shapes = (
{
closed = 1;
nodes = (
(535,703,l),
(542,638,o),
(510,551,o),
(457,477,cs),
(413,415,o),
(356,373,o),
(299,360,c),
(357,378,o),
(409,418,o),
(455,482,cs),
(497,542,o),
(527,614,o),
(527,658,cs),
(527,683,o),
(509,703,o),
(480,703,c)
);
},
{
closed = 1;
nodes = (
(325,343,l),
(404,330,o),
(459,279,o),
(505,177,cs),
(569,41,o),
(602,-5,o),
(635,-5,cs),
(643,-5,o),
(649,-4,o),
(652,-3,c),
(647,-8,o),
(639,-10,o),
(628,-10,cs),
(596,-10,o),
(564,36,o),
(500,174,cs),
(451,281,o),
(392,332,o),
(305,343,c)
);
},
{
closed = 1;
nodes = (
(155,703,l),
(160,703,l),
(160,5,l),
(155,5,l)
);
}
);
width = 665;
}
);
unicode = 75;
},
{
color = 4;
glyphname = L;
kernLeft = HH;
kernRight = L;
lastChange = "2023-07-23 05:11:48 +0000";
layers = (
{
anchors = (
{
name = bottom;
pos = (344,0);
},
{
name = center;
pos = (194,354);
},
{
name = top;
pos = (194,708);
},
{
name = topright;
pos = (537,723);
}
);
layerId = "2660E96A-9963-4076-AFCB-E451BC6EE103";
shapes = (
{
closed = 1;
nodes = (
(632,0,l),
(597,304,l),
(577,304,l),
(525,180,ls),
(475,61,o),
(434,15,o),
(377,15,c),
(315,15,l),
(315,688,l),
(366,698,l),
(366,708,l),
(20,708,l),
(20,698,l),
(70,688,l),
(70,20,l),
(20,10,l),
(20,0,l)
);
},
{
attr = {
gradient = {
colors = (
(
(200,255,255,255),
0
),
(
(150,140,250,255),
0.26155
),
(
(255,0,220,255),
0.50255
),
(
(255,130,170,255),
0.76718
),
(
(255,220,220,255),
1
)
);
end = (1.9013,1.0017);
start = (-0.095,-0.0086);
};
};
closed = 1;
nodes = (
(90,688,l),
(295,688,l),
(295,20,l),
(90,20,l)
);
},
{
attr = {
gradient = {
colors = (
(
(200,255,255,255),
0
),
(
(150,140,250,255),
0.25255
),
(
(255,0,220,255),
0.51494
),
(
(255,130,170,255),
0.74692
),
(
(255,220,220,255),
1
)
);
end = (1.1777,1.3796);
start = (-2.3578,-0.0531);
};
};
closed = 1;
nodes = (
(453,20,l),
(485,47,o),
(514,98,o),
(545,171,cs),
(580,254,l),
(607,20,l)
);
}
);
width = 647;
},
{
anchors = (
{
name = bottom;
pos = (574,0);
},
{
name = center;
pos = (334,354);
},
{
name = top;
pos = (334,708);
},
{
name = topright;
pos = (928,723);
}
);
layerId = "DF54607F-DD82-41E6-B2E3-81CA6D0E5C47";
shapes = (
{
closed = 1;
nodes = (
(1153,0,l),
(1118,404,l),
(1098,404,l),
(988,248,ls),
(869,80,o),
(762,15,o),
(602,15,c),
(590,15,l),
(590,688,l),
(641,698,l),
(641,708,l),
(20,708,l),
(20,698,l),
(70,688,l),
(70,20,l),
(20,10,l),
(20,0,l)
);
},
{
attr = {
gradient = {
colors = (
(
(200,255,255,255),
0
),
(
(150,140,250,255),
0.24579
),
(
(255,0,220,255),
0.46538
),
(
(255,130,170,255),
0.74692
),
(
(255,220,220,255),
1
)
);
end = (3.7789,1.4615);
start = (0.0298,-0.0204);
};
};
closed = 1;
nodes = (
(90,688,l),
(570,688,l),
(570,20,l),
(90,20,l)
);
},
{
attr = {
gradient = {
colors = (
(
(200,255,255,255),
0
),
(
(150,140,250,255),
0.25255
),
(
(255,0,220,255),
0.51494
),
(
(255,130,170,255),
0.74692
),
(
(255,220,220,255),
1
)
);
end = (3.3329,2.5499);
start = (-1.02,-0.282);
};
};
closed = 1;
nodes = (
(765,20,l),
(853,54,o),
(928,124,o),
(1006,235,cs),
(1099,368,l),
(1129,20,l)
);
}
);
width = 1168;
},
{
anchors = (
{
name = bottom;
pos = (341,0);
},
{
name = center;
pos = (161,354);
},
{
name = top;
pos = (161,708);
},
{
name = topright;
pos = (502,723);
}
);
layerId = "A5088515-37FF-452F-BD44-18A7A5EF88F0";
shapes = (
{
closed = 1;
nodes = (
(552,0,l),
(528,243,l),
(513,243,l),
(520,115,ls),
(524,42,o),
(503,15,o),
(467,15,c),
(165,15,l),
(165,688,l),
(235,698,l),
(235,708,l),
(80,708,l),
(80,698,l),
(150,688,l),
(150,20,l),
(80,10,l),
(80,0,l)
);
},
{
attr = {
gradient = {
colors = (
(
(200,255,255,255),
0
),
(
(150,140,250,255),
0.26155
),
(
(255,0,220,255),
0.50255
),
(
(255,130,170,255),
0.76718
),
(
(255,220,220,255),
1
)
);
end = (1.9013,1.0017);
start = (-0.095,-0.0086);
};
};
closed = 1;
nodes = (
(155,703,l),
(160,703,l),
(160,5,l),
(155,5,l)
);
},
{
attr = {
gradient = {
colors = (
(
(200,255,255,255),
0
),
(
(150,140,250,255),
0.25255
),
(
(255,0,220,255),
0.51494
),
(
(255,130,170,255),
0.74692
),
(
(255,220,220,255),
1
)
);
end = (1.1777,1.3796);
start = (-2.3578,-0.0531);
};
};
closed = 1;
nodes = (
(467,7,l),
(508,8,o),
(530,39,o),
(527,115,cs),
(522,236,l),
(544,7,l)
);
}
);
width = 602;
},
{
anchors = (
{
name = bottom;
pos = (506,0);
},
{
name = center;
pos = (216,354);
},
{
name = top;
pos = (216,708);
},
{
name = topright;
pos = (782,723);
}
);
layerId = "35A90D60-3AD4-435C-9F8B-D1CA483F6F66";
shapes = (
{
closed = 1;
nodes = (
(855,0,l),
(831,243,l),
(816,243,l),
(823,130,ls),
(828,46,o),
(808,15,o),
(770,15,cs),
(224,15,l),
(224,688,l),
(334,698,l),
(334,708,l),
(100,708,l),
(100,698,l),
(209,688,l),
(209,20,l),
(100,10,l),
(100,0,l)
);
},
{
attr = {
gradient = {
colors = (
(
(200,255,255,255),
0
),
(
(150,140,250,255),
0.24579
),
(
(255,0,220,255),
0.46538
),
(
(255,130,170,255),
0.74692
),
(
(255,220,220,255),
1
)
);
end = (3.7789,1.4615);
start = (0.0298,-0.0204);
};
};
closed = 1;
nodes = (
(214,703,l),
(219,703,l),
(219,5,l),
(214,5,l)
);
},
{
attr = {
gradient = {
colors = (
(
(200,255,255,255),
0
),
(
(150,140,250,255),
0.25255
),
(
(255,0,220,255),
0.51494
),
(
(255,130,170,255),
0.74692
),
(
(255,220,220,255),
1
)
);
end = (3.3329,2.5499);
start = (-1.02,-0.282);
};
};
closed = 1;
nodes = (
(770,7,l),
(813,8,o),
(835,43,o),
(830,130,cs),
(824,236,l),
(847,7,l)
);
}
);
width = 952;
},
{
anchors = (
{
name = bottom;
pos = (341,0);
},
{
name = center;
pos = (161,354);
},
{
name = top;
pos = (161,708);
},
{
name = topright;
pos = (502,723);
}
);
associatedMasterId = "A5088515-37FF-452F-BD44-18A7A5EF88F0";
attr = {
colorPalette = 0;
};
layerId = "88D3D05F-B2E0-49FF-AC02-8B5B504C9449";
name = "22 Jul 23 10:06 p.m.";
shapes = (
{
closed = 1;
nodes = (
(552,0,l),
(528,243,l),
(513,243,l),
(520,115,ls),
(524,42,o),
(503,15,o),
(467,15,c),
(165,15,l),
(165,688,l),
(235,698,l),
(235,708,l),
(80,708,l),
(80,698,l),
(150,688,l),
(150,20,l),
(80,10,l),
(80,0,l)
);
}
);
width = 602;
},
{
anchors = (
{
name = bottom;
pos = (344,0);
},
{
name = center;
pos = (194,354);
},
{
name = top;
pos = (194,708);
},
{
name = topright;
pos = (537,723);
}
);
associatedMasterId = "2660E96A-9963-4076-AFCB-E451BC6EE103";
attr = {
colorPalette = 0;
};
layerId = "21C7B00E-71EF-476E-B1D3-201F434575FE";
name = "22 Jul 23 10:07 p.m.";
shapes = (
{
closed = 1;
nodes = (
(632,0,l),
(597,304,l),
(577,304,l),
(525,180,ls),
(475,61,o),
(434,15,o),
(377,15,c),
(315,15,l),
(315,688,l),
(366,698,l),
(366,708,l),
(20,708,l),
(20,698,l),
(70,688,l),
(70,20,l),
(20,10,l),
(20,0,l)
);
}
);
width = 647;
},
{
anchors = (
{
name = bottom;
pos = (506,0);
},
{
name = center;
pos = (216,354);
},
{
name = top;
pos = (216,708);
},
{
name = topright;
pos = (782,723);
}
);
associatedMasterId = "35A90D60-3AD4-435C-9F8B-D1CA483F6F66";
attr = {
colorPalette = 0;
};
layerId = "22402474-A678-4EE3-B1DF-64A5D3552328";
name = "22 Jul 23 10:07 p.m.";
shapes = (
{
closed = 1;
nodes = (
(855,0,l),
(831,243,l),
(816,243,l),
(823,130,ls),
(828,46,o),
(808,15,o),
(770,15,cs),
(224,15,l),
(224,688,l),
(334,698,l),
(334,708,l),
(100,708,l),
(100,698,l),
(209,688,l),
(209,20,l),
(100,10,l),
(100,0,l)
);
}
);
width = 952;
},
{
anchors = (
{
name = bottom;
pos = (574,0);
},
{
name = center;
pos = (334,354);
},
{
name = top;
pos = (334,708);
},
{
name = topright;
pos = (928,723);
}
);
associatedMasterId = "DF54607F-DD82-41E6-B2E3-81CA6D0E5C47";
attr = {
colorPalette = 0;
};
layerId = "C8C0B329-243B-47B2-81E0-FD7C23939C0B";
name = "22 Jul 23 10:07 p.m.";
shapes = (
{
closed = 1;
nodes = (
(1153,0,l),
(1118,404,l),
(1098,404,l),
(988,248,ls),
(869,80,o),
(762,15,o),
(602,15,c),
(590,15,l),
(590,688,l),
(641,698,l),
(641,708,l),
(20,708,l),
(20,698,l),
(70,688,l),
(70,20,l),
(20,10,l),
(20,0,l)
);
}
);
width = 1168;
},
{
anchors = (
{
name = bottom;
pos = (341,0);
},
{
name = center;
pos = (161,354);
},
{
name = top;
pos = (161,708);
},
{
name = topright;
pos = (502,723);
}
);
associatedMasterId = "A5088515-37FF-452F-BD44-18A7A5EF88F0";
attr = {
colorPalette = 1;
};
layerId = "2A48440E-A8CF-4558-9126-ED20AD6B447D";
name = "22 Jul 23 10:09 p.m.";
shapes = (
{
attr = {
gradient = {
colors = (
(
(200,255,255,255),
0
),
(
(150,140,250,255),
0.26155
),
(
(255,0,220,255),
0.50255
),
(
(255,130,170,255),
0.76718
),
(
(255,220,220,255),
1
)
);
end = (1.9013,1.0017);
start = (-0.095,-0.0086);
};
};
closed = 1;
nodes = (
(155,703,l),
(160,703,l),
(160,5,l),
(155,5,l)
);
},
{
attr = {
gradient = {
colors = (
(
(200,255,255,255),
0
),
(
(150,140,250,255),
0.25255
),
(
(255,0,220,255),
0.51494
),
(
(255,130,170,255),
0.74692
),
(
(255,220,220,255),
1
)
);
end = (1.1777,1.3796);
start = (-2.3578,-0.0531);
};
};
closed = 1;
nodes = (
(467,7,l),
(508,8,o),
(530,39,o),
(527,115,cs),
(522,236,l),
(544,7,l)
);
}
);
width = 602;
},
{
anchors = (
{
name = bottom;
pos = (344,0);
},
{
name = center;
pos = (194,354);
},
{
name = top;
pos = (194,708);
},
{
name = topright;
pos = (537,723);
}
);
associatedMasterId = "2660E96A-9963-4076-AFCB-E451BC6EE103";
attr = {
colorPalette = 1;
};
layerId = "A2749911-E010-4788-B173-2166249CAAD7";
name = "22 Jul 23 10:09 p.m.";
shapes = (
{
attr = {
gradient = {
colors = (
(
(200,255,255,255),
0
),
(
(150,140,250,255),
0.26155
),
(
(255,0,220,255),
0.50255
),
(
(255,130,170,255),
0.76718
),
(
(255,220,220,255),
1
)
);
end = (1.9013,1.0017);
start = (-0.095,-0.0086);
};
};
closed = 1;
nodes = (
(90,688,l),
(295,688,l),
(295,20,l),
(90,20,l)
);
},
{
attr = {
gradient = {
colors = (
(
(200,255,255,255),
0
),
(
(150,140,250,255),
0.25255
),
(
(255,0,220,255),
0.51494
),
(
(255,130,170,255),
0.74692
),
(
(255,220,220,255),
1
)
);
end = (1.1777,1.3796);
start = (-2.3578,-0.0531);
};
};
closed = 1;
nodes = (
(453,20,l),
(485,47,o),
(514,98,o),
(545,171,cs),
(580,254,l),
(607,20,l)
);
}
);
width = 647;
},
{
anchors = (
{
name = bottom;
pos = (506,0);
},
{
name = center;
pos = (216,354);
},
{
name = top;
pos = (216,708);
},
{
name = topright;
pos = (782,723);
}
);
associatedMasterId = "35A90D60-3AD4-435C-9F8B-D1CA483F6F66";
attr = {
colorPalette = 1;
};
layerId = "27064ADB-C930-402F-B53F-8CE4690C5145";
name = "22 Jul 23 10:10 p.m.";
shapes = (
{
attr = {
gradient = {
colors = (
(
(200,255,255,255),
0
),
(
(150,140,250,255),
0.24579
),
(
(255,0,220,255),
0.46538
),
(
(255,130,170,255),
0.74692
),
(
(255,220,220,255),
1
)
);
end = (3.7789,1.4615);
start = (0.0298,-0.0204);
};
};
closed = 1;
nodes = (
(214,703,l),
(219,703,l),
(219,5,l),
(214,5,l)
);
},
{
attr = {
gradient = {
colors = (
(
(200,255,255,255),
0
),
(
(150,140,250,255),
0.25255
),
(
(255,0,220,255),
0.51494
),
(
(255,130,170,255),
0.74692
),
(
(255,220,220,255),
1
)
);
end = (3.3329,2.5499);
start = (-1.02,-0.282);
};
};
closed = 1;
nodes = (
(770,7,l),
(813,8,o),
(835,43,o),
(830,130,cs),
(824,236,l),
(847,7,l)
);
}
);
width = 952;
},
{
anchors = (
{
name = bottom;
pos = (574,0);
},
{
name = center;
pos = (334,354);
},
{
name = top;
pos = (334,708);
},
{
name = topright;
pos = (928,723);
}
);
associatedMasterId = "DF54607F-DD82-41E6-B2E3-81CA6D0E5C47";
attr = {
colorPalette = 1;
};
layerId = "A57C2502-D703-4ECB-93BE-A0736FEE9F38";
name = "22 Jul 23 10:10 p.m.";
shapes = (
{
attr = {
gradient = {
colors = (
(
(200,255,255,255),
0
),
(
(150,140,250,255),
0.24579
),
(
(255,0,220,255),
0.46538
),
(
(255,130,170,255),
0.74692
),
(
(255,220,220,255),
1
)
);
end = (3.7789,1.4615);
start = (0.0298,-0.0204);
};
};
closed = 1;
nodes = (
(90,688,l),
(570,688,l),
(570,20,l),
(90,20,l)
);
},
{
attr = {
gradient = {
colors = (
(
(200,255,255,255),
0
),
(
(150,140,250,255),
0.25255
),
(
(255,0,220,255),
0.51494
),
(
(255,130,170,255),
0.74692
),
(
(255,220,220,255),
1
)
);
end = (3.3329,2.5499);
start = (-1.02,-0.282);
};
};
closed = 1;
nodes = (
(765,20,l),
(853,54,o),
(928,124,o),
(1006,235,cs),
(1099,368,l),
(1129,20,l)
);
}
);
width = 1168;
}
);
unicode = 76;
},
{
color = 5;
glyphname = Lslash;
kernLeft = HH;
kernRight = L;
lastChange = "2023-02-19 07:03:36 +0000";
layers = (
{
layerId = "DF54607F-DD82-41E6-B2E3-81CA6D0E5C47";
shapes = (
{
closed = 1;
nodes = (
(761,561,l),
(754,572,l),
(-2,264,l),
(4,254,l)
);
},
{
ref = L;
}
);
width = 1168;
},
{
layerId = "A5088515-37FF-452F-BD44-18A7A5EF88F0";
shapes = (
{
closed = 1;
nodes = (
(299,456,l),
(292,467,l),
(51,333,l),
(57,323,l)
);
},
{
ref = L;
}
);
width = 602;
},
{
layerId = "2660E96A-9963-4076-AFCB-E451BC6EE103";
shapes = (
{
closed = 1;
nodes = (
(412,518,l),
(405,529,l),
(14,312,l),
(20,302,l)
);
},
{
ref = L;
}
);
width = 647;
},
{
layerId = "35A90D60-3AD4-435C-9F8B-D1CA483F6F66";
shapes = (
{
closed = 1;
nodes = (
(429,500,l),
(422,511,l),
(101,333,l),
(107,323,l)
);
},
{
ref = L;
}
);
width = 952;
}
);
unicode = 321;
},
{
color = 7;
glyphname = M;
kernLeft = HH;
kernRight = H;
lastChange = "2023-07-26 21:05:18 +0000";
layers = (
{
layerId = "2660E96A-9963-4076-AFCB-E451BC6EE103";
shapes = (
{
closed = 1;
nodes = (
(294,0,l),
(294,10,l),
(154,60,o),
(100,408,o),
(100,561,cs),
(100,566,l),
(115,566,l),
(370,0,l),
(506,0,l),
(663,592,l),
(678,592,l),
(678,20,l),
(617,10,l),
(617,0,l),
(973,0,l),
(973,10,l),
(923,20,l),
(923,688,l),
(973,698,l),
(973,708,l),
(660,708,l),
(549,216,l),
(561,238,l),
(524,238,l),
(543,215,l),
(334,708,l),
(14,708,l),
(14,698,l),
(85,686,l),
(85,20,l),
(5,10,l),
(5,0,l)
);
},
{
closed = 1;
nodes = (
(105,328,l),
(106,328,l),
(111,301,ls),
(134,179,o),
(183,70,o),
(240,20,c),
(105,20,l)
);
},
{
closed = 1;
nodes = (
(105,688,l),
(321,688,l),
(522,215,l),
(543,215,l),
(491,20,l),
(383,20,l),
(128,586,l),
(105,586,l)
);
},
{
closed = 1;
nodes = (
(676,688,l),
(912,688,l),
(912,20,l),
(698,20,l),
(698,612,l),
(660,612,l)
);
}
);
width = 978;
},
{
layerId = "DF54607F-DD82-41E6-B2E3-81CA6D0E5C47";
shapes = (
{
closed = 1;
nodes = (
(393,0,l),
(393,10,l),
(200,53,o),
(95,359,o),
(95,561,cs),
(95,566,l),
(118,566,l),
(509,0,l),
(789,0,l),
(981,592,l),
(1004,592,l),
(1004,20,l),
(943,10,l),
(943,0,l),
(1575,0,l),
(1575,10,l),
(1524,20,l),
(1524,688,l),
(1601,698,l),
(1601,708,l),
(988,708,l),
(845,219,l),
(858,238,l),
(830,238,l),
(853,218,l),
(534,708,l),
(19,708,l),
(19,698,l),
(85,686,l),
(85,20,l),
(5,10,l),
(5,0,l)
);
},
{
closed = 1;
nodes = (
(105,351,l),
(106,351,l),
(109,337,ls),
(138,201,o),
(218,79,o),
(316,20,c),
(105,20,l)
);
},
{
closed = 1;
nodes = (
(105,688,l),
(524,688,l),
(832,215,l),
(838,215,l),
(775,20,l),
(518,20,l),
(127,586,l),
(105,586,l)
);
},
{
closed = 1;
nodes = (
(1003,688,l),
(1504,688,l),
(1504,20,l),
(1024,20,l),
(1024,612,l),
(981,612,l)
);
}
);
width = 1606;
},
{
layerId = "A5088515-37FF-452F-BD44-18A7A5EF88F0";
shapes = (
{
closed = 1;
nodes = (
(305,0,l),
(305,10,l),
(187,10,o),
(165,22,o),
(165,122,c),
(165,610,l),
(182,610,l),
(471,0,l),
(497,0,l),
(760,610,l),
(776,610,l),
(776,25,l),
(706,10,l),
(706,0,l),
(861,0,l),
(861,10,l),
(791,25,l),
(791,683,l),
(861,698,l),
(861,708,l),
(787,708,l),
(489,19,l),
(495,21,l),
(472,21,l),
(478,19,l),
(151,708,l),
(80,708,l),
(80,698,l),
(150,683,l),
(150,25,l),
(80,10,l),
(80,0,l)
);
},
{
closed = 1;
nodes = (
(156,129,l),
(158,129,l),
(158,106,ls),
(158,34,o),
(183,7,o),
(250,7,c),
(156,7,l)
);
},
{
closed = 1;
nodes = (
(157,680,l),
(158,680,l),
(472,17,l),
(500,17,l),
(496,7,l),
(473,7,l),
(184,617,l),
(157,617,l)
);
},
{
closed = 1;
nodes = (
(780,672,l),
(785,682,l),
(785,7,l),
(781,7,l),
(781,617,l),
(755,617,l)
);
}
);
width = 911;
},
{
layerId = "35A90D60-3AD4-435C-9F8B-D1CA483F6F66";
shapes = (
{
closed = 1;
nodes = (
(407,0,l),
(407,10,l),
(236,10,o),
(204,22,o),
(204,122,c),
(204,622,l),
(228,622,l),
(645,0,l),
(664,0,l),
(1037,622,l),
(1056,622,l),
(1056,25,l),
(947,10,l),
(947,0,l),
(1181,0,l),
(1181,10,l),
(1071,25,l),
(1071,683,l),
(1181,698,l),
(1181,708,l),
(1071,708,l),
(655,16,l),
(664,21,l),
(644,21,l),
(653,15,l),
(189,708,l),
(80,708,l),
(80,698,l),
(189,683,l),
(189,25,l),
(80,10,l),
(80,0,l)
);
},
{
closed = 1;
nodes = (
(196,129,l),
(198,129,l),
(198,106,ls),
(198,32,o),
(228,7,o),
(319,7,c),
(196,7,l)
);
},
{
closed = 1;
nodes = (
(196,685,l),
(198,685,l),
(647,14,l),
(667,14,l),
(663,7,l),
(647,7,l),
(230,629,l),
(196,629,l)
);
},
{
closed = 1;
nodes = (
(1059,673,l),
(1065,682,l),
(1065,7,l),
(1061,7,l),
(1061,629,l),
(1032,629,l)
);
}
);
width = 1261;
},
{
associatedMasterId = "A5088515-37FF-452F-BD44-18A7A5EF88F0";
attr = {
colorPalette = 0;
};
layerId = "FAA3836B-B327-4162-B0CF-D77C6AD9E854";
name = "26 Jul 23 12:52 p.m.";
shapes = (
{
closed = 1;
nodes = (
(305,0,l),
(305,10,l),
(187,10,o),
(165,22,o),
(165,122,c),
(165,610,l),
(182,610,l),
(471,0,l),
(497,0,l),
(760,610,l),
(776,610,l),
(776,25,l),
(706,10,l),
(706,0,l),
(861,0,l),
(861,10,l),
(791,25,l),
(791,683,l),
(861,698,l),
(861,708,l),
(787,708,l),
(486,12,l),
(495,21,l),
(472,21,l),
(481,12,l),
(151,708,l),
(80,708,l),
(80,698,l),
(150,683,l),
(150,25,l),
(80,10,l),
(80,0,l)
);
}
);
width = 911;
},
{
associatedMasterId = "2660E96A-9963-4076-AFCB-E451BC6EE103";
attr = {
colorPalette = 0;
};
layerId = "35B8FF07-4783-4535-8049-DE304C2D1EB4";
name = "26 Jul 23 12:52 p.m.";
shapes = (
{
closed = 1;
nodes = (
(294,0,l),
(294,10,l),
(154,60,o),
(100,408,o),
(100,561,cs),
(100,566,l),
(115,566,l),
(370,0,l),
(506,0,l),
(663,592,l),
(678,592,l),
(678,20,l),
(617,10,l),
(617,0,l),
(973,0,l),
(973,10,l),
(923,20,l),
(923,688,l),
(973,698,l),
(973,708,l),
(648,708,l),
(549,216,l),
(561,238,l),
(524,238,l),
(543,215,l),
(334,708,l),
(14,708,l),
(14,698,l),
(85,686,l),
(85,20,l),
(5,10,l),
(5,0,l)
);
}
);
width = 978;
},
{
associatedMasterId = "35A90D60-3AD4-435C-9F8B-D1CA483F6F66";
attr = {
colorPalette = 0;
};
layerId = "278D779A-598F-42C8-A4D6-9AAE4369804B";
name = "26 Jul 23 12:52 p.m.";
shapes = (
{
closed = 1;
nodes = (
(407,0,l),
(407,10,l),
(236,10,o),
(204,22,o),
(204,122,c),
(204,622,l),
(228,622,l),
(645,0,l),
(664,0,l),
(1037,622,l),
(1056,622,l),
(1056,25,l),
(947,10,l),
(947,0,l),
(1181,0,l),
(1181,10,l),
(1071,25,l),
(1071,683,l),
(1181,698,l),
(1181,708,l),
(1071,708,l),
(653,12,l),
(664,21,l),
(644,21,l),
(655,12,l),
(189,708,l),
(80,708,l),
(80,698,l),
(189,683,l),
(189,25,l),
(80,10,l),
(80,0,l)
);
}
);
width = 1261;
},
{
associatedMasterId = "DF54607F-DD82-41E6-B2E3-81CA6D0E5C47";
attr = {
colorPalette = 0;
};
layerId = "B205B804-AD1D-4880-9EDB-C81BE153DC2D";
name = "26 Jul 23 12:52 p.m.";
shapes = (
{
closed = 1;
nodes = (
(393,0,l),
(393,10,l),
(200,53,o),
(95,359,o),
(95,561,cs),
(95,566,l),
(118,566,l),
(509,0,l),
(789,0,l),
(981,592,l),
(1004,592,l),
(1004,20,l),
(943,10,l),
(943,0,l),
(1575,0,l),
(1575,10,l),
(1524,20,l),
(1524,688,l),
(1601,698,l),
(1601,708,l),
(988,708,l),
(845,219,l),
(858,238,l),
(830,238,l),
(853,218,l),
(534,708,l),
(19,708,l),
(19,698,l),
(85,686,l),
(85,20,l),
(5,10,l),
(5,0,l)
);
}
);
width = 1606;
},
{
associatedMasterId = "A5088515-37FF-452F-BD44-18A7A5EF88F0";
attr = {
colorPalette = 1;
};
layerId = "4B3B7D0C-2C11-4A04-B044-A58791CFCD0F";
name = "26 Jul 23 1:00 p.m.";
shapes = (
{
closed = 1;
nodes = (
(156,129,l),
(158,129,l),
(158,106,ls),
(158,34,o),
(183,7,o),
(250,7,c),
(156,7,l)
);
},
{
closed = 1;
nodes = (
(157,680,l),
(158,680,l),
(472,17,l),
(500,17,l),
(496,7,l),
(473,7,l),
(184,617,l),
(157,617,l)
);
},
{
closed = 1;
nodes = (
(780,672,l),
(785,682,l),
(785,7,l),
(781,7,l),
(781,617,l),
(755,617,l)
);
}
);
width = 911;
},
{
associatedMasterId = "2660E96A-9963-4076-AFCB-E451BC6EE103";
attr = {
colorPalette = 1;
};
guides = (
{
pos = (719,112);
showMeasurement = 1;
}
);
layerId = "52F53A94-D464-4E9E-9E9E-6F112434F11A";
name = "26 Jul 23 1:00 p.m.";
shapes = (
{
closed = 1;
nodes = (
(105,328,l),
(106,328,l),
(111,301,ls),
(134,179,o),
(183,70,o),
(240,20,c),
(105,20,l)
);
},
{
closed = 1;
nodes = (
(105,688,l),
(321,688,l),
(522,215,l),
(543,215,l),
(491,20,l),
(383,20,l),
(128,586,l),
(105,586,l)
);
},
{
closed = 1;
nodes = (
(664,688,l),
(912,688,l),
(912,20,l),
(698,20,l),
(698,612,l),
(649,612,l)
);
}
);
width = 978;
},
{
associatedMasterId = "35A90D60-3AD4-435C-9F8B-D1CA483F6F66";
attr = {
colorPalette = 1;
};
layerId = "8DB51CF4-6388-4B7C-BAC4-336F5ABA3C41";
name = "26 Jul 23 1:00 p.m.";
shapes = (
{
closed = 1;
nodes = (
(196,129,l),
(198,129,l),
(198,106,ls),
(198,32,o),
(228,7,o),
(319,7,c),
(196,7,l)
);
},
{
closed = 1;
nodes = (
(196,685,l),
(198,685,l),
(647,14,l),
(667,14,l),
(663,7,l),
(647,7,l),
(230,629,l),
(196,629,l)
);
},
{
closed = 1;
nodes = (
(1059,673,l),
(1065,682,l),
(1065,7,l),
(1061,7,l),
(1061,629,l),
(1032,629,l)
);
}
);
width = 1261;
},
{
associatedMasterId = "DF54607F-DD82-41E6-B2E3-81CA6D0E5C47";
attr = {
colorPalette = 1;
};
layerId = "975C29BB-E929-4AA5-9629-9BEB4FBB71AA";
name = "26 Jul 23 1:00 p.m.";
shapes = (
{
closed = 1;
nodes = (
(105,351,l),
(106,351,l),
(109,337,ls),
(138,201,o),
(218,79,o),
(316,20,c),
(105,20,l)
);
},
{
closed = 1;
nodes = (
(105,688,l),
(524,688,l),
(832,215,l),
(838,215,l),
(775,20,l),
(518,20,l),
(127,586,l),
(105,586,l)
);
},
{
closed = 1;
nodes = (
(1003,688,l),
(1504,688,l),
(1504,20,l),
(1024,20,l),
(1024,612,l),
(981,612,l)
);
}
);
width = 1606;
}
);
unicode = 77;
},
{
color = 4;
glyphname = N;
kernLeft = HH;
kernRight = N;
lastChange = "2023-07-26 05:00:25 +0000";
layers = (
{
anchors = (
{
name = bottom;
pos = (388,0);
},
{
name = top;
pos = (378,708);
}
);
layerId = "2660E96A-9963-4076-AFCB-E451BC6EE103";
shapes = (
{
closed = 1;
nodes = (
(354,0,l),
(354,10,l),
(163,126,o),
(90,330,o),
(90,569,cs),
(90,574,l),
(105,574,l),
(536,0,l),
(667,0,l),
(667,688,l),
(751,698,l),
(751,708,l),
(432,708,l),
(432,698,l),
(576,623,o),
(652,441,o),
(652,267,cs),
(652,262,l),
(635,262,l),
(307,708,l),
(5,708,l),
(5,698,l),
(50,672,o),
(75,639,o),
(75,605,c),
(75,20,l),
(5,10,l),
(5,0,l)
);
},
{
closed = 1;
nodes = (
(95,357,l),
(96,357,l),
(101,335,ls),
(130,207,o),
(203,94,o),
(304,20,c),
(95,20,l)
);
},
{
closed = 1;
nodes = (
(115,594,l),
(95,594,l),
(95,635,o),
(80,664,o),
(53,688,c),
(297,688,l),
(625,242,l),
(647,242,l),
(647,20,l),
(546,20,l)
);
},
{
closed = 1;
nodes = (
(636,482,ls),
(616,552,o),
(547,647,o),
(486,688,c),
(647,688,l),
(647,447,l),
(646,447,l)
);
}
);
width = 756;
},
{
anchors = (
{
name = bottom;
pos = (667,0);
},
{
name = top;
pos = (657,708);
}
);
layerId = "DF54607F-DD82-41E6-B2E3-81CA6D0E5C47";
shapes = (
{
closed = 1;
nodes = (
(636,0,l),
(636,10,l),
(360,132,o),
(92,260,o),
(92,569,cs),
(92,574,l),
(104,574,l),
(906,0,l),
(1224,0,l),
(1224,688,l),
(1308,698,l),
(1308,708,l),
(754,708,l),
(754,698,l),
(947,628,o),
(1207,472,o),
(1207,267,cs),
(1207,262,l),
(1195,262,l),
(568,708,l),
(5,708,l),
(5,698,l),
(52,671,o),
(75,640,o),
(75,605,c),
(75,20,l),
(5,10,l),
(5,0,l)
);
},
{
closed = 1;
nodes = (
(95,420,l),
(97,420,l),
(104,400,ls),
(169,213,o),
(363,111,o),
(564,20,c),
(95,20,l)
);
},
{
closed = 1;
nodes = (
(111,596,l),
(94,596,l),
(94,633,o),
(82,662,o),
(58,686,c),
(561,686,l),
(1188,240,l),
(1207,240,l),
(1207,22,l),
(913,22,l)
);
},
{
closed = 1;
nodes = (
(1188,411,ls),
(1130,518,o),
(1023,602,o),
(841,686,c),
(1202,686,l),
(1202,387,l),
(1201,387,l)
);
}
);
width = 1313;
},
{
anchors = (
{
name = bottom;
pos = (436,0);
},
{
name = top;
pos = (416,708);
}
);
layerId = "A5088515-37FF-452F-BD44-18A7A5EF88F0";
shapes = (
{
closed = 1;
nodes = (
(295,0,l),
(295,10,l),
(198,10,o),
(165,30,o),
(165,89,c),
(165,620,l),
(175,620,l),
(682,0,l),
(692,0,l),
(692,683,l),
(762,698,l),
(762,708,l),
(547,708,l),
(547,698,l),
(645,698,o),
(677,672,o),
(677,600,c),
(677,40,l),
(666,40,l),
(123,708,l),
(80,708,l),
(80,698,l),
(119,686,o),
(150,654,o),
(150,626,c),
(150,25,l),
(80,10,l),
(80,0,l)
);
},
{
closed = 1;
nodes = (
(155,129,l),
(157,129,l),
(157,106,ls),
(157,36,o),
(180,11,o),
(249,7,c),
(155,7,l)
);
},
{
closed = 1;
nodes = (
(176,627,l),
(157,627,l),
(157,656,o),
(126,689,o),
(87,703,c),
(120,703,l),
(664,35,l),
(687,35,l),
(687,7,l),
(682,7,l)
);
},
{
closed = 1;
nodes = (
(684,602,ls),
(681,666,o),
(656,693,o),
(593,701,c),
(687,701,l),
(687,579,l),
(685,579,l)
);
}
);
width = 812;
},
{
anchors = (
{
name = bottom;
pos = (609,0);
},
{
name = top;
pos = (579,708);
}
);
layerId = "35A90D60-3AD4-435C-9F8B-D1CA483F6F66";
shapes = (
{
closed = 1;
nodes = (
(399,0,l),
(399,10,l),
(253,10,o),
(204,30,o),
(204,89,c),
(204,620,l),
(219,620,l),
(979,0,l),
(987,0,l),
(987,683,l),
(1097,698,l),
(1097,708,l),
(777,708,l),
(777,698,l),
(923,698,o),
(972,672,o),
(972,600,c),
(972,33,l),
(961,33,l),
(134,708,l),
(80,708,l),
(80,698,l),
(141,685,o),
(189,653,o),
(189,626,c),
(189,25,l),
(80,10,l),
(80,0,l)
);
},
{
closed = 1;
nodes = (
(194,129,l),
(196,129,l),
(196,106,ls),
(196,37,o),
(216,20,o),
(317,7,c),
(194,7,l)
);
},
{
closed = 1;
nodes = (
(218,627,l),
(196,627,l),
(196,657,o),
(148,690,o),
(87,702,c),
(132,702,l),
(962,26,l),
(982,26,l),
(982,7,l),
(978,7,l)
);
},
{
closed = 1;
nodes = (
(979,602,ls),
(976,666,o),
(939,696,o),
(859,701,c),
(982,701,l),
(982,579,l),
(980,579,l)
);
}
);
width = 1177;
},
{
anchors = (
{
name = bottom;
pos = (667,0);
},
{
name = top;
pos = (657,708);
}
);
associatedMasterId = "DF54607F-DD82-41E6-B2E3-81CA6D0E5C47";
attr = {
colorPalette = 0;
};
layerId = "531CE4F6-2C77-4654-92BC-4AF83D59CE1D";
name = "25 Jul 23 9:57 p.m.";
shapes = (
{
closed = 1;
nodes = (
(636,0,l),
(636,10,l),
(360,132,o),
(92,260,o),
(92,569,cs),
(92,574,l),
(104,574,l),
(906,0,l),
(1224,0,l),
(1224,688,l),
(1308,698,l),
(1308,708,l),
(754,708,l),
(754,698,l),
(947,628,o),
(1207,472,o),
(1207,267,cs),
(1207,262,l),
(1195,262,l),
(568,708,l),
(5,708,l),
(5,698,l),
(52,671,o),
(75,640,o),
(75,605,c),
(75,20,l),
(5,10,l),
(5,0,l)
);
}
);
width = 1313;
},
{
anchors = (
{
name = bottom;
pos = (609,0);
},
{
name = top;
pos = (579,708);
}
);
associatedMasterId = "35A90D60-3AD4-435C-9F8B-D1CA483F6F66";
attr = {
colorPalette = 0;
};
layerId = "2D7F79A6-66D1-45CB-8994-D2BC04E67054";
name = "25 Jul 23 9:57 p.m.";
shapes = (
{
closed = 1;
nodes = (
(399,0,l),
(399,10,l),
(253,10,o),
(204,30,o),
(204,89,c),
(204,620,l),
(219,620,l),
(979,0,l),
(987,0,l),
(987,683,l),
(1097,698,l),
(1097,708,l),
(777,708,l),
(777,698,l),
(923,698,o),
(972,672,o),
(972,600,c),
(972,33,l),
(961,33,l),
(134,708,l),
(80,708,l),
(80,698,l),
(141,685,o),
(189,653,o),
(189,626,c),
(189,25,l),
(80,10,l),
(80,0,l)
);
}
);
width = 1177;
},
{
anchors = (
{
name = bottom;
pos = (388,0);
},
{
name = top;
pos = (378,708);
}
);
associatedMasterId = "2660E96A-9963-4076-AFCB-E451BC6EE103";
attr = {
colorPalette = 0;
};
layerId = "9547EA6D-64F0-482D-8B4C-0CEEB223F17A";
name = "25 Jul 23 9:57 p.m.";
shapes = (
{
closed = 1;
nodes = (
(354,0,l),
(354,10,l),
(163,126,o),
(90,330,o),
(90,569,cs),
(90,574,l),
(105,574,l),
(536,0,l),
(667,0,l),
(667,688,l),
(751,698,l),
(751,708,l),
(432,708,l),
(432,698,l),
(576,623,o),
(652,441,o),
(652,267,cs),
(652,262,l),
(635,262,l),
(307,708,l),
(5,708,l),
(5,698,l),
(50,672,o),
(75,639,o),
(75,605,c),
(75,20,l),
(5,10,l),
(5,0,l)
);
}
);
width = 756;
},
{
anchors = (
{
name = bottom;
pos = (436,0);
},
{
name = top;
pos = (416,708);
}
);
associatedMasterId = "A5088515-37FF-452F-BD44-18A7A5EF88F0";
attr = {
colorPalette = 0;
};
layerId = "7A8233F3-A873-4EEA-B7B4-BEAF976829DF";
name = "25 Jul 23 9:57 p.m.";
shapes = (
{
closed = 1;
nodes = (
(295,0,l),
(295,10,l),
(198,10,o),
(165,30,o),
(165,89,c),
(165,620,l),
(175,620,l),
(682,0,l),
(692,0,l),
(692,683,l),
(762,698,l),
(762,708,l),
(547,708,l),
(547,698,l),
(645,698,o),
(677,672,o),
(677,600,c),
(677,40,l),
(666,40,l),
(123,708,l),
(80,708,l),
(80,698,l),
(119,686,o),
(150,654,o),
(150,626,c),
(150,25,l),
(80,10,l),
(80,0,l)
);
}
);
width = 812;
},
{
anchors = (
{
name = bottom;
pos = (436,0);
},
{
name = top;
pos = (416,708);
}
);
associatedMasterId = "A5088515-37FF-452F-BD44-18A7A5EF88F0";
attr = {
colorPalette = 1;
};
layerId = "2CD234BF-7536-483C-BB12-4DF79C7EFE78";
name = "25 Jul 23 9:59 p.m.";
shapes = (
{
closed = 1;
nodes = (
(155,129,l),
(157,129,l),
(157,106,ls),
(157,36,o),
(180,11,o),
(249,7,c),
(155,7,l)
);
},
{
closed = 1;
nodes = (
(176,627,l),
(157,627,l),
(157,656,o),
(126,689,o),
(87,703,c),
(120,703,l),
(664,35,l),
(687,35,l),
(687,7,l),
(682,7,l)
);
},
{
closed = 1;
nodes = (
(684,602,ls),
(681,666,o),
(656,693,o),
(593,701,c),
(687,701,l),
(687,579,l),
(685,579,l)
);
}
);
width = 812;
},
{
anchors = (
{
name = bottom;
pos = (388,0);
},
{
name = top;
pos = (378,708);
}
);
associatedMasterId = "2660E96A-9963-4076-AFCB-E451BC6EE103";
attr = {
colorPalette = 1;
};
layerId = "6EDF30C3-897C-426B-879D-9D7FE8409560";
name = "25 Jul 23 9:59 p.m.";
shapes = (
{
closed = 1;
nodes = (
(95,357,l),
(96,357,l),
(101,335,ls),
(130,207,o),
(203,94,o),
(304,20,c),
(95,20,l)
);
},
{
closed = 1;
nodes = (
(115,594,l),
(95,594,l),
(95,635,o),
(80,664,o),
(53,688,c),
(297,688,l),
(625,242,l),
(647,242,l),
(647,20,l),
(546,20,l)
);
},
{
closed = 1;
nodes = (
(636,482,ls),
(616,552,o),
(547,647,o),
(486,688,c),
(647,688,l),
(647,447,l),
(646,447,l)
);
}
);
width = 756;
},
{
anchors = (
{
name = bottom;
pos = (609,0);
},
{
name = top;
pos = (579,708);
}
);
associatedMasterId = "35A90D60-3AD4-435C-9F8B-D1CA483F6F66";
attr = {
colorPalette = 1;
};
layerId = "67D1131E-9AD9-4887-A0F1-AC3224CA1C3B";
name = "25 Jul 23 9:59 p.m.";
shapes = (
{
closed = 1;
nodes = (
(194,129,l),
(196,129,l),
(196,106,ls),
(196,37,o),
(216,20,o),
(317,7,c),
(194,7,l)
);
},
{
closed = 1;
nodes = (
(218,627,l),
(196,627,l),
(196,657,o),
(148,690,o),
(87,702,c),
(132,702,l),
(962,26,l),
(982,26,l),
(982,7,l),
(978,7,l)
);
},
{
closed = 1;
nodes = (
(979,602,ls),
(976,666,o),
(939,696,o),
(859,701,c),
(982,701,l),
(982,579,l),
(980,579,l)
);
}
);
width = 1177;
},
{
anchors = (
{
name = bottom;
pos = (667,0);
},
{
name = top;
pos = (657,708);
}
);
associatedMasterId = "DF54607F-DD82-41E6-B2E3-81CA6D0E5C47";
attr = {
colorPalette = 1;
};
layerId = "BCCF6D5A-1FAB-4925-907B-B8FB5CD759EA";
name = "25 Jul 23 9:59 p.m.";
shapes = (
{
closed = 1;
nodes = (
(95,420,l),
(97,420,l),
(104,400,ls),
(169,213,o),
(363,111,o),
(564,20,c),
(95,20,l)
);
},
{
closed = 1;
nodes = (
(111,596,l),
(94,596,l),
(94,633,o),
(82,662,o),
(58,686,c),
(561,686,l),
(1188,240,l),
(1207,240,l),
(1207,22,l),
(913,22,l)
);
},
{
closed = 1;
nodes = (
(1188,411,ls),
(1130,518,o),
(1023,602,o),
(841,686,c),
(1202,686,l),
(1202,387,l),
(1201,387,l)
);
}
);
width = 1313;
}
);
unicode = 78;
},
{
color = 1;
glyphname = Eng;
kernLeft = HH;
kernRight = N;
lastChange = "2023-07-28 03:12:01 +0000";
layers = (
{
layerId = "DF54607F-DD82-41E6-B2E3-81CA6D0E5C47";
shapes = (
{
closed = 1;
nodes = (
(744,218,l),
(744,-83,ls),
(744,-161,o),
(734,-204,o),
(697,-204,cs),
(668,-204,o),
(654,-174,o),
(654,-114,cs),
(654,-62,o),
(602,-38,o),
(509,-38,cs),
(414,-38,o),
(361,-64,o),
(361,-110,cs),
(361,-181,o),
(505,-215,o),
(695,-215,cs),
(1122,-215,o),
(1224,-172,o),
(1224,-43,cs),
(1224,218,l)
);
},
{
ref = N;
}
);
width = 1313;
},
{
layerId = "A5088515-37FF-452F-BD44-18A7A5EF88F0";
shapes = (
{
closed = 1;
nodes = (
(678,338,l),
(678,-114,l),
(678,-168,o),
(653,-200,o),
(606,-200,cs),
(559,-200,o),
(536,-174,o),
(536,-122,cs),
(536,-93,o),
(522,-77,o),
(498,-77,cs),
(478,-77,o),
(464,-91,o),
(464,-113,cs),
(464,-170,o),
(526,-215,o),
(606,-215,cs),
(661,-215,o),
(692,-177,o),
(692,-114,cs),
(692,338,l)
);
},
{
ref = N;
}
);
width = 812;
},
{
layerId = "2660E96A-9963-4076-AFCB-E451BC6EE103";
shapes = (
{
closed = 1;
nodes = (
(452,198,l),
(452,-83,ls),
(452,-161,o),
(450,-204,o),
(425,-204,cs),
(398,-204,o),
(385,-171,o),
(385,-104,cs),
(385,-60,o),
(351,-38,o),
(281,-38,cs),
(223,-38,o),
(191,-64,o),
(191,-110,cs),
(191,-182,o),
(299,-215,o),
(425,-215,cs),
(555,-215,o),
(667,-161,o),
(667,-83,cs),
(667,198,l)
);
},
{
ref = N;
}
);
width = 756;
},
{
layerId = "35A90D60-3AD4-435C-9F8B-D1CA483F6F66";
shapes = (
{
closed = 1;
nodes = (
(973,338,l),
(973,-114,ls),
(973,-167,o),
(926,-200,o),
(852,-200,cs),
(788,-200,o),
(756,-175,o),
(756,-125,cs),
(756,-91,o),
(724,-77,o),
(699,-77,cs),
(673,-77,o),
(650,-93,o),
(650,-118,cs),
(650,-175,o),
(733,-215,o),
(851,-215,cs),
(935,-215,o),
(987,-176,o),
(987,-114,cs),
(987,338,l)
);
},
{
ref = N;
}
);
width = 1177;
}
);
unicode = 330;
},
{
color = 4;
glyphname = O;
kernLeft = OO;
kernRight = O;
lastChange = "2023-07-26 04:51:18 +0000";
layers = (
{
anchors = (
{
name = bottom;
pos = (402,0);
},
{
name = center;
pos = (402,354);
},
{
name = ogonek;
pos = (533,10);
},
{
name = top;
pos = (402,708);
},
{
name = topleft;
pos = (20,708);
},
{
name = topright;
pos = (780,708);
}
);
layerId = "2660E96A-9963-4076-AFCB-E451BC6EE103";
shapes = (
{
closed = 1;
nodes = (
(182,723,o),
(30,576,o),
(30,352,cs),
(30,107,o),
(190,-15,o),
(402,-15,cs),
(612,-15,o),
(770,103,o),
(770,351,cs),
(770,614,o),
(605,723,o),
(402,723,cs)
);
},
{
closed = 1;
nodes = (
(488,713,o),
(520,616,o),
(520,357,cs),
(520,96,o),
(488,-3,o),
(402,-3,cs),
(316,-3,o),
(280,104,o),
(280,356,cs),
(280,611,o),
(316,713,o),
(402,713,cs)
);
},
{
attr = {
fillColor = (255,138,216,255);
};
closed = 1;
nodes = (
(160,40,o),
(52,150,o),
(52,352,cs),
(52,536,o),
(154,662,o),
(316,693,c),
(276,638,o),
(258,529,o),
(258,356,cs),
(258,179,o),
(276,67,o),
(320,14,c)
);
},
{
attr = {
fillColor = (255,138,216,255);
};
closed = 1;
nodes = (
(526,67,o),
(542,177,o),
(542,357,cs),
(542,534,o),
(526,641,o),
(486,694,c),
(639,668,o),
(748,565,o),
(748,351,cs),
(748,148,o),
(642,40,o),
(485,14,c)
);
}
);
width = 800;
},
{
anchors = (
{
name = bottom;
pos = (686,0);
},
{
name = center;
pos = (686,354);
},
{
name = ogonek;
pos = (899,10);
},
{
name = top;
pos = (686,708);
},
{
name = topleft;
pos = (20,708);
},
{
name = topright;
pos = (1348,708);
}
);
layerId = "DF54607F-DD82-41E6-B2E3-81CA6D0E5C47";
shapes = (
{
closed = 1;
nodes = (
(308,723,o),
(30,570,o),
(30,354,cs),
(30,138,o),
(308,-15,o),
(686,-15,cs),
(1062,-15,o),
(1338,138,o),
(1338,354,cs),
(1338,570,o),
(1062,723,o),
(686,723,cs)
);
},
{
closed = 1;
nodes = (
(772,713,o),
(804,616,o),
(804,354,cs),
(804,96,o),
(772,-3,o),
(686,-3,cs),
(600,-3,o),
(564,104,o),
(564,354,cs),
(564,611,o),
(600,713,o),
(686,713,cs)
);
},
{
attr = {
fillColor = (255,138,216,255);
};
closed = 1;
nodes = (
(278,27,o),
(52,165,o),
(52,354,cs),
(52,542,o),
(276,680,o),
(605,699,c),
(560,646,o),
(542,535,o),
(542,354,cs),
(542,173,o),
(561,60,o),
(608,9,c)
);
},
{
attr = {
fillColor = (255,138,216,255);
};
closed = 1;
nodes = (
(809,60,o),
(826,170,o),
(826,354,cs),
(826,537,o),
(810,646,o),
(768,698,c),
(1093,679,o),
(1316,542,o),
(1316,354,cs),
(1316,165,o),
(1092,28,o),
(765,9,c)
);
}
);
width = 1368;
},
{
anchors = (
{
name = bottom;
pos = (371,0);
},
{
name = center;
pos = (371,354);
},
{
name = ogonek;
pos = (473,10);
},
{
name = top;
pos = (371,708);
},
{
name = topleft;
pos = (20,708);
},
{
name = topright;
pos = (720,708);
}
);
layerId = "A5088515-37FF-452F-BD44-18A7A5EF88F0";
shapes = (
{
closed = 1;
nodes = (
(188,723,o),
(80,588,o),
(80,360,cs),
(80,124,o),
(188,-15,o),
(371,-15,cs),
(553,-15,o),
(660,124,o),
(660,360,cs),
(660,588,o),
(553,723,o),
(371,723,cs)
);
},
{
closed = 1;
nodes = (
(543,708,o),
(644,578,o),
(644,360,cs),
(644,134,o),
(543,0,o),
(371,0,cs,{
name = "❌";
}),
(198,0,o),
(96,134,o),
(96,360,cs),
(96,578,o),
(198,708,o),
(371,708,cs,{
name = "❌";
})
);
},
{
attr = {
fillColor = (255,138,216,255);
};
closed = 1;
nodes = (
(133,87,o),
(85,200,o),
(85,360,cs),
(85,514,o),
(137,623,o),
(225,677,c),
(143,624,o),
(91,513,o),
(91,360,cs),
(91,201,o),
(140,87,o),
(228,31,c)
);
},
{
attr = {
fillColor = (255,138,216,255);
};
closed = 1;
nodes = (
(598,86,o),
(649,201,o),
(649,360,cs),
(649,512,o),
(597,623,o),
(516,677,c),
(604,623,o),
(655,513,o),
(655,360,cs),
(655,200,o),
(604,86,o),
(514,31,c)
);
}
);
width = 740;
},
{
anchors = (
{
name = bottom;
pos = (576,0);
},
{
name = center;
pos = (576,354);
},
{
name = ogonek;
pos = (729,10);
},
{
name = top;
pos = (576,708);
},
{
name = topleft;
pos = (20,708);
},
{
name = topright;
pos = (1127,708);
}
);
layerId = "35A90D60-3AD4-435C-9F8B-D1CA483F6F66";
shapes = (
{
closed = 1;
nodes = (
(291,723,o),
(90,573,o),
(90,360,cs),
(90,140,o),
(291,-15,o),
(576,-15,cs),
(858,-15,o),
(1057,140,o),
(1057,360,cs),
(1057,573,o),
(858,723,o),
(576,723,cs)
);
},
{
closed = 1;
nodes = (
(849,708,o),
(1042,563,o),
(1042,360,cs),
(1042,150,o),
(849,0,o),
(576,0,cs,{
name = "❌";
}),
(300,0,o),
(105,150,o),
(105,360,cs),
(105,563,o),
(300,708,o),
(576,708,cs,{
name = "❌";
})
);
},
{
attr = {
fillColor = (255,138,216,255);
};
closed = 1;
nodes = (
(191,89,o),
(95,208,o),
(95,360,cs),
(95,505,o),
(190,620,o),
(349,677,c),
(195,621,o),
(100,505,o),
(100,360,cs),
(100,209,o),
(195,88,o),
(352,31,c)
);
},
{
attr = {
fillColor = (255,138,216,255);
};
closed = 1;
nodes = (
(949,88,o),
(1047,209,o),
(1047,360,cs),
(1047,505,o),
(954,621,o),
(801,677,c),
(959,621,o),
(1052,506,o),
(1052,360,cs),
(1052,208,o),
(953,89,o),
(799,31,c)
);
}
);
width = 1147;
},
{
anchors = (
{
name = bottom;
pos = (371,0);
},
{
name = center;
pos = (371,354);
},
{
name = ogonek;
pos = (473,10);
},
{
name = top;
pos = (371,708);
},
{
name = topleft;
pos = (20,708);
},
{
name = topright;
pos = (720,708);
}
);
associatedMasterId = "A5088515-37FF-452F-BD44-18A7A5EF88F0";
attr = {
colorPalette = 0;
};
layerId = "65A704AB-7BE5-4011-BDB3-777DB9716D8F";
name = "25 Jul 23 9:49 p.m.";
shapes = (
{
closed = 1;
nodes = (
(188,723,o),
(80,588,o),
(80,360,cs),
(80,124,o),
(188,-15,o),
(371,-15,cs),
(553,-15,o),
(660,124,o),
(660,360,cs),
(660,588,o),
(553,723,o),
(371,723,cs)
);
},
{
closed = 1;
nodes = (
(543,708,o),
(644,578,o),
(644,360,cs),
(644,134,o),
(543,0,o),
(371,0,cs,{
name = "❌";
}),
(198,0,o),
(96,134,o),
(96,360,cs),
(96,578,o),
(198,708,o),
(371,708,cs,{
name = "❌";
})
);
}
);
width = 740;
},
{
anchors = (
{
name = bottom;
pos = (402,0);
},
{
name = center;
pos = (402,354);
},
{
name = ogonek;
pos = (533,10);
},
{
name = top;
pos = (402,708);
},
{
name = topleft;
pos = (20,708);
},
{
name = topright;
pos = (780,708);
}
);
associatedMasterId = "2660E96A-9963-4076-AFCB-E451BC6EE103";
attr = {
colorPalette = 0;
};
layerId = "025F4901-E531-473C-B5F9-53853612C31A";
name = "25 Jul 23 9:49 p.m.";
shapes = (
{
closed = 1;
nodes = (
(182,723,o),
(30,576,o),
(30,352,cs),
(30,107,o),
(190,-15,o),
(402,-15,cs),
(612,-15,o),
(770,103,o),
(770,351,cs),
(770,614,o),
(605,723,o),
(402,723,cs)
);
},
{
closed = 1;
nodes = (
(488,713,o),
(520,616,o),
(520,357,cs),
(520,96,o),
(488,-3,o),
(402,-3,cs),
(316,-3,o),
(280,104,o),
(280,356,cs),
(280,611,o),
(316,713,o),
(402,713,cs)
);
}
);
width = 800;
},
{
anchors = (
{
name = bottom;
pos = (576,0);
},
{
name = center;
pos = (576,354);
},
{
name = ogonek;
pos = (729,10);
},
{
name = top;
pos = (576,708);
},
{
name = topleft;
pos = (20,708);
},
{
name = topright;
pos = (1127,708);
}
);
associatedMasterId = "35A90D60-3AD4-435C-9F8B-D1CA483F6F66";
attr = {
colorPalette = 0;
};
layerId = "056BC015-F862-4592-BBCD-57BA1139ACD9";
name = "25 Jul 23 9:49 p.m.";
shapes = (
{
closed = 1;
nodes = (
(291,723,o),
(90,573,o),
(90,360,cs),
(90,140,o),
(291,-15,o),
(576,-15,cs),
(858,-15,o),
(1057,140,o),
(1057,360,cs),
(1057,573,o),
(858,723,o),
(576,723,cs)
);
},
{
closed = 1;
nodes = (
(849,708,o),
(1042,563,o),
(1042,360,cs),
(1042,150,o),
(849,0,o),
(576,0,cs,{
name = "❌";
}),
(300,0,o),
(105,150,o),
(105,360,cs),
(105,563,o),
(300,708,o),
(576,708,cs,{
name = "❌";
})
);
}
);
width = 1147;
},
{
anchors = (
{
name = bottom;
pos = (686,0);
},
{
name = center;
pos = (686,354);
},
{
name = ogonek;
pos = (899,10);
},
{
name = top;
pos = (686,708);
},
{
name = topleft;
pos = (20,708);
},
{
name = topright;
pos = (1348,708);
}
);
associatedMasterId = "DF54607F-DD82-41E6-B2E3-81CA6D0E5C47";
attr = {
colorPalette = 0;
};
layerId = "7DC35D17-99EB-4169-8C68-EE22DA87AA26";
name = "25 Jul 23 9:49 p.m.";
shapes = (
{
closed = 1;
nodes = (
(308,723,o),
(30,570,o),
(30,354,cs),
(30,138,o),
(308,-15,o),
(686,-15,cs),
(1062,-15,o),
(1338,138,o),
(1338,354,cs),
(1338,570,o),
(1062,723,o),
(686,723,cs)
);
},
{
closed = 1;
nodes = (
(772,713,o),
(804,616,o),
(804,354,cs),
(804,96,o),
(772,-3,o),
(686,-3,cs),
(600,-3,o),
(564,104,o),
(564,354,cs),
(564,611,o),
(600,713,o),
(686,713,cs)
);
}
);
width = 1368;
},
{
anchors = (
{
name = bottom;
pos = (371,0);
},
{
name = center;
pos = (371,354);
},
{
name = ogonek;
pos = (473,10);
},
{
name = top;
pos = (371,708);
},
{
name = topleft;
pos = (20,708);
},
{
name = topright;
pos = (720,708);
}
);
associatedMasterId = "A5088515-37FF-452F-BD44-18A7A5EF88F0";
attr = {
colorPalette = 1;
};
layerId = "20B0F8E2-46DE-438E-BD23-E24D11B43565";
name = "25 Jul 23 9:49 p.m.";
shapes = (
{
attr = {
fillColor = (255,138,216,255);
};
closed = 1;
nodes = (
(133,87,o),
(85,200,o),
(85,360,cs),
(85,514,o),
(137,623,o),
(225,677,c),
(143,624,o),
(91,513,o),
(91,360,cs),
(91,201,o),
(140,87,o),
(228,31,c)
);
},
{
attr = {
fillColor = (255,138,216,255);
};
closed = 1;
nodes = (
(598,86,o),
(649,201,o),
(649,360,cs),
(649,512,o),
(597,623,o),
(516,677,c),
(604,623,o),
(655,513,o),
(655,360,cs),
(655,200,o),
(604,86,o),
(514,31,c)
);
}
);
width = 740;
},
{
anchors = (
{
name = bottom;
pos = (402,0);
},
{
name = center;
pos = (402,354);
},
{
name = ogonek;
pos = (533,10);
},
{
name = top;
pos = (402,708);
},
{
name = topleft;
pos = (20,708);
},
{
name = topright;
pos = (780,708);
}
);
associatedMasterId = "2660E96A-9963-4076-AFCB-E451BC6EE103";
attr = {
colorPalette = 1;
};
layerId = "A3859E2F-10A5-4245-9074-49DB2200ECE7";
name = "25 Jul 23 9:49 p.m.";
shapes = (
{
attr = {
fillColor = (255,138,216,255);
};
closed = 1;
nodes = (
(160,40,o),
(52,150,o),
(52,352,cs),
(52,536,o),
(154,662,o),
(316,693,c),
(276,638,o),
(258,529,o),
(258,356,cs),
(258,179,o),
(276,67,o),
(320,14,c)
);
},
{
attr = {
fillColor = (255,138,216,255);
};
closed = 1;
nodes = (
(526,67,o),
(542,177,o),
(542,357,cs),
(542,534,o),
(526,641,o),
(486,694,c),
(639,668,o),
(748,565,o),
(748,351,cs),
(748,148,o),
(642,40,o),
(485,14,c)
);
}
);
width = 800;
},
{
anchors = (
{
name = bottom;
pos = (576,0);
},
{
name = center;
pos = (576,354);
},
{
name = ogonek;
pos = (729,10);
},
{
name = top;
pos = (576,708);
},
{
name = topleft;
pos = (20,708);
},
{
name = topright;
pos = (1127,708);
}
);
associatedMasterId = "35A90D60-3AD4-435C-9F8B-D1CA483F6F66";
attr = {
colorPalette = 1;
};
layerId = "CF562C75-850C-4517-84A6-1653134E7870";
name = "25 Jul 23 9:50 p.m.";
shapes = (
{
attr = {
fillColor = (255,138,216,255);
};
closed = 1;
nodes = (
(191,89,o),
(95,208,o),
(95,360,cs),
(95,505,o),
(190,620,o),
(349,677,c),
(195,621,o),
(100,505,o),
(100,360,cs),
(100,209,o),
(195,88,o),
(352,31,c)
);
},
{
attr = {
fillColor = (255,138,216,255);
};
closed = 1;
nodes = (
(949,88,o),
(1047,209,o),
(1047,360,cs),
(1047,505,o),
(954,621,o),
(801,677,c),
(959,621,o),
(1052,506,o),
(1052,360,cs),
(1052,208,o),
(953,89,o),
(799,31,c)
);
}
);
width = 1147;
},
{
anchors = (
{
name = bottom;
pos = (686,0);
},
{
name = center;
pos = (686,354);
},
{
name = ogonek;
pos = (899,10);
},
{
name = top;
pos = (686,708);
},
{
name = topleft;
pos = (20,708);
},
{
name = topright;
pos = (1348,708);
}
);
associatedMasterId = "DF54607F-DD82-41E6-B2E3-81CA6D0E5C47";
attr = {
colorPalette = 1;
};
layerId = "2566F138-9E7D-4A3E-A876-2B19C73F23B8";
name = "25 Jul 23 9:50 p.m.";
shapes = (
{
attr = {
fillColor = (255,138,216,255);
};
closed = 1;
nodes = (
(278,27,o),
(52,165,o),
(52,354,cs),
(52,542,o),
(276,680,o),
(605,699,c),
(560,646,o),
(542,535,o),
(542,354,cs),
(542,173,o),
(561,60,o),
(608,9,c)
);
},
{
attr = {
fillColor = (255,138,216,255);
};
closed = 1;
nodes = (
(809,60,o),
(826,170,o),
(826,354,cs),
(826,537,o),
(810,646,o),
(768,698,c),
(1093,679,o),
(1316,542,o),
(1316,354,cs),
(1316,165,o),
(1092,28,o),
(765,9,c)
);
}
);
width = 1368;
}
);
unicode = 79;
},
